<?xml version="1.0" encoding="iso-8859-1"?>
<!-- Generator: Adobe Illustrator 19.0.0, SVG Export Plug-In . SVG Version: 6.00 Build 0)  -->
<svg version="1.1" id="Layer_1" xmlns="http://www.w3.org/2000/svg" xmlns:xlink="http://www.w3.org/1999/xlink" x="0px" y="0px"
	 viewBox="0 0 512 512" style="enable-background:new 0 0 512 512;" xml:space="preserve">
<circle style="fill:#F95428;" cx="282.372" cy="196.802" r="187.578"/>
<path style="fill:#E03F20;" d="M137.593,196.797c0-96.357,72.661-175.73,166.177-186.35c-7.022-0.798-14.159-1.222-21.395-1.222
	c-103.593,0-187.572,83.979-187.572,187.572s83.979,187.572,187.572,187.572c7.236,0,14.373-0.424,21.395-1.222
	C210.254,372.527,137.593,293.154,137.593,196.797z"/>
<circle style="fill:#E6E6E6;" cx="282.372" cy="196.802" r="50.077"/>
<path style="fill:#B3B3B3;" d="M282.375,146.715c-3.673,0-7.249,0.407-10.698,1.157c22.517,4.902,39.384,24.939,39.384,48.925
	s-16.867,44.023-39.384,48.925c3.448,0.75,7.025,1.157,10.698,1.157c27.659,0,50.082-22.422,50.082-50.082
	C332.456,169.138,310.034,146.715,282.375,146.715z"/>
<path style="fill:#F7B239;" d="M392.522,420.125H172.229c-10.525,0-19.059,8.533-19.059,19.059v45.153
	c0,10.525,8.533,19.059,19.059,19.059h220.293c10.525,0,19.059-8.533,19.059-19.059v-45.153
	C411.58,428.658,403.048,420.125,392.522,420.125z"/>
<path style="fill:#E09B2D;" d="M182.885,484.337v-45.153c0-10.526,8.533-19.059,19.059-19.059h-29.716
	c-10.527,0-19.059,8.533-19.059,19.059v45.153c0,10.525,8.533,19.059,19.059,19.059h29.716
	C191.418,503.395,182.885,494.862,182.885,484.337z"/>
<path d="M282.971,155.32c12.561,0,24.278,5.631,32.145,15.446c3.079,3.842,8.689,4.461,12.532,1.381
	c3.842-3.079,4.46-8.69,1.381-12.532c-11.268-14.062-28.057-22.126-46.058-22.126c-32.53,0-58.997,26.466-58.997,58.997
	s26.466,58.997,58.997,58.997s58.997-26.466,58.997-58.997c0-4.923-3.991-8.915-8.915-8.915s-8.915,3.991-8.915,8.915
	c0,22.699-18.468,41.167-41.167,41.167c-22.699,0-41.167-18.468-41.167-41.167S260.272,155.32,282.971,155.32z"/>
<path d="M479.458,196.487C479.458,88.144,391.315,0,282.971,0c-28.345,0-55.699,5.908-81.302,17.56
	c-4.481,2.04-6.461,7.326-4.422,11.807c2.038,4.481,7.327,6.46,11.807,4.422c23.269-10.59,48.138-15.959,73.917-15.959
	c98.512,0,178.657,80.146,178.657,178.657s-80.145,178.657-178.657,178.657s-178.657-80.146-178.657-178.657
	c0-59.444,29.448-114.827,78.774-148.151c4.079-2.756,5.153-8.298,2.396-12.377c-2.756-4.079-8.297-5.152-12.378-2.396
	c-54.24,36.644-86.623,97.551-86.623,162.925c0,105.356,83.353,191.599,187.576,196.277v17.958
	c-53.578-2.179-103.714-23.976-142.014-61.935c-38.251-37.91-60.479-87.765-63.183-141.213h5.615c4.923,0,8.915-3.991,8.915-8.915
	c0-4.923-3.991-8.915-8.915-8.915h-33.02c-4.923,0-8.915,3.991-8.915,8.915c0,4.923,3.991,8.915,8.915,8.915h9.559
	c2.72,58.241,26.827,112.597,68.478,153.877c21.602,21.41,46.687,38.062,73.959,49.451h-20.63
	c-15.425,0-27.973,12.548-27.973,27.973v45.153c0,15.425,12.55,27.973,27.973,27.973h220.293c15.425,0,27.973-12.548,27.973-27.973
	v-45.153c0-15.425-12.55-27.973-27.973-27.973h-23.005c-4.923,0-8.915,3.991-8.915,8.915s3.991,8.915,8.915,8.915h23.005
	c5.594,0,10.144,4.55,10.144,10.144v45.153c0,5.594-4.551,10.144-10.144,10.144H172.824c-5.594,0-10.144-4.55-10.144-10.144v-45.153
	c0-5.594,4.551-10.144,10.144-10.144h171.138c4.923,0,8.915-3.991,8.915-8.915s-3.991-8.915-8.915-8.915h-52.074v-18.137
	C396.109,388.083,479.458,301.841,479.458,196.487z"/>
<g>
</g>
<g>
</g>
<g>
</g>
<g>
</g>
<g>
</g>
<g>
</g>
<g>
</g>
<g>
</g>
<g>
</g>
<g>
</g>
<g>
</g>
<g>
</g>
<g>
</g>
<g>
</g>
<g>
</g>
</svg>
