<?xml version="1.0" encoding="iso-8859-1"?>
<!-- Generator: Adobe Illustrator 19.0.0, SVG Export Plug-In . SVG Version: 6.00 Build 0)  -->
<svg version="1.1" id="Layer_1" xmlns="http://www.w3.org/2000/svg" xmlns:xlink="http://www.w3.org/1999/xlink" x="0px" y="0px"
	 viewBox="0 0 511.998 511.998" style="enable-background:new 0 0 511.998 511.998;" xml:space="preserve">
<path style="fill:#F95428;" d="M232.384,9.42c0,146.157-103.434,121.423-101.186,220.359c1.27,55.859,48.287,87.839,101.056,94.053
	c-12.647-14.616-68.437-87.395,18.118-145.77c2.779,56.262,49.469,65.209,49.469,105.683c0,17.044-3.591,28.49-7.746,36.049
	c43.547-11.385,80.452-41.736,86.446-92.262C394.28,94.866,232.384,9.42,232.384,9.42z"/>
<polygon style="fill:#F7B239;" points="411.727,394.194 298.987,436.234 215.6,467.336 119.406,503.208 99.047,448.616 
	132.225,436.246 215.612,405.144 391.369,339.59 "/>
<g>
	<polygon style="fill:#E09B2D;" points="298.987,436.234 215.6,467.336 132.225,436.246 215.612,405.144 	"/>
	
		<rect x="105.516" y="426.323" transform="matrix(-0.937 0.3494 -0.3494 -0.937 659.5428 756.8168)" style="fill:#E09B2D;" width="311.996" height="23.139"/>
</g>
<rect x="99.372" y="392.256" transform="matrix(0.937 0.3494 -0.3494 0.937 163.3247 -62.6665)" style="fill:#F7B239;" width="311.996" height="58.272"/>
<rect x="93.228" y="426.274" transform="matrix(0.937 0.3494 -0.3494 0.937 168.6856 -59.483)" style="fill:#E09B2D;" width="311.996" height="23.139"/>
<path d="M157.121,302.039c19.102,16.259,45.623,27.097,74.678,30.518c0.358,0.042,0.714,0.062,1.067,0.062
	c3.341,0,6.451-1.839,8.042-4.841c1.759-3.319,1.299-7.38-1.159-10.22c-7.377-8.527-31.097-38.998-26.568-73.088
	c2.429-18.285,12.77-35.099,30.788-50.127c5.035,23.434,17.704,38.428,28.249,50.905c10.686,12.646,19.127,22.634,19.127,38.18
	c0,13.02-2.228,23.672-6.62,31.663c-1.752,3.188-1.44,7.113,0.796,9.982c2.237,2.87,5.967,4.132,9.485,3.212
	c24.333-6.362,45.572-18.052,61.42-33.805c17.986-17.879,28.674-40.151,31.764-66.194c4.853-40.92-5.772-81.449-31.585-120.461
	c-2.776-4.194-8.422-5.344-12.618-2.569c-4.193,2.775-5.343,8.424-2.569,12.617c23.369,35.319,33.02,71.746,28.688,108.268
	c-4.308,36.307-26.818,64.331-62.644,78.887c1.39-6.581,2.089-13.795,2.089-21.6c0-22.209-11.911-36.303-23.428-49.934
	c-12.154-14.382-24.721-29.253-26.052-56.198c-0.163-3.283-2.081-6.222-5.02-7.693c-2.939-1.471-6.442-1.243-9.165,0.594
	c-30.037,20.257-47.115,44.439-50.759,71.875c-3.582,26.96,6.796,51.477,16.898,68.117c-16.697-4.649-31.559-12.188-43.105-22.015
	c-18.049-15.363-27.476-35.185-28.015-58.917c-0.929-40.844,17.06-57.676,39.834-78.988c26.887-25.161,57.129-53.457,60.949-125.479
	c18.657,11.656,54.026,36.222,82.955,70.7c3.233,3.852,8.977,4.354,12.826,1.123c3.853-3.233,4.356-8.975,1.123-12.827
	C295.061,31.901,239.58,2.287,237.241,1.052c-2.821-1.488-6.215-1.392-8.952,0.255c-2.733,1.647-4.403,4.606-4.403,7.797
	c0,75.854-28.257,102.297-55.586,127.87c-22.964,21.49-46.711,43.71-45.598,92.697C123.357,258.406,135.259,283.431,157.121,302.039
	z"/>
<path d="M415.522,439.763l-50.077-18.676l50.082-18.678c2.262-0.844,4.097-2.553,5.1-4.749c1.003-2.197,1.093-4.703,0.249-6.965
	l-20.37-54.604c-1.758-4.71-7.003-7.104-11.711-5.349l-97.324,36.293c-4.713,1.757-7.107,7.001-5.35,11.712
	c1.755,4.711,7.001,7.107,11.711,5.35l88.795-33.112l14.007,37.543l-61.244,22.839l-140.063-52.236
	c-4.714-1.758-9.956,0.637-11.712,5.35c-1.757,4.711,0.637,9.954,5.349,11.712l207.666,77.447l-13.998,37.536L111.369,388.523
	l13.998-37.536l38.393,14.319c4.711,1.757,9.956-0.637,11.712-5.35c1.757-4.711-0.637-9.954-5.349-11.712l-46.923-17.5
	c-2.263-0.844-4.767-0.754-6.964,0.249c-2.196,1.004-3.904,2.838-4.748,5.101l-20.361,54.598c-1.757,4.711,0.637,9.956,5.349,11.712
	l50.077,18.676l-50.082,18.678c-2.262,0.844-4.097,2.553-5.1,4.749c-1.003,2.196-1.093,4.702-0.249,6.965l20.37,54.604
	c1.367,3.663,4.84,5.924,8.532,5.924c1.056,0,2.132-0.186,3.179-0.577l132.802-49.523l132.789,49.522
	c1.049,0.391,2.123,0.577,3.181,0.577c3.692,0,7.166-2.263,8.532-5.925l20.362-54.597c0.844-2.263,0.754-4.768-0.249-6.965
	C419.619,442.315,417.785,440.607,415.522,439.763z M125.373,491.18l-14.007-37.543l61.243-22.841l57.341,21.385L125.373,491.18z"/>
<g>
</g>
<g>
</g>
<g>
</g>
<g>
</g>
<g>
</g>
<g>
</g>
<g>
</g>
<g>
</g>
<g>
</g>
<g>
</g>
<g>
</g>
<g>
</g>
<g>
</g>
<g>
</g>
<g>
</g>
</svg>
