<?xml version="1.0" encoding="iso-8859-1"?>
<!-- Generator: Adobe Illustrator 19.0.0, SVG Export Plug-In . SVG Version: 6.00 Build 0)  -->
<svg version="1.1" id="Layer_1" xmlns="http://www.w3.org/2000/svg" xmlns:xlink="http://www.w3.org/1999/xlink" x="0px" y="0px"
	 viewBox="0 0 512 512" style="enable-background:new 0 0 512 512;" xml:space="preserve">
<path style="fill:#999999;" d="M465.026,452.394c-3.136-42.67-38.792-75.602-81.578-75.876c-45.3-0.29-82.369-13.333-101.575-47.086
	c-2.217-3.912-4.303-7.889-6.292-11.932C228.989,222.27,247.434,87.993,264.828,9.289H44.258
	C43.004,154.074,71.183,326.556,66.38,453.317c-0.653,17.637-1.923,34.362-4.042,50.011h134.774l13.041-34.786l67.354,34.786
	h189.088c0-11.769-0.554-37.36-1.5-50.011C465.071,453.009,465.048,452.701,465.026,452.394z"/>
<path style="fill:#808080;" d="M80.493,9.289H44.257c-1.255,144.785,26.925,317.266,22.121,444.027
	c-0.651,17.637-1.923,34.362-4.042,50.011h36.236c2.119-15.649,3.391-32.374,4.042-50.011
	C107.418,326.554,79.239,154.074,80.493,9.289z"/>
<path style="fill:#4D4D4D;" d="M466.588,503.333H277.499l-67.348-34.793l-13.039,34.793H62.333
	c2.119-15.649,3.388-32.375,4.047-50.011h144.262h254.45C466.037,465.965,466.588,491.563,466.588,503.333z"/>
<g>
	<path style="fill:#F7B239;" d="M246.824,138.361h0.024c-0.587,11.698-0.838,23.551-0.67,35.452H51.497
		c-0.898-11.829-1.772-23.659-2.562-35.452C48.935,138.361,246.824,138.361,246.824,138.361z"/>
	<path style="fill:#F7B239;" d="M256.51,51.832h0.012c-1.916,11.291-3.688,23.168-5.208,35.464h-0.024H45.966
		c-0.563-11.925-1.006-23.766-1.305-35.464h0.012H256.51z"/>
</g>
<path d="M474.64,452.257c-0.013-0.174-0.028-0.347-0.034-0.52c-0.005-0.107-0.011-0.214-0.019-0.322
	c-1.681-22.876-11.899-44.096-28.767-59.754c-16.822-15.613-38.739-24.293-61.713-24.44c-46.359-0.293-77.93-14.611-93.826-42.541
	c-2.061-3.629-4.034-7.375-6.03-11.439c-18.187-37.187-27.774-84.241-28.493-139.868c-0.158-11.247,0.065-22.981,0.661-34.89
	c0.787-16.21,2.27-33.165,4.41-50.399c1.424-11.518,3.156-23.315,5.15-35.063c2.375-13.999,5.142-28.165,8.224-42.104
	c0.587-2.658-0.062-5.438-1.767-7.561C270.728,1.234,268.154,0,265.433,0H44.854c-4.929,0-8.938,3.974-8.98,8.903
	c-0.115,13.436,0.024,27.853,0.411,42.846c0.293,11.428,0.734,23.425,1.312,35.654c0.745,15.886,1.719,32.65,2.979,51.245
	c0.86,12.824,1.823,25.725,2.569,35.536c1.43,18.696,2.979,37.654,4.478,55.988l0.929,11.387c0.403,4.942,4.739,8.63,9.68,8.221
	c4.942-0.402,8.623-4.737,8.221-9.679l-0.93-11.392c-1.239-15.157-2.51-30.735-3.72-46.229h176.203
	c1.542,51.514,10.68,95.993,27.216,132.457c-11.219,10.357-21.122,21.885-29.491,34.352c-2.766,4.117-1.668,9.697,2.45,12.46
	c1.536,1.031,3.276,1.525,4.998,1.525c2.891,0,5.73-1.395,7.463-3.976c6.638-9.887,14.352-19.127,22.999-27.583
	c0.34,0.614,0.679,1.231,1.025,1.839c19.306,33.921,56.09,51.29,109.328,51.627c18.471,0.119,36.09,7.095,49.611,19.644
	c11.361,10.545,18.94,24.233,21.884,39.203h-38.372c-4.96,0-8.98,4.021-8.98,8.98s4.019,8.98,8.98,8.98h40.108
	c0.456,9.667,0.779,22.23,0.916,32.052H280.283l-60.465-31.237c0.006-0.271,0.006-0.545,0.013-0.814h163.16
	c4.96,0,8.98-4.021,8.98-8.98s-4.019-8.98-8.98-8.98H220.988c1.983-19.19,6.404-37.266,13.197-53.842
	c1.88-4.589-0.316-9.833-4.905-11.714c-4.587-1.88-9.833,0.316-11.714,4.904c-7.666,18.711-12.573,39.091-14.627,60.653H76.239
	c1.317-52.543-2.581-112.529-7.057-169.844c-0.387-4.942-4.678-8.636-9.653-8.253c-4.944,0.386-8.64,4.707-8.254,9.651
	c4.699,60.192,8.767,123.305,6.729,177.091c-0.686,18.4-1.985,34.474-3.971,49.141c-0.347,2.568,0.431,5.162,2.137,7.113
	c1.705,1.952,4.169,3.071,6.761,3.071H197.71c3.744,0,7.095-2.323,8.409-5.828l9.491-25.325l58.366,30.153
	c1.274,0.657,2.687,1.001,4.121,1.001h189.089c4.96,0,8.98-4.021,8.98-8.98C476.168,490.35,475.589,464.94,474.64,452.257z
	 M59.154,147.028h178.93c-0.202,5.901-0.313,11.745-0.33,17.493H60.427C60.022,159.097,59.585,153.149,59.154,147.028z
	 M57.94,129.069c-0.758-11.66-1.398-22.61-1.94-33.105h185.828c-1.238,11.227-2.198,22.304-2.869,33.105H57.94z M55.154,78.004
	c-0.251-5.927-0.468-11.772-0.649-17.504h192.063c-0.916,5.86-1.767,11.705-2.544,17.504H55.154z M254.323,17.959
	c-1.7,8.176-3.285,16.395-4.748,24.58H54.04c-0.165-8.441-0.248-16.662-0.245-24.581C53.795,17.959,254.323,17.959,254.323,17.959z
	 M191.489,494.041H73.081c1.1-9.972,1.923-20.589,2.493-32.052h126.284c-0.038,1.518-0.062,3.042-0.072,4.575L191.489,494.041z"/>
<g>
</g>
<g>
</g>
<g>
</g>
<g>
</g>
<g>
</g>
<g>
</g>
<g>
</g>
<g>
</g>
<g>
</g>
<g>
</g>
<g>
</g>
<g>
</g>
<g>
</g>
<g>
</g>
<g>
</g>
</svg>
