<?xml version="1.0" encoding="iso-8859-1"?>
<!-- Generator: Adobe Illustrator 19.0.0, SVG Export Plug-In . SVG Version: 6.00 Build 0)  -->
<svg version="1.1" id="Layer_1" xmlns="http://www.w3.org/2000/svg" xmlns:xlink="http://www.w3.org/1999/xlink" x="0px" y="0px"
	 viewBox="0 0 512.001 512.001" style="enable-background:new 0 0 512.001 512.001;" xml:space="preserve">
<polygon style="fill:#F95428;" points="401.026,155.19 109.791,155.19 255.409,503.45 255.409,503.45 "/>
<polygon style="fill:#E03F20;" points="189.731,155.19 255.414,503.447 109.791,155.19 "/>
<path style="fill:#F7B239;" d="M190.744,35.792c0,12.556,12.657,21.016,24.342,16.421c12.499-4.914,26.1-7.614,40.322-7.614
	c14.222,0,27.823,2.7,40.322,7.614c11.685,4.593,24.342-3.866,24.342-16.421l0,0c0-7.236-4.384-13.783-11.112-16.446
	c-16.589-6.566-34.656-10.18-53.553-10.18s-36.963,3.614-53.552,10.18C195.128,22.009,190.744,28.556,190.744,35.792L190.744,35.792
	z"/>
<path d="M408.993,149.973c-1.643-2.467-4.409-3.95-7.374-3.95h-8.746c-2.851-43.554-26.56-83.631-63.578-107.086
	c0.149-1.137,0.23-2.289,0.23-3.454c0-10.976-6.56-20.665-16.711-24.682c-8.877-3.514-18.128-6.209-27.493-8.014
	c-4.806-0.924-9.449,2.218-10.374,7.023c-0.926,4.804,2.218,9.449,7.022,10.374c8.288,1.597,16.471,3.982,24.327,7.09
	c3.298,1.305,5.514,4.604,5.514,8.209c0,2.956-1.396,5.602-3.828,7.259c-2.498,1.703-5.564,2.037-8.414,0.918
	c-13.89-5.458-28.548-8.227-43.565-8.227c-15.019,0-29.675,2.769-43.563,8.228c-2.849,1.12-5.915,0.784-8.414-0.918
	c-2.433-1.658-3.828-4.304-3.828-7.26c0-3.605,2.216-6.904,5.512-8.209c16.025-6.342,32.945-9.558,50.293-9.558
	c4.893,0,8.859-3.966,8.859-8.859S260.894,0,256.001,0c-19.59,0-38.705,3.634-56.814,10.802
	c-10.151,4.018-16.708,13.706-16.708,24.682c0,1.163,0.081,2.315,0.229,3.451c-37.02,23.455-60.731,63.533-63.582,107.089h-8.743
	c-2.965,0-5.732,1.482-7.374,3.95c-1.642,2.467-1.943,5.592-0.8,8.326l49.49,118.36c1.889,4.514,7.081,6.644,11.591,4.755
	c4.513-1.887,6.643-7.076,4.755-11.591L123.687,163.74H388.31L256.001,480.178l-74.493-178.159
	c-1.889-4.515-7.079-6.643-11.591-4.755c-4.513,1.887-6.643,7.076-4.755,11.59l82.667,197.706c1.378,3.297,4.602,5.441,8.173,5.441
	c3.572,0,6.795-2.145,8.173-5.441L409.792,158.3C410.934,155.565,410.634,152.44,408.993,149.973z M190.831,54.789
	c0.998,0.938,2.066,1.812,3.216,2.596c7.309,4.98,16.606,6.016,24.874,2.765c11.814-4.644,24.289-6.999,37.079-6.999
	c12.789,0,25.266,2.355,37.081,6.999c3.184,1.252,6.52,1.867,9.838,1.867c5.294,0,10.542-1.571,15.035-4.632
	c1.15-0.784,2.217-1.657,3.215-2.594c31.141,20.331,51.154,54.282,53.933,91.232H136.896
	C139.675,109.072,159.69,75.12,190.831,54.789z"/>
<g>
</g>
<g>
</g>
<g>
</g>
<g>
</g>
<g>
</g>
<g>
</g>
<g>
</g>
<g>
</g>
<g>
</g>
<g>
</g>
<g>
</g>
<g>
</g>
<g>
</g>
<g>
</g>
<g>
</g>
</svg>
