<?xml version="1.0" encoding="iso-8859-1"?>
<!-- Generator: Adobe Illustrator 19.0.0, SVG Export Plug-In . SVG Version: 6.00 Build 0)  -->
<svg version="1.1" id="Layer_1" xmlns="http://www.w3.org/2000/svg" xmlns:xlink="http://www.w3.org/1999/xlink" x="0px" y="0px"
	 viewBox="0 0 512.003 512.003" style="enable-background:new 0 0 512.003 512.003;" xml:space="preserve">
<path style="fill:#F95428;" d="M395.349,279.661c0,103.967-73.577,86.373-71.977,156.75c0.904,39.734,34.348,62.483,71.885,66.902
	c-8.996-10.396-48.682-62.167,12.888-103.691c1.976,40.021,35.189,46.386,35.189,75.176c0,12.124-2.555,20.266-5.51,25.643
	c30.977-8.099,57.228-29.688,61.492-65.63C510.511,340.441,395.349,279.661,395.349,279.661z"/>
<polygon style="fill:#CCCCCC;" points="157.356,55.937 310.784,209.366 126.527,356.008 10.714,240.193 "/>
<polygon style="fill:#B3B3B3;" points="39.535,269.015 195.537,94.12 157.356,55.937 10.714,240.193 "/>
<g>
	<path style="fill:#2BA5F7;" d="M433.952,196.156c-21.664-17.674-54.141-28.503-102.809-20.312c0,0,41.612,16.849,62.435,53.616
		c7.481,13.209,24.326,17.681,37.119,9.511l0.708-0.452C446.423,228.93,447.758,207.42,433.952,196.156z"/>
	<path style="fill:#2BA5F7;" d="M445.992,82.514c-27.957-0.398-60.136,11.283-93.195,47.927c0,0,43.078-12.637,82.233,3.249
		c14.067,5.707,30.047-1.248,35-15.597l0.274-0.794C476.121,100.457,463.809,82.767,445.992,82.514z"/>
</g>
<path d="M488.157,351.545c-2.645-4.208-8.203-5.474-12.409-2.829c-4.208,2.645-5.475,8.201-2.829,12.409
	c14.871,23.657,20.946,47.986,18.061,72.314c-3.477,29.319-22.718,44.482-38.756,52.119c0.474-3.491,0.712-7.184,0.712-11.071
	c0-16.721-8.775-27.106-17.261-37.148c-8.761-10.366-17.033-20.157-17.938-38.473c-0.161-3.245-2.057-6.15-4.962-7.604
	c-2.905-1.454-6.368-1.229-9.06,0.587c-21.99,14.83-34.506,32.624-37.199,52.888c-2.255,16.973,2.961,32.582,9.138,44.372
	c-22.196-7.935-42.036-24.749-42.682-53.214c-0.635-27.925,11.798-39.559,27.537-54.287c18.011-16.853,40.027-37.459,43.861-86.706
	c12.506,8.095,32.279,22.418,49.852,41.798c3.337,3.681,9.028,3.96,12.712,0.622c3.681-3.338,3.961-9.03,0.622-12.712
	c-30.333-33.452-65.903-52.426-67.402-53.217c-2.789-1.471-6.143-1.376-8.848,0.252c-2.701,1.628-4.352,4.553-4.352,7.707
	c0,52.863-19.695,71.293-38.742,89.116c-16.741,15.665-34.051,31.864-33.233,67.838c0.481,21.182,9.254,39.627,25.369,53.344
	c13.964,11.884,33.305,19.802,54.461,22.293c0.354,0.042,0.706,0.062,1.055,0.061c3.302,0,6.377-1.818,7.95-4.785
	c1.739-3.282,1.284-7.295-1.146-10.102c-5.075-5.864-21.388-26.8-18.305-50.006c1.499-11.287,7.518-21.794,17.935-31.357
	c4.175,14.918,12.559,24.837,19.631,33.206c7.553,8.939,13.01,15.395,13.01,25.53c0,8.707-1.52,16.075-4.397,21.308
	c-1.732,3.151-1.423,7.031,0.787,9.867c2.212,2.837,5.898,4.085,9.375,3.175c38.423-10.046,63.9-37.439,68.153-73.277
	C512.238,407.04,505.275,378.774,488.157,351.545z"/>
<path d="M319.729,226.396c2.303,0,4.607-0.878,6.365-2.636c3.515-3.515,3.515-9.213,0-12.727l-43.884-43.884
	c54.414-56.874,73.827-123.35,44.001-153.176c-29.826-29.824-96.301-10.414-153.177,44l-17.056-17.056
	c-3.515-3.515-9.213-3.515-12.727,0c-3.515,3.515-3.515,9.213,0,12.727l2.662,2.662L114.465,95.82
	c-3.096,3.889-2.452,9.55,1.438,12.646c3.89,3.096,9.55,2.452,12.646-1.438l30.174-37.913l97.908,97.908
	c-12.462,11.421-25.813,21.458-39.096,29.351c-4.273,2.539-5.677,8.061-3.138,12.334c1.682,2.831,4.675,4.403,7.745,4.403
	c1.564,0,3.149-0.408,4.59-1.265c14.761-8.773,29.052-19.563,42.625-32.099l28.539,28.539L127.813,343.65L23.361,239.198
	l85.822-107.837c3.096-3.889,2.452-9.55-1.438-12.646c-3.889-3.096-9.552-2.45-12.646,1.438L4.275,234.276
	c-2.85,3.581-2.558,8.731,0.678,11.968l115.815,115.814c1.747,1.747,4.051,2.636,6.366,2.636c1.974,0,3.954-0.647,5.601-1.958
	l177.968-141.638l2.663,2.663C315.122,225.518,317.425,226.396,319.729,226.396z M260.209,23.088
	c23.649-7.91,43.068-6.594,53.273,3.612c10.207,10.207,11.523,29.625,3.613,53.273c-8.195,24.497-25.006,50.738-47.614,74.445
	l-83.719-83.717C209.471,48.094,235.71,31.283,260.209,23.088z"/>
<path d="M440.243,188.87c-27.459-22.402-64.464-29.877-109.993-22.212c-3.966,0.667-7.002,3.888-7.445,7.885
	c-0.443,3.998,1.825,7.806,5.549,9.326c0.389,0.158,39.033,16.235,57.994,49.715c4.838,8.541,13.033,14.787,22.482,17.137
	c2.839,0.706,5.703,1.054,8.544,1.054c6.587,0,13.047-1.877,18.771-5.531l0.704-0.45c9.65-6.162,15.565-16.255,16.228-27.69
	C453.739,206.718,449.06,196.063,440.243,188.87z M435.108,217.059c-0.325,5.603-3.222,10.546-7.95,13.566l-0.704,0.45
	c-3.984,2.544-8.702,3.314-13.282,2.178c-4.748-1.18-8.712-4.213-11.162-8.539c-10.986-19.399-27.117-33.538-40.79-42.946
	c27.366-0.336,50.06,6.703,67.644,21.05C433.155,206.317,435.431,211.508,435.108,217.059z"/>
<polygon points="446.722,73.202 446.722,73.202 446.723,73.202 "/>
<path d="M355.92,138.768c0.403-0.118,40.673-11.517,76.329,2.949c4.334,1.759,8.942,2.635,13.539,2.635
	c5.049,0,10.084-1.058,14.725-3.167c8.841-4.017,15.457-11.286,18.626-20.469l0.275-0.794c3.735-10.822,2.104-22.406-4.478-31.781
	c-6.551-9.332-16.834-14.777-28.215-14.939c-35.468-0.521-69.08,16.619-100.004,50.899c-2.694,2.987-3.074,7.395-0.938,10.804
	C347.914,138.312,352.057,139.89,355.92,138.768z M445.225,91.191c0.413,0,0.828,0.002,1.24,0.008h0.001
	c5.537,0.079,10.544,2.735,13.738,7.285c3.225,4.593,4.025,10.267,2.195,15.567l-0.275,0.794c-1.541,4.466-4.758,8.001-9.057,9.955
	c-4.454,2.024-9.445,2.11-14.053,0.24c-16.401-6.654-33.282-8.697-47.831-8.697c-3.775,0-7.397,0.138-10.809,0.368
	C401.24,99.752,422.964,91.191,445.225,91.191z"/>
<g>
</g>
<g>
</g>
<g>
</g>
<g>
</g>
<g>
</g>
<g>
</g>
<g>
</g>
<g>
</g>
<g>
</g>
<g>
</g>
<g>
</g>
<g>
</g>
<g>
</g>
<g>
</g>
<g>
</g>
</svg>
