<?xml version="1.0" encoding="iso-8859-1"?>
<!-- Generator: Adobe Illustrator 19.0.0, SVG Export Plug-In . SVG Version: 6.00 Build 0)  -->
<svg version="1.1" id="Layer_1" xmlns="http://www.w3.org/2000/svg" xmlns:xlink="http://www.w3.org/1999/xlink" x="0px" y="0px"
	 viewBox="0 0 512 512" style="enable-background:new 0 0 512 512;" xml:space="preserve">
<g>
	<path style="fill:#666666;" d="M158.155,460.67c0.065-1,0.098-2.011,0.098-3.022c0-25.665-20.806-46.472-46.472-46.472
		c-25.676,0-46.483,20.806-46.483,46.472c0,1.011,0.033,2.022,0.098,3.022c1.554,24.263,21.719,43.461,46.385,43.461
		C136.436,504.131,156.601,484.933,158.155,460.67z"/>
	<path style="fill:#666666;" d="M442.703,460.67c0.065-1,0.098-2.011,0.098-3.022c0-25.665-20.806-46.472-46.472-46.472
		c-25.676,0-46.483,20.806-46.483,46.472c0,1.011,0.033,2.022,0.098,3.022c1.554,24.263,21.719,43.461,46.385,43.461
		C420.983,504.131,441.148,484.933,442.703,460.67z"/>
</g>
<path style="fill:#CCCCCC;" d="M66.571,333.006c3.37-3.816,5.87-8.381,7.251-13.403l5.99-21.73
	c9.131-33.199,39.319-56.19,73.735-56.19h129.142c36.732,0,69.332,23.502,80.942,58.342l11.849,35.514H64.092l-0.011-0.011
	C64.962,334.735,65.788,333.887,66.571,333.006z"/>
<path style="fill:#F7B239;" d="M442.801,457.648c0-25.665-20.806-46.472-46.472-46.472c-25.676,0-46.483,20.806-46.483,46.472
	c0,1.011,0.033,2.022,0.098,3.022H158.155c0.065-1,0.098-2.011,0.098-3.022c0-25.665-20.806-46.472-46.472-46.472
	c-25.676,0-46.483,20.806-46.483,46.472c0,1.011,0.033,2.022,0.098,3.022H33.296v-87.584c0-13.675,8.24-26.002,20.871-31.231
	c3.696-1.522,7.033-3.685,9.914-6.327l0.011,0.011h311.387l79.866,5.914c20.567,1.522,35.308,20.502,31.677,40.808l-13.99,78.409
	h-30.329C442.768,459.67,442.801,458.659,442.801,457.648z"/>
<path style="fill:#F95428;" d="M220.435,8.436c0,94.185-66.654,78.246-65.205,142.002c0.819,35.996,31.116,56.604,65.121,60.608
	c-8.15-9.418-44.102-56.318,11.675-93.935c1.79,36.255,31.878,42.021,31.878,68.103c0,10.984-2.314,18.359-4.992,23.23
	c28.062-7.337,51.844-26.895,55.706-59.455C324.762,63.499,220.435,8.436,220.435,8.436z"/>
<g>
	<path style="fill:#CCCCCC;" d="M111.778,476.718c-10.513,0-19.066-8.553-19.066-19.066s8.553-19.066,19.066-19.066
		s19.066,8.553,19.066,19.066C130.844,468.165,122.291,476.718,111.778,476.718z"/>
	<path style="fill:#CCCCCC;" d="M396.326,476.718c-10.514,0-19.066-8.553-19.066-19.066s8.553-19.066,19.066-19.066
		s19.065,8.553,19.065,19.066C415.39,468.165,406.839,476.718,396.326,476.718z"/>
</g>
<path d="M170.606,198.665c12.649,10.766,30.171,17.939,49.337,20.195c0.32,0.038,0.639,0.055,0.956,0.055
	c2.99,0,5.777-1.647,7.202-4.335c1.575-2.973,1.163-6.608-1.038-9.152c-4.597-5.312-19.376-24.279-16.583-45.302
	c1.359-10.225,6.81-19.743,16.248-28.406c3.782,13.514,11.376,22.5,17.784,30.082c6.842,8.097,11.786,13.948,11.786,23.128
	c0,7.888-1.377,14.562-3.983,19.303c-1.57,2.855-1.289,6.369,0.713,8.939c2.003,2.57,5.343,3.699,8.493,2.876
	c34.809-9.101,57.888-33.916,61.74-66.382c2.501-21.075-1.267-42.121-11.201-62.552c-1.969-4.049-6.846-5.735-10.897-3.768
	c-4.049,1.969-5.736,6.847-3.768,10.897c8.545,17.578,11.8,35.578,9.673,53.502c-3.151,26.56-20.58,40.298-35.11,47.215
	c0.429-3.162,0.645-6.508,0.645-10.029c0-15.148-7.95-24.556-15.637-33.653c-7.936-9.391-15.431-18.26-16.25-34.852
	c-0.145-2.938-1.862-5.571-4.494-6.889c-2.632-1.316-5.769-1.113-8.207,0.532c-19.921,13.435-31.259,29.555-33.699,47.911
	c-2.044,15.377,2.682,29.517,8.278,40.198c-20.107-7.188-38.081-22.421-38.668-48.208c-0.575-25.298,10.688-35.837,24.946-49.179
	c16.316-15.268,36.261-33.931,39.733-78.545c13.623,8.82,36.769,25.801,54.519,49.083c2.73,3.581,7.846,4.269,11.427,1.54
	c3.581-2.731,4.27-7.846,1.54-11.427c-28.84-37.825-69.586-59.59-71.307-60.498c-2.527-1.335-5.569-1.248-8.015,0.228
	c-2.447,1.475-3.943,4.124-3.943,6.982c0,47.889-17.842,64.585-35.097,80.731c-15.166,14.192-30.847,28.866-30.106,61.456
	C148.061,169.528,156.007,186.239,170.606,198.665z"/>
<path d="M112.323,484.589c15.009,0,27.22-12.211,27.22-27.22c0-15.009-12.211-27.219-27.22-27.219
	c-15.008,0-27.219,12.21-27.219,27.219C85.104,472.378,97.315,484.589,112.323,484.589z M112.323,446.456
	c6.018,0,10.914,4.895,10.914,10.913c0,6.018-4.896,10.914-10.914,10.914c-6.017,0-10.913-4.896-10.913-10.914
	C101.41,451.351,106.306,446.456,112.323,446.456z"/>
<path d="M396.871,430.15c-15.009,0-27.22,12.21-27.22,27.219c0,15.009,12.211,27.22,27.22,27.22
	c15.008,0,27.218-12.211,27.218-27.22C424.089,442.36,411.879,430.15,396.871,430.15z M396.871,468.283
	c-6.018,0-10.914-4.896-10.914-10.914c0-6.018,4.896-10.913,10.914-10.913c6.017,0,10.912,4.895,10.912,10.913
	C407.783,463.387,402.888,468.283,396.871,468.283z"/>
<path d="M459.949,409.561c3.874,0,7.312-2.774,8.017-6.721l4.23-23.691c0.791-4.433-2.16-8.668-6.593-9.46
	c-4.435-0.792-8.668,2.16-9.46,6.593l-4.23,23.691c-0.791,4.433,2.16,8.668,6.593,9.46
	C458.991,409.52,459.473,409.561,459.949,409.561z"/>
<path d="M492.211,426.148h-4.243l7.626-42.737c2.135-11.943-0.907-24.292-8.346-33.878c-7.441-9.588-18.651-15.6-30.755-16.496
	l-74.452-5.512l-10.13-30.361c-12.739-38.231-48.375-63.918-88.677-63.918H154.091c-19.46,0-38.481,6.783-53.555,19.101
	c-3.487,2.849-4.004,7.986-1.154,11.472c2.849,3.486,7.986,4.005,11.472,1.154c10.076-8.233,22.338-13.393,35.175-14.929v77.058
	H80.22c0.798-1.826,1.481-3.7,2.007-5.617l5.991-21.734c1.578-5.736,3.892-11.237,6.877-16.347c2.271-3.888,0.96-8.881-2.927-11.152
	c-3.887-2.272-8.88-0.96-11.152,2.927c-3.699,6.333-6.566,13.145-8.517,20.243l-5.992,21.736c-1.028,3.742-2.931,7.257-5.482,10.147
	c-0.635,0.714-1.243,1.331-1.907,1.93c-2.24,2.053-4.766,3.668-7.521,4.803c-15.738,6.514-25.907,21.729-25.907,38.764v53.346
	h-5.901c-4.503,0-8.153,3.65-8.153,8.153c0,4.503,3.65,8.153,8.153,8.153h5.901v17.932c0,4.503,3.65,8.153,8.153,8.153h25.002
	C64.032,493.444,86.196,512,112.327,512c26.124,0,48.285-18.556,53.472-43.461h120.641c4.503,0,8.153-3.65,8.153-8.153
	c0-4.503-3.65-8.153-8.153-8.153H166.703c-2.596-27.722-25.987-49.494-54.376-49.494c-18.522,0-34.911,9.271-44.796,23.409H41.994
	v-53.346c0-10.414,6.216-19.716,15.824-23.692c3.509-1.446,6.79-3.368,9.77-5.702h308.136l79.565,5.891
	c7.618,0.564,14.393,4.197,19.077,10.232c4.682,6.032,6.52,13.495,5.175,21.014l-8.137,45.603h-29.743
	c-9.884-14.136-26.269-23.409-44.788-23.409c-28.395,0-51.791,21.772-54.386,49.494h-27.241c-4.503,0-8.153,3.65-8.153,8.153
	c0,4.503,3.65,8.153,8.153,8.153h28.145C348.581,493.444,370.746,512,396.876,512c26.124,0,48.284-18.556,53.471-43.461h23.231
	c3.95,0,7.332-2.832,8.026-6.721l3.455-19.364h7.153c4.503,0,8.153-3.65,8.153-8.153
	C500.365,429.799,496.714,426.148,492.211,426.148z M112.327,419.047c21.129,0,38.319,17.19,38.319,38.319
	c0,0.829-0.027,1.669-0.08,2.495v0.005c-1.287,20.091-18.083,35.828-38.237,35.828c-20.161,0-36.961-15.738-38.249-35.839
	c-0.053-0.822-0.08-1.66-0.08-2.49C73.997,436.236,91.192,419.047,112.327,419.047z M59.778,442.454
	c-0.897,3.155-1.523,6.421-1.837,9.779H41.994v-9.779H59.778z M162.335,249.552h82.872v43.156c0,4.503,3.65,8.153,8.153,8.153
	c4.503,0,8.153-3.65,8.153-8.153v-43.156h21.72c33.27,0,62.691,21.205,73.209,52.77l8.268,24.78H261.512v-8.849
	c0-4.503-3.65-8.153-8.153-8.153c-4.503,0-8.153,3.65-8.153,8.153v8.849h-82.872V249.552z M435.113,459.856l-0.001,0.01
	c-1.287,20.091-18.083,35.828-38.237,35.828c-20.161,0-36.961-15.738-38.249-35.839c-0.053-0.816-0.08-1.655-0.08-2.49
	c0-21.129,17.194-38.319,38.33-38.319c21.129,0,38.319,17.19,38.319,38.319C435.193,458.201,435.166,459.039,435.113,459.856z
	 M466.751,452.235h-15.499c-0.314-3.358-0.94-6.625-1.837-9.779h19.081L466.751,452.235z"/>
<g>
</g>
<g>
</g>
<g>
</g>
<g>
</g>
<g>
</g>
<g>
</g>
<g>
</g>
<g>
</g>
<g>
</g>
<g>
</g>
<g>
</g>
<g>
</g>
<g>
</g>
<g>
</g>
<g>
</g>
</svg>
