<?xml version="1.0" encoding="iso-8859-1"?>
<!-- Generator: Adobe Illustrator 19.0.0, SVG Export Plug-In . SVG Version: 6.00 Build 0)  -->
<svg version="1.1" id="Layer_1" xmlns="http://www.w3.org/2000/svg" xmlns:xlink="http://www.w3.org/1999/xlink" x="0px" y="0px"
	 viewBox="0 0 512 512" style="enable-background:new 0 0 512 512;" xml:space="preserve">
<polygon style="fill:#F95428;" points="440.021,448.992 70.753,448.992 195.086,9.483 315.689,9.483 "/>
<polygon style="fill:#E03F20;" points="195.086,9.483 70.753,448.992 172.166,448.992 228.207,9.483 "/>
<rect x="13.738" y="448.991" style="fill:#FFFFFF;" width="483.3" height="54.164"/>
<rect x="13.738" y="448.991" style="fill:#E6E6E6;" width="91.369" height="54.164"/>
<g>
	<polygon style="fill:#FFFFFF;" points="411.152,346.917 99.63,346.917 100.987,342.139 106.155,323.848 118.496,280.266 
		392.286,280.266 	"/>
	<polygon style="fill:#FFFFFF;" points="361.642,171.924 149.127,171.924 167.992,105.262 342.777,105.262 	"/>
</g>
<g>
	<polygon style="fill:#E6E6E6;" points="193.688,280.266 185.184,346.917 99.63,346.917 100.987,342.139 106.155,323.848 
		118.496,280.266 	"/>
	<polygon style="fill:#E6E6E6;" points="215.999,105.262 207.495,171.924 149.127,171.924 167.992,105.262 	"/>
</g>
<path d="M497.648,439.509h-50.083L325.119,6.669C324.004,2.723,320.402,0,316.301,0H195.698c-4.101,0-7.701,2.723-8.818,6.669
	L64.435,439.509H14.352c-5.061,0-9.164,4.103-9.164,9.164v54.163c0,5.061,4.103,9.164,9.164,9.164h410.401
	c5.061,0,9.164-4.103,9.164-9.164c0-5.061-4.103-9.164-9.164-9.164H23.516v-35.835h464.969v35.835h-34.41
	c-5.061,0-9.164,4.103-9.164,9.164c0,5.061,4.103,9.164,9.164,9.164h43.573c5.061,0,9.164-4.103,9.164-9.164v-54.163
	C506.812,443.612,502.709,439.509,497.648,439.509z M156.676,180.775h198.649l25.461,90.003h-249.57L156.676,180.775z
	 M202.631,18.328h106.74l21.911,77.455h-84.299c-5.061,0-9.164,4.103-9.164,9.164c0,5.061,4.103,9.164,9.164,9.164h89.483
	l13.674,48.337H161.86l13.674-48.337h41.078c5.061,0,9.164-4.103,9.164-9.164c0-5.061-4.103-9.164-9.164-9.164h-35.893
	L202.631,18.328z M83.481,439.509l23.693-83.752h191.123c5.061,0,9.164-4.103,9.164-9.164c0-5.061-4.103-9.164-9.164-9.164H112.359
	l13.67-48.324h259.941l13.67,48.324h-64.689c-5.061,0-9.164,4.103-9.164,9.164c0,5.061,4.103,9.164,9.164,9.164h69.874
	l23.693,83.752H83.481z"/>
<g>
</g>
<g>
</g>
<g>
</g>
<g>
</g>
<g>
</g>
<g>
</g>
<g>
</g>
<g>
</g>
<g>
</g>
<g>
</g>
<g>
</g>
<g>
</g>
<g>
</g>
<g>
</g>
<g>
</g>
</svg>
