<?xml version="1.0" encoding="iso-8859-1"?>
<!-- Generator: Adobe Illustrator 19.0.0, SVG Export Plug-In . SVG Version: 6.00 Build 0)  -->
<svg version="1.1" id="Layer_1" xmlns="http://www.w3.org/2000/svg" xmlns:xlink="http://www.w3.org/1999/xlink" x="0px" y="0px"
	 viewBox="0 0 512 512" style="enable-background:new 0 0 512 512;" xml:space="preserve">
<rect x="84.706" y="9.124" style="fill:#F95428;" width="341.423" height="494.365"/>
<polyline style="fill:#E03F20;" points="283.875,256.611 386.469,256.611 386.469,455.333 124.352,455.333 124.352,256.611 
	226.946,256.611 "/>
<polyline style="fill:#666666;" points="287.328,382.184 324.292,382.184 324.292,329.761 287.328,329.761 223.493,329.761 
	186.528,329.761 186.528,382.184 223.493,382.184 "/>
<polygon style="fill:#E6E6E6;" points="372.344,160.748 372.344,224.586 287.333,224.586 223.482,224.586 138.47,224.586 
	138.47,160.748 "/>
<rect x="223.481" y="224.586" style="fill:#999999;" width="63.85" height="195.395"/>
<path d="M426.709,112.678c4.871,0,8.817-3.948,8.817-8.817V8.817c0-4.87-3.947-8.817-8.817-8.817H85.291
	c-4.87,0-8.817,3.948-8.817,8.817v494.365c0,4.87,3.948,8.817,8.817,8.817h341.419c4.871,0,8.817-3.948,8.817-8.817V139.129
	c0-4.87-3.947-8.817-8.817-8.817s-8.817,3.948-8.817,8.817v355.236H94.108V17.635h323.784v86.225
	C417.892,108.73,421.84,112.678,426.709,112.678z"/>
<path d="M124.941,401.875c-4.87,0-8.817,3.948-8.817,8.817v44.334c0,4.87,3.948,8.817,8.817,8.817h262.118
	c4.871,0,8.817-3.948,8.817-8.817V256.305c0-4.87-3.947-8.817-8.817-8.817h-90.318v-14.39h76.195c4.871,0,8.817-3.948,8.817-8.817
	v-63.838c0-4.87-3.947-8.817-8.817-8.817H209.085c-4.87,0-8.817,3.948-8.817,8.817s3.948,8.817,8.817,8.817h155.032v46.203H147.878
	v-46.203h24.176c4.87,0,8.817-3.948,8.817-8.817s-3.948-8.817-8.817-8.817h-32.994c-4.87,0-8.817,3.948-8.817,8.817v63.838
	c0,4.87,3.948,8.817,8.817,8.817h76.195v14.39h-90.314c-4.87,0-8.817,3.948-8.817,8.817v120.883c0,4.87,3.948,8.817,8.817,8.817
	s8.817-3.948,8.817-8.817V265.122h81.497v55.514h-28.137c-4.87,0-8.817,3.948-8.817,8.817v52.424c0,4.87,3.948,8.817,8.817,8.817
	h28.137v28.98c0,4.87,3.948,8.817,8.817,8.817h63.851c4.871,0,8.817-3.948,8.817-8.817v-81.403h19.324v34.789h-3.526
	c-4.871,0-8.817,3.948-8.817,8.817c0,4.87,3.947,8.817,8.817,8.817h12.343c4.871,0,8.817-3.948,8.817-8.817v-52.424
	c0-4.87-3.947-8.817-8.817-8.817h-28.142v-55.513h81.5V446.21H133.758v-35.517C133.758,405.823,129.811,401.875,124.941,401.875z
	 M195.936,373.059V338.27h19.32v34.789H195.936z M232.89,410.857v-177.76h46.216v177.76H232.89z"/>
<path d="M179.193,49.942c4.87,0,8.817-3.948,8.817-8.817s-3.948-8.817-8.817-8.817h-36.575c-4.87,0-8.817,3.948-8.817,8.817v85.34
	c0,4.87,3.948,8.817,8.817,8.817s8.817-3.948,8.817-8.817V93.222h20.442c4.87,0,8.817-3.948,8.817-8.817s-3.948-8.817-8.817-8.817
	h-20.441V49.942H179.193z"/>
<path d="M222.147,126.466V41.125c0-4.87-3.948-8.817-8.817-8.817s-8.817,3.948-8.817,8.817v85.34c0,4.87,3.948,8.817,8.817,8.817
	S222.147,131.335,222.147,126.466z"/>
<path d="M369.381,49.942c4.871,0,8.817-3.948,8.817-8.817s-3.947-8.817-8.817-8.817h-36.575c-4.871,0-8.817,3.948-8.817,8.817v85.34
	c0,4.87,3.947,8.817,8.817,8.817h36.575c4.871,0,8.817-3.948,8.817-8.817s-3.947-8.817-8.817-8.817h-27.757V93.222h20.442
	c4.871,0,8.817-3.948,8.817-8.817s-3.947-8.817-8.817-8.817h-20.442V49.942H369.381z"/>
<path d="M307.486,64.289c0-17.635-14.347-31.981-31.982-31.981h-21.335c-4.87,0-8.817,3.948-8.817,8.817v85.34
	c0,4.87,3.948,8.817,8.817,8.817s8.817-3.948,8.817-8.817V96.27h7.63l21.794,34.869c1.673,2.676,4.546,4.145,7.485,4.145
	c1.597,0,3.212-0.433,4.666-1.341c4.129-2.581,5.385-8.022,2.804-12.15l-17.946-28.713
	C300.103,87.895,307.486,76.939,307.486,64.289z M275.504,78.635h-12.517V49.942h12.517c7.911,0,14.347,6.436,14.347,14.347
	S283.414,78.635,275.504,78.635z"/>
<g>
</g>
<g>
</g>
<g>
</g>
<g>
</g>
<g>
</g>
<g>
</g>
<g>
</g>
<g>
</g>
<g>
</g>
<g>
</g>
<g>
</g>
<g>
</g>
<g>
</g>
<g>
</g>
<g>
</g>
</svg>
