<?xml version="1.0" encoding="iso-8859-1"?>
<!-- Generator: Adobe Illustrator 19.0.0, SVG Export Plug-In . SVG Version: 6.00 Build 0)  -->
<svg version="1.1" id="Layer_1" xmlns="http://www.w3.org/2000/svg" xmlns:xlink="http://www.w3.org/1999/xlink" x="0px" y="0px"
	 viewBox="0 0 512 512" style="enable-background:new 0 0 512 512;" xml:space="preserve">
<g>
	<polygon style="fill:#F95428;" points="351.214,52.626 258.008,59.93 258.008,102.539 351.214,109.843 	"/>
	<rect x="128.487" y="51.938" style="fill:#F95428;" width="129.516" height="58.586"/>
	<path style="fill:#F95428;" d="M163.839,401.894h126.562V158.887H47.723c-13.903,0-25.174,11.271-25.174,25.174v217.833h23.793"/>
</g>
<path style="fill:#E03F20;" d="M86.33,158.887H47.723c-13.903,0-25.174,11.271-25.174,25.174v217.833h23.793h14.815V184.06
	C61.157,170.158,72.428,158.887,86.33,158.887z"/>
<path style="fill:#F95428;" d="M459.836,401.894h25.796V178.404c0-10.777-8.729-19.518-19.506-19.518H290.401v243.007h51.939"/>
<g>
	<circle style="fill:#666666;" cx="105.097" cy="401.888" r="58.754"/>
	<circle style="fill:#666666;" cx="401.083" cy="401.888" r="58.754"/>
</g>
<g>
	<circle style="fill:#FFFFFF;" cx="401.083" cy="401.888" r="26.235"/>
	<circle style="fill:#FFFFFF;" cx="105.097" cy="401.888" r="26.235"/>
</g>
<polyline style="fill:#E03F20;" points="316.531,401.894 320.509,401.894 320.509,158.887 290.401,158.887 290.401,401.894 
	298.41,401.894 "/>
<rect x="398.409" y="193.932" style="fill:#E6E6E6;" width="87.23" height="76.873"/>
<polygon style="fill:#F2F2F2;" points="485.636,193.925 485.636,270.798 422.304,270.798 481.338,193.925 "/>
<rect x="317.272" y="193.932" style="fill:#E6E6E6;" width="52.039" height="76.873"/>
<rect x="398.588" y="126.93" style="fill:#2BA5F7;" width="42.343" height="31.957"/>
<rect x="61.523" y="193.932" style="fill:#E6E6E6;" width="189.233" height="76.873"/>
<g>
	<polygon style="fill:#F2F2F2;" points="251.037,193.925 251.037,270.798 187.705,270.798 246.739,193.925 	"/>
	<polygon style="fill:#F2F2F2;" points="187.251,193.925 187.251,270.798 123.92,270.798 182.954,193.925 	"/>
	<polygon style="fill:#F2F2F2;" points="125.142,193.925 125.142,270.798 61.81,270.798 120.844,193.925 	"/>
</g>
<rect x="152.727" y="110.524" style="fill:#666666;" width="79.458" height="48.357"/>
<path style="fill:#2BA5F7;" d="M483.433,64.88c-24.451-9.06-56.378-8.818-96.856,13.095c0,0,41.805,2.314,71.275,28.478
	c10.587,9.4,26.802,8.265,35.627-2.806l0.488-0.612C504.327,90.04,499.016,70.655,483.433,64.88z"/>
<path d="M105.653,334.454c-34.181,0-62.458,25.679-66.601,58.754h-7.548v-209.44c0-9.253,7.528-16.78,16.78-16.78h17.02
	c4.635,0,8.393-3.758,8.393-8.393c0-4.635-3.758-8.393-8.393-8.393H48.285c-18.509,0-33.567,15.058-33.567,33.567v209.44H8.393
	c-4.635,0-8.393,3.758-8.393,8.393s3.758,8.393,8.393,8.393h30.658c4.147,33.072,32.422,58.747,66.601,58.747
	c37.024,0,67.144-30.121,67.144-67.145C172.798,364.574,142.676,334.454,105.653,334.454z M105.653,451.956
	c-27.761,0-50.348-22.582-50.357-50.34c0-0.004,0.001-0.009,0.001-0.013c0-0.006-0.001-0.01-0.001-0.016
	c0.007-27.762,22.594-50.345,50.357-50.345c27.768,0,50.357,22.591,50.357,50.357S133.42,451.956,105.653,451.956z"/>
<path d="M401.646,366.969c-19.095,0-34.628,15.535-34.628,34.628s15.535,34.628,34.628,34.628s34.628-15.535,34.628-34.628
	S420.741,366.969,401.646,366.969z M401.646,419.439c-9.838,0-17.841-8.004-17.841-17.841s8.003-17.841,17.841-17.841
	s17.841,8.004,17.841,17.841S411.485,419.439,401.646,419.439z"/>
<path d="M105.653,366.969c-19.095,0-34.628,15.535-34.628,34.628s15.535,34.628,34.628,34.628s34.628-15.535,34.628-34.628
	S124.747,366.969,105.653,366.969z M105.653,419.439c-9.838,0-17.841-8.004-17.841-17.841s8.004-17.841,17.841-17.841
	s17.841,8.004,17.841,17.841S115.49,419.439,105.653,419.439z"/>
<path d="M503.607,393.208h-9.021V178.112c0-15.39-12.516-27.911-27.9-27.911h-16.797v-23.564c0-4.635-3.757-8.393-8.393-8.393
	h-42.343c-4.637,0-8.393,3.758-8.393,8.393v23.564H241.145v-31.573h17.425c4.268,0,7.785-3.188,8.316-7.311l84.234,6.602
	c0.218,0.017,0.439,0.026,0.656,0.026c2.105,0,4.142-0.791,5.699-2.232c1.718-1.588,2.695-3.823,2.695-6.162V52.334
	c0-2.34-0.977-4.574-2.695-6.162c-1.717-1.588-4.022-2.389-6.354-2.206l-84.234,6.602c-0.532-4.123-4.048-7.311-8.316-7.311h-38.835
	c-4.635,0-8.393,3.758-8.393,8.393s3.758,8.393,8.393,8.393h30.441v41.799h-112.73V60.043h55.431c4.635,0,8.393-3.758,8.393-8.393
	s-3.758-8.393-8.393-8.393h-63.825c-4.635,0-8.393,3.758-8.393,8.393v58.586c0,4.635,3.758,8.393,8.393,8.393H144.9v31.573H94.167
	c-4.635,0-8.393,3.758-8.393,8.393c0,4.635,3.758,8.393,8.393,8.393h188.403v165.054c0,4.635,3.757,8.393,8.393,8.393
	s8.393-3.758,8.393-8.393V166.988h99.797h42.342h25.192c6.128,0,11.113,4.99,11.113,11.124v7.133h-78.831
	c-4.637,0-8.393,3.758-8.393,8.393v76.869c0,4.635,3.757,8.393,8.393,8.393h78.83v114.307h-9.552
	c-4.144-33.076-32.421-58.754-66.601-58.754s-62.457,25.679-66.601,58.754h-35.689v-30.951c0-4.635-3.757-8.393-8.393-8.393
	s-8.393,3.758-8.393,8.393v30.951h-93.049c-4.635,0-8.393,3.758-8.393,8.393c0,4.635,3.758,8.393,8.393,8.393h101.442h44.083
	c4.147,33.072,32.423,58.747,66.6,58.747s62.453-25.675,66.6-58.747h17.946h17.415c4.637,0,8.393-3.758,8.393-8.393
	C512,396.967,508.243,393.208,503.607,393.208z M343.382,100.474l-76.419-5.988V67.399l76.419-5.988V100.474z M161.687,150.201
	v-31.573h62.671v31.573H161.687z M407.546,150.201V135.03h25.555v15.171H407.546z M407.362,262.114v-60.083h70.437v60.083H407.362z
	 M401.646,451.956c-27.746,0-50.323-22.558-50.356-50.298c0-0.019,0.003-0.037,0.003-0.056c0-0.02-0.003-0.039-0.003-0.059
	c0.03-27.742,22.607-50.302,50.356-50.302c27.768,0,50.357,22.591,50.357,50.357S429.414,451.956,401.646,451.956z"/>
<path d="M369.88,278.901c4.637,0,8.393-3.758,8.393-8.393v-76.869c0-4.635-3.757-8.393-8.393-8.393h-52.044
	c-4.637,0-8.393,3.758-8.393,8.393v76.869c0,4.635,3.757,8.393,8.393,8.393H369.88z M326.23,202.032h35.257v60.083H326.23V202.032z"
	/>
<path d="M468.915,323.106v-19.025c0-4.635-3.757-8.393-8.393-8.393s-8.393,3.758-8.393,8.393v19.025
	c0,4.635,3.757,8.393,8.393,8.393S468.915,327.742,468.915,323.106z"/>
<path d="M53.691,193.639v76.869c0,4.635,3.758,8.393,8.393,8.393h189.233c4.635,0,8.393-3.758,8.393-8.393v-76.869
	c0-4.635-3.758-8.393-8.393-8.393H62.085C57.448,185.246,53.691,189.004,53.691,193.639z M133.464,262.114v-60.083h46.474v60.083
	H133.464z M242.924,262.114h-46.199v-60.083h46.199L242.924,262.114L242.924,262.114z M70.478,202.032h46.2v60.083h-46.2V202.032z"
	/>
<path d="M386.675,86.064c0.388,0.021,39.195,2.428,66.166,26.373c6.141,5.452,14.108,8.459,22.215,8.459
	c0.931,0,1.864-0.04,2.797-0.12c9.023-0.777,17.104-5.105,22.751-12.188l0.49-0.613c6.655-8.349,8.831-19.04,5.966-29.331
	c-2.852-10.246-10.195-18.237-20.148-21.925c-30.993-11.487-65.904-6.913-103.769,13.584c-3.303,1.788-5.016,5.552-4.194,9.217
	C379.769,83.184,382.926,85.856,386.675,86.064z M481.077,72.459L481.077,72.459c4.844,1.795,8.418,5.689,9.81,10.684
	c1.403,5.043,0.339,10.279-2.919,14.365l-0.49,0.613c-2.747,3.446-6.678,5.551-11.066,5.929c-4.549,0.394-8.96-1.09-12.427-4.168
	c-15.548-13.803-34.048-21.416-48.954-25.593C439.092,65.731,461.23,65.103,481.077,72.459z"/>
<g>
</g>
<g>
</g>
<g>
</g>
<g>
</g>
<g>
</g>
<g>
</g>
<g>
</g>
<g>
</g>
<g>
</g>
<g>
</g>
<g>
</g>
<g>
</g>
<g>
</g>
<g>
</g>
<g>
</g>
</svg>
