<?xml version="1.0" encoding="iso-8859-1"?>
<!-- Generator: Adobe Illustrator 19.0.0, SVG Export Plug-In . SVG Version: 6.00 Build 0)  -->
<svg version="1.1" id="Layer_1" xmlns="http://www.w3.org/2000/svg" xmlns:xlink="http://www.w3.org/1999/xlink" x="0px" y="0px"
	 viewBox="0 0 512 512" style="enable-background:new 0 0 512 512;" xml:space="preserve">
<rect x="191.808" y="46.582" style="fill:#808080;" width="124.926" height="232.004"/>
<polyline style="fill:#999999;" points="80.951,76.082 8.095,263.971 80.951,393.107 "/>
<g>
	<polyline style="fill:#CCCCCC;" points="429.889,76.082 502.744,263.971 429.889,393.107 	"/>
	<polygon style="fill:#CCCCCC;" points="346.489,76.082 346.489,28.15 284.178,28.15 251.585,191.116 218.992,28.15 164.351,28.15 
		164.351,76.082 80.951,76.082 80.951,484.454 429.889,484.454 429.889,76.082 	"/>
</g>
<g>
	<rect x="80.951" y="76.082" style="fill:#999999;" width="24.099" height="408.369"/>
	<path style="fill:#999999;" d="M188.333,28.15h-23.982v47.931h14.617c5.173,0,9.366-4.193,9.366-9.366V28.15H188.333z"/>
</g>
<g>
	<polygon style="fill:#F7B239;" points="485.218,218.777 485.218,218.789 429.892,314.623 429.892,248.806 469.961,179.414 	"/>
	<polygon style="fill:#F7B239;" points="25.617,218.789 80.955,314.646 80.955,248.806 40.886,179.414 	"/>
	<rect x="80.951" y="413.991" style="fill:#F7B239;" width="348.937" height="32.913"/>
	<rect x="80.951" y="333.507" style="fill:#F7B239;" width="348.937" height="32.913"/>
</g>
<circle style="fill:#F95428;" cx="347.445" cy="214.121" r="38.345"/>
<path d="M511.413,260.533l-72.855-187.89l-0.006,0.002c-1.257-3.24-4.398-5.542-8.082-5.542h-74.725V27.849
	c0-4.791-3.884-8.675-8.675-8.675h-62.31c-4.136,0-7.697,2.921-8.508,6.977c-0.015,0.074-0.87,4.35-2.291,11.458h-43.588
	l-2.293-11.461c-0.811-4.055-4.371-6.974-8.507-6.974h-54.641c-4.791,0-8.675,3.884-8.675,8.675v39.256H81.531
	c-3.684,0-6.825,2.301-8.082,5.542l-0.007-0.005L0.587,260.533c-0.939,2.422-0.744,5.137,0.532,7.398l71.735,127.152v89.069
	c0,4.791,3.884,8.675,8.675,8.675h348.939c4.791,0,8.675-3.884,8.675-8.675v-89.069l71.735-127.152
	C512.157,265.67,512.352,262.955,511.413,260.533z M384.4,422.364h37.395v15.563H90.206v-15.563h264.696
	c4.791,0,8.675-3.884,8.675-8.675c0-4.791-3.884-8.675-8.675-8.675H90.206v-30.217h331.588v30.217H384.4
	c-4.791,0-8.675,3.884-8.675,8.675C375.725,418.479,379.609,422.364,384.4,422.364z M72.856,216.122l-21.8-37.753l21.8-56.22
	V216.122z M72.856,250.821v31.135l-37.068-64.211l7.219-18.617L72.856,250.821z M439.146,122.149l21.803,56.228l-21.803,37.758
	V122.149z M439.146,250.833l29.852-51.697l7.214,18.606l-37.066,64.205V250.833z M164.932,84.455c4.791,0,8.675-3.884,8.675-8.675
	V36.524h38.854l9.951,49.759c0.94,4.699,5.513,7.745,10.208,6.806c4.699-0.94,7.745-5.511,6.806-10.208l-5.585-27.921h36.647
	c-5.081,25.407-12.554,62.77-18.324,91.619l-7.757-38.784c-0.94-4.699-5.509-7.744-10.208-6.806
	c-4.699,0.94-7.745,5.511-6.806,10.208l16.264,81.32c0.811,4.055,4.371,6.974,8.507,6.974s7.696-2.918,8.507-6.974
	c20.77-103.849,28.372-141.859,31.155-155.992h46.566v39.256c0,4.791,3.884,8.675,8.675,8.675h74.725v240.078H170.407
	c-4.791,0-8.675,3.884-8.675,8.675s3.884,8.675,8.675,8.675h251.388v15.563H90.206v-15.563h51.282c4.791,0,8.675-3.884,8.675-8.675
	s-3.884-8.675-8.675-8.675H90.206V84.455H164.932z M27.738,238.506l45.118,78.155v43.111L18.248,262.98L27.738,238.506z
	 M90.206,475.477v-20.2h331.588v20.2H90.206z M439.146,359.772v-43.121l45.116-78.149l9.492,24.479L439.146,359.772z"/>
<path d="M348.028,260.841c25.928,0,47.021-21.093,47.021-47.02c0-13.467-5.789-26.309-15.883-35.234
	c-3.59-3.174-9.072-2.837-12.246,0.752c-3.174,3.589-2.837,9.072,0.752,12.246c6.371,5.634,10.025,13.738,10.025,22.236
	c0,16.36-13.309,29.669-29.67,29.669c-16.36,0-29.669-13.309-29.669-29.669c0-16.361,13.309-29.67,29.669-29.67
	c4.791,0,8.675-3.884,8.675-8.675s-3.884-8.675-8.675-8.675c-25.927,0-47.02,21.093-47.02,47.021
	C301.007,239.749,322.101,260.841,348.028,260.841z"/>
<g>
</g>
<g>
</g>
<g>
</g>
<g>
</g>
<g>
</g>
<g>
</g>
<g>
</g>
<g>
</g>
<g>
</g>
<g>
</g>
<g>
</g>
<g>
</g>
<g>
</g>
<g>
</g>
<g>
</g>
</svg>
