<?xml version="1.0" encoding="iso-8859-1"?>
<!-- Generator: Adobe Illustrator 19.0.0, SVG Export Plug-In . SVG Version: 6.00 Build 0)  -->
<svg version="1.1" id="Layer_1" xmlns="http://www.w3.org/2000/svg" xmlns:xlink="http://www.w3.org/1999/xlink" x="0px" y="0px"
	 viewBox="0 0 511.999 511.999" style="enable-background:new 0 0 511.999 511.999;" xml:space="preserve">
<polyline style="fill:#F95428;" points="172.735,402.222 296.063,402.222 296.063,299.56 35.056,299.56 35.056,402.222 
	58.241,402.222 "/>
<polyline style="fill:#E03F20;" points="52.703,402.222 68.51,402.222 68.51,299.56 35.056,299.56 35.056,402.222 38.028,402.222 
	"/>
<path style="fill:#F95428;" d="M461.169,402.222h25.137V184.443c0-10.502-8.506-19.019-19.008-19.019H296.063v236.797h50.611"/>
<g>
	<circle style="fill:#666666;" cx="115.487" cy="402.219" r="57.253"/>
	<circle style="fill:#666666;" cx="403.921" cy="402.219" r="57.253"/>
</g>
<g>
	<circle style="fill:#FFFFFF;" cx="403.921" cy="402.219" r="25.564"/>
	<circle style="fill:#FFFFFF;" cx="115.487" cy="402.219" r="25.564"/>
</g>
<polyline style="fill:#E03F20;" points="321.526,402.222 325.402,402.222 325.402,165.424 296.063,165.424 296.063,402.222 
	303.868,402.222 "/>
<rect x="401.315" y="199.577" style="fill:#E6E6E6;" width="85.001" height="74.908"/>
<polygon style="fill:#F2F2F2;" points="486.309,199.567 486.309,274.475 424.596,274.475 482.122,199.567 "/>
<rect x="322.251" y="199.577" style="fill:#E6E6E6;" width="50.71" height="74.908"/>
<rect x="401.489" y="134.287" style="fill:#2BA5F7;" width="41.261" height="31.14"/>
<polygon style="fill:#F95428;" points="197.385,159.972 262.816,159.972 262.816,299.56 167.94,299.56 167.94,238.49 "/>
<polygon style="fill:#E6E6E6;" points="262.817,159.967 262.817,238.486 167.941,238.486 197.386,159.967 "/>
<polygon style="fill:#F2F2F2;" points="262.817,163.577 262.817,238.486 201.104,238.486 258.63,163.577 "/>
<rect x="216.47" y="53.1" style="fill:#F95428;" width="104.691" height="62.16"/>
<rect x="216.47" y="53.1" style="fill:#E03F20;" width="25.427" height="62.16"/>
<circle style="fill:#F95428;" cx="31.079" cy="140.339" r="23.446"/>
<path d="M116.036,336.504c-33.307,0-60.861,25.023-64.9,57.254h-7.355v-86.304h25.275c4.518,0,8.179-3.662,8.179-8.179
	s-3.661-8.179-8.179-8.179H35.602c-4.518,0-8.179,3.662-8.179,8.179v94.483h-6.161c-4.518,0-8.179,3.662-8.179,8.179
	s3.661,8.179,8.179,8.179h29.875c4.042,32.227,31.595,57.246,64.898,57.246c36.078,0,65.43-29.352,65.43-65.428
	C181.465,365.855,152.113,336.504,116.036,336.504z M116.036,451.003c-27.052,0-49.061-22.004-49.071-49.054
	c0-0.004,0.001-0.009,0.001-0.013c0-0.005-0.001-0.01-0.001-0.015c0.007-27.053,22.017-49.06,49.071-49.06
	c27.058,0,49.072,22.013,49.072,49.072S143.094,451.003,116.036,451.003z"/>
<path d="M404.466,368.19c-18.607,0-33.743,15.138-33.743,33.743c0,18.605,15.138,33.743,33.743,33.743
	c18.605,0,33.743-15.138,33.743-33.743C438.209,383.327,423.072,368.19,404.466,368.19z M404.466,419.319
	c-9.587,0-17.385-7.799-17.385-17.385s7.798-17.385,17.385-17.385s17.385,7.799,17.385,17.385S414.053,419.319,404.466,419.319z"/>
<path d="M116.036,368.19c-18.607,0-33.743,15.138-33.743,33.743c0,18.605,15.138,33.743,33.743,33.743s33.743-15.138,33.743-33.743
	C149.779,383.327,134.642,368.19,116.036,368.19z M116.036,419.319c-9.587,0-17.385-7.799-17.385-17.385s7.798-17.385,17.385-17.385
	s17.385,7.799,17.385,17.385S125.622,419.319,116.036,419.319z"/>
<path d="M503.821,393.758h-8.79v-209.6c0-14.997-12.196-27.198-27.188-27.198h-16.369V134c0-4.517-3.661-8.179-8.179-8.179h-41.261
	c-4.518,0-8.179,3.662-8.179,8.179v22.961h-97.247c-4.518,0-8.179,3.662-8.179,8.179v125.956h-16.887V159.683
	c0-4.517-3.661-8.179-8.179-8.179h-65.432c-3.409,0-6.461,2.115-7.658,5.308l-25.719,68.584l-103.66-73.381
	c1.514-3.691,2.354-7.727,2.354-11.958c0-1.047-0.055-2.082-0.154-3.104l145.74-54.871v32.893c0,4.517,3.661,8.179,8.179,8.179
	h104.691c4.518,0,8.179-3.662,8.179-8.179v-62.16c0-4.517-3.661-8.179-8.179-8.179H306.78c-4.518,0-8.179,3.662-8.179,8.179
	s3.661,8.179,8.179,8.179h6.747v45.802h-88.333V60.994h55.959c4.518,0,8.179-3.662,8.179-8.179s-3.661-8.179-8.179-8.179h-64.138
	c-4.518,0-8.179,3.662-8.179,8.179v11.789L57.318,121.651c-5.745-7.996-15.118-13.218-25.693-13.218
	C14.188,108.432,0,122.619,0,140.058s14.188,31.625,31.625,31.625c7.288,0,14.003-2.485,19.357-6.643l109.327,77.392v48.664H98.498
	c-4.518,0-8.179,3.662-8.179,8.179s3.661,8.179,8.179,8.179H288.43v86.304h-91.789c-4.518,0-8.179,3.662-8.179,8.179
	s3.661,8.179,8.179,8.179h142.925c4.041,32.227,31.595,57.246,64.898,57.246c33.305,0,60.858-25.019,64.9-57.246h17.488h16.969
	c4.518,0,8.179-3.662,8.179-8.179S508.339,393.758,503.821,393.758z M255.186,246.38v44.712h-78.518V246.38L255.186,246.38
	L255.186,246.38z M203.601,167.862h51.585v62.16h-74.894L203.601,167.862z M31.625,155.325c-8.419,0-15.267-6.849-15.267-15.267
	s6.849-15.267,15.267-15.267s15.267,6.849,15.267,15.267S40.044,155.325,31.625,155.325z M478.674,266.014h-68.638v-58.547h68.638
	V266.014z M410.214,142.178h24.903v14.782h-24.903V142.178z M404.466,451.003c-27.033,0-49.029-21.973-49.068-48.997
	c0-0.023,0.003-0.046,0.003-0.069c0-0.024-0.003-0.047-0.003-0.071c0.037-27.027,22.034-49.004,49.068-49.004
	c27.058,0,49.072,22.013,49.072,49.072S431.523,451.003,404.466,451.003z M469.367,393.758
	c-4.038-32.231-31.593-57.254-64.901-57.254c-33.307,0-60.861,25.023-64.9,57.254H304.79V173.319h97.247h41.261h24.548
	c5.972,0,10.83,4.863,10.83,10.84v6.951h-76.817c-4.518,0-8.179,3.662-8.179,8.179v74.905c0,4.517,3.661,8.179,8.179,8.179h76.817
	v111.387h-9.309V393.758z"/>
<path d="M373.512,191.109h-50.714c-4.518,0-8.179,3.662-8.179,8.179v74.905c0,4.517,3.661,8.179,8.179,8.179h50.714
	c4.518,0,8.179-3.662,8.179-8.179v-74.905C381.691,194.771,378.029,191.109,373.512,191.109z M365.333,266.014h-34.356v-58.547
	h34.356V266.014z"/>
<path d="M461.838,298.73c-4.518,0-8.179,3.662-8.179,8.179v18.539c0,4.517,3.661,8.179,8.179,8.179s8.179-3.662,8.179-8.179v-18.539
	C470.017,302.392,466.356,298.73,461.838,298.73z"/>
<g>
</g>
<g>
</g>
<g>
</g>
<g>
</g>
<g>
</g>
<g>
</g>
<g>
</g>
<g>
</g>
<g>
</g>
<g>
</g>
<g>
</g>
<g>
</g>
<g>
</g>
<g>
</g>
<g>
</g>
</svg>
