<?xml version="1.0" encoding="iso-8859-1"?>
<!-- Generator: Adobe Illustrator 19.0.0, SVG Export Plug-In . SVG Version: 6.00 Build 0)  -->
<svg version="1.1" id="Layer_1" xmlns="http://www.w3.org/2000/svg" xmlns:xlink="http://www.w3.org/1999/xlink" x="0px" y="0px"
	 viewBox="0 0 512 512" style="enable-background:new 0 0 512 512;" xml:space="preserve">
<polyline style="fill:#F95428;" points="163.838,419.013 290.4,419.013 290.4,297.51 22.548,297.51 22.548,419.013 46.341,419.013 
	"/>
<polyline style="fill:#E03F20;" points="40.831,419.013 53.611,419.013 53.611,297.51 22.548,297.51 22.548,419.013 25.627,419.013 
	"/>
<path style="fill:#F95428;" d="M459.835,419.013h25.796V195.524c0-10.777-8.729-19.518-19.506-19.518H290.4v243.007h51.939"/>
<polyline style="fill:#E03F20;" points="316.53,419.013 320.509,419.013 320.509,176.007 290.4,176.007 290.4,419.013 
	298.41,419.013 "/>
<g>
	<circle style="fill:#666666;" cx="105.097" cy="419.011" r="58.754"/>
	<circle style="fill:#666666;" cx="401.083" cy="419.011" r="58.754"/>
</g>
<g>
	<circle style="fill:#FFFFFF;" cx="401.083" cy="419.011" r="26.235"/>
	<circle style="fill:#FFFFFF;" cx="105.097" cy="419.011" r="26.235"/>
</g>
<rect x="398.409" y="211.044" style="fill:#E6E6E6;" width="87.225" height="76.873"/>
<g>
	<rect x="317.272" y="211.055" style="fill:#F2F2F2;" width="52.039" height="76.873"/>
	<polygon style="fill:#F2F2F2;" points="485.635,211.044 485.635,287.917 422.303,287.917 481.337,211.044 	"/>
</g>
<rect x="398.588" y="144.053" style="fill:#2BA5F7;" width="42.343" height="31.957"/>
<path d="M401.646,384.089c-19.095,0-34.628,15.535-34.628,34.628c0,19.093,15.535,34.628,34.628,34.628s34.628-15.535,34.628-34.628
	C436.274,399.624,420.74,384.089,401.646,384.089z M401.646,436.559c-9.838,0-17.841-8.004-17.841-17.841
	c0-9.837,8.004-17.841,17.841-17.841s17.841,8.004,17.841,17.841C419.487,428.555,411.484,436.559,401.646,436.559z"/>
<path d="M105.652,384.089c-19.095,0-34.628,15.535-34.628,34.628c0,19.093,15.535,34.628,34.628,34.628s34.628-15.535,34.628-34.628
	C140.28,399.624,124.747,384.089,105.652,384.089z M105.652,436.559c-9.838,0-17.841-8.004-17.841-17.841
	c0-9.837,8.004-17.841,17.841-17.841s17.841,8.004,17.841,17.841C123.493,428.555,115.49,436.559,105.652,436.559z"/>
<path d="M503.607,410.328h-9.02V195.232c0-15.39-12.516-27.911-27.9-27.911h-16.798v-23.563c0-4.635-3.758-8.393-8.393-8.393
	h-42.343c-4.635,0-8.393,3.758-8.393,8.393v23.563h-42.831c-4.635,0-8.393,3.758-8.393,8.393s3.758,8.393,8.393,8.393h51.225h42.343
	h25.192c6.128,0,11.113,4.99,11.113,11.124v7.133h-78.831c-4.635,0-8.393,3.758-8.393,8.393v76.869c0,4.635,3.758,8.393,8.393,8.393
	H477.8v114.308h-9.552c-4.144-33.076-32.421-58.755-66.603-58.755s-62.458,25.679-66.603,58.755h-35.689v-226.22h21.716
	c4.635,0,8.393-3.758,8.393-8.393c0-4.635-3.758-8.393-8.393-8.393h-30.108c-4.635,0-8.393,3.758-8.393,8.393v113.11h-75.643
	c-4.635,0-8.393,3.758-8.393,8.393c0,4.635,3.758,8.393,8.393,8.393h75.643v104.717H172.255
	c-4.144-33.076-32.421-58.755-66.601-58.755c-34.181,0-62.458,25.679-66.603,58.755h-7.547V305.612h148.564
	c4.635,0,8.393-3.758,8.393-8.393c0-4.635-3.758-8.393-8.393-8.393H23.11c-4.635,0-8.393,3.758-8.393,8.393v113.11H8.393
	c-4.635,0-8.393,3.758-8.393,8.393s3.758,8.393,8.393,8.393h30.658c4.147,33.072,32.422,58.747,66.601,58.747
	c34.178,0,62.453-25.675,66.6-58.747h162.793c4.147,33.072,32.422,58.747,66.601,58.747s62.454-25.675,66.601-58.747h17.946h17.411
	c4.635,0,8.393-3.758,8.393-8.393S508.242,410.328,503.607,410.328z M407.545,167.321v-15.17h25.556v15.17L407.545,167.321
	L407.545,167.321z M407.362,279.234v-60.083H477.8v60.083H407.362z M105.652,469.074c-27.761,0-50.348-22.581-50.357-50.341
	c0-0.004,0.001-0.009,0.001-0.013c0-0.006-0.001-0.01-0.001-0.016c0.007-27.762,22.594-50.346,50.357-50.346
	c27.751,0,50.33,22.565,50.356,50.31c0,0.017-0.002,0.035-0.002,0.051c0,0.017,0.002,0.032,0.002,0.049
	C155.979,446.514,133.402,469.074,105.652,469.074z M401.646,469.074c-27.742,0-50.316-22.549-50.356-50.282
	c0-0.023,0.003-0.047,0.003-0.07c0-0.025-0.003-0.048-0.003-0.073c0.038-27.735,22.612-50.289,50.356-50.289
	c27.766,0,50.355,22.588,50.357,50.353c0,0.003,0,0.006,0,0.009c0,0.002,0,0.003,0,0.006
	C451.998,446.49,429.41,469.074,401.646,469.074z"/>
<path d="M309.443,210.758v76.869c0,4.635,3.758,8.393,8.393,8.393h52.044c4.635,0,8.393-3.758,8.393-8.393v-76.869
	c0-4.635-3.758-8.393-8.393-8.393h-52.044C313.201,202.364,309.443,206.122,309.443,210.758z M326.23,219.151h35.257v60.083H326.23
	V219.151z"/>
<path d="M467.795,340.226v-19.025c0-4.635-3.758-8.393-8.393-8.393c-4.635,0-8.393,3.758-8.393,8.393v19.025
	c0,4.635,3.758,8.393,8.393,8.393C464.037,348.619,467.795,344.861,467.795,340.226z"/>
<path d="M49.644,212.185c1.632,0,3.28-0.475,4.728-1.465l16.47-11.256l37.256,54.514l-16.471,11.256
	c-3.826,2.615-4.809,7.838-2.193,11.666c1.625,2.378,4.258,3.658,6.937,3.658c1.632,0,3.28-0.475,4.728-1.465l247.667-169.259
	c3.826-2.615,4.809-7.838,2.193-11.666c-2.614-3.826-7.837-4.81-11.666-2.193l-16.47,11.256l-37.256-54.514l16.471-11.256
	c3.826-2.615,4.809-7.838,2.193-11.666c-2.614-3.826-7.837-4.81-11.666-2.193L44.902,196.861c-3.826,2.615-4.809,7.838-2.193,11.666
	C44.333,210.905,46.965,212.185,49.644,212.185z M84.703,189.992l36.357-24.847l37.256,54.514l-36.357,24.847L84.703,189.992z
	 M171.277,130.826l37.256,54.514l-36.357,24.847l-37.256-54.514L171.277,130.826z M221.492,96.508l37.256,54.514l-36.357,24.847
	l-37.256-54.514L221.492,96.508z M308.965,116.703l-36.357,24.847l-37.256-54.514l36.357-24.847L308.965,116.703z"/>
<g>
</g>
<g>
</g>
<g>
</g>
<g>
</g>
<g>
</g>
<g>
</g>
<g>
</g>
<g>
</g>
<g>
</g>
<g>
</g>
<g>
</g>
<g>
</g>
<g>
</g>
<g>
</g>
<g>
</g>
</svg>
