<?xml version="1.0" encoding="iso-8859-1"?>
<!-- Generator: Adobe Illustrator 19.0.0, SVG Export Plug-In . SVG Version: 6.00 Build 0)  -->
<svg version="1.1" id="Layer_1" xmlns="http://www.w3.org/2000/svg" xmlns:xlink="http://www.w3.org/1999/xlink" x="0px" y="0px"
	 viewBox="0 0 512 512" style="enable-background:new 0 0 512 512;" xml:space="preserve">
<rect x="8.126" y="134.496" style="fill:#E03F20;" width="47.986" height="88.588"/>
<rect x="454.726" y="134.496" style="fill:#F95428;" width="47.986" height="88.588"/>
<g>
	<rect x="71.033" y="415.007" style="fill:#808080;" width="90.109" height="49.828"/>
	<rect x="349.698" y="415.007" style="fill:#808080;" width="90.109" height="49.828"/>
</g>
<g>
	<rect x="71.033" y="415.007" style="fill:#666666;" width="90.109" height="21.962"/>
	<rect x="349.698" y="415.007" style="fill:#666666;" width="90.109" height="21.962"/>
</g>
<rect x="36.73" y="355.956" style="fill:#E6E6E6;" width="437.369" height="59.055"/>
<polyline style="fill:#F95428;" points="454.733,355.956 454.733,90.208 56.106,90.208 56.106,355.956 "/>
<g>
	<rect x="87.137" y="120.97" style="fill:#CCCCCC;" width="152.017" height="99.235"/>
	<rect x="271.686" y="120.97" style="fill:#CCCCCC;" width="152.005" height="99.235"/>
</g>
<g>
	<polygon style="fill:#F2F2F2;" points="423.693,120.97 423.693,220.205 331.087,220.205 369.738,120.97 	"/>
	<polygon style="fill:#F2F2F2;" points="239.151,120.97 239.151,220.205 146.546,220.205 185.197,120.97 	"/>
	<rect x="164.068" y="252.61" style="fill:#F2F2F2;" width="182.703" height="103.345"/>
	<rect x="376.947" y="296.904" style="fill:#F2F2F2;" width="46.756" height="31.372"/>
	<rect x="87.137" y="296.904" style="fill:#F2F2F2;" width="46.756" height="31.372"/>
</g>
<rect x="177.513" y="47.766" style="fill:#CCCCCC;" width="60.897" height="42.448"/>
<rect x="367.334" y="47.766" style="fill:#2BA5F7;" width="60.897" height="42.448"/>
<rect x="272.43" y="47.766" style="fill:#CCCCCC;" width="60.897" height="42.448"/>
<rect x="82.597" y="47.766" style="fill:#2BA5F7;" width="60.909" height="42.448"/>
<path d="M87.72,228.614h152.013c4.809,0,8.708-3.899,8.708-8.708v-99.238c0-4.809-3.899-8.708-8.708-8.708H87.72
	c-4.809,0-8.708,3.899-8.708,8.708v99.238C79.012,224.715,82.911,228.614,87.72,228.614z M96.428,129.376h134.597v81.822H96.428
	V129.376z"/>
<path d="M361.66,129.376c4.809,0,8.708-3.899,8.708-8.708s-3.899-8.708-8.708-8.708h-89.393c-4.809,0-8.708,3.899-8.708,8.708
	v99.238c0,4.809,3.899,8.708,8.708,8.708H424.28c4.809,0,8.708-3.899,8.708-8.708v-99.238c0-4.809-3.899-8.708-8.708-8.708h-33.594
	c-4.809,0-8.708,3.899-8.708,8.708s3.899,8.708,8.708,8.708h24.886v81.822H280.975v-81.822H361.66z"/>
<path d="M503.292,125.492h-39.268V89.905c0-4.809-3.899-8.708-8.708-8.708h-17.793V47.463c0-4.809-3.899-8.708-8.708-8.708h-60.897
	c-4.809,0-8.708,3.899-8.708,8.708v33.734h-16.591V47.463c0-4.809-3.899-8.708-8.708-8.708h-60.897
	c-4.809,0-8.708,3.899-8.708,8.708v33.734h-16.603V47.463c0-4.809-3.899-8.708-8.708-8.708h-60.897
	c-4.809,0-8.708,3.899-8.708,8.708v33.734h-16.591V47.463c0-4.809-3.899-8.708-8.708-8.708H83.181c-4.809,0-8.708,3.899-8.708,8.708
	v33.734H56.688c-4.809,0-8.708,3.899-8.708,8.708v35.587H8.708C3.899,125.492,0,129.391,0,134.2v88.583
	c0,4.809,3.899,8.708,8.708,8.708h39.273v39.916c0,4.809,3.899,8.708,8.708,8.708s8.708-3.899,8.708-8.708V98.613h381.212v248.334
	h-25.736c-4.809,0-8.708,3.899-8.708,8.708s3.899,8.708,8.708,8.708h45.107v41.639H46.021v-41.639h345.825
	c4.809,0,8.708-3.899,8.708-8.708s-3.899-8.708-8.708-8.708h-35.788V252.31c0-4.809-3.899-8.708-8.708-8.708h-182.7
	c-4.809,0-8.708,3.899-8.708,8.708v94.637H65.396v-45.353c0-4.809-3.899-8.708-8.708-8.708s-8.708,3.899-8.708,8.708v45.353H37.313
	c-4.809,0-8.708,3.899-8.708,8.708v59.055c0,4.809,3.899,8.708,8.708,8.708h25.592v41.12c0,4.809,3.899,8.708,8.708,8.708h90.11
	c4.809,0,8.708-3.899,8.708-8.708v-24.963c0-4.809-3.899-8.708-8.708-8.708c-4.809,0-8.708,3.899-8.708,8.708v16.255H80.32v-32.412
	h261.25v41.12c0,4.809,3.899,8.708,8.708,8.708h90.109c4.809,0,8.708-3.899,8.708-8.708v-41.12h25.592
	c4.809,0,8.708-3.899,8.708-8.708v-59.055c0-4.809-3.899-8.708-8.708-8.708h-10.663V231.49h39.268c4.809,0,8.708-3.899,8.708-8.708
	v-88.583C512,129.391,508.101,125.492,503.292,125.492z M17.416,214.074v-71.167h30.565v71.167H17.416z M376.626,56.171h43.481
	v25.027h-43.481V56.171z M281.721,56.171h43.481v25.027h-43.481L281.721,56.171L281.721,56.171z M186.805,56.171h43.481v25.027
	h-43.481V56.171z M91.889,56.171h43.493v25.027H91.889V56.171z M173.358,261.018h165.285v85.93H173.358V261.018z M431.68,455.829
	h-72.695v-32.412h72.695V455.829z M494.584,214.074h-30.56v-71.167h30.56V214.074z"/>
<path d="M424.28,287.892h-46.751c-4.809,0-8.708,3.899-8.708,8.708v31.373c0,4.809,3.899,8.708,8.708,8.708h46.751
	c4.809,0,8.708-3.899,8.708-8.708V296.6C432.988,291.791,429.089,287.892,424.28,287.892z M415.572,319.265h-29.335v-13.957h29.335
	V319.265z"/>
<path d="M79.012,327.973c0,4.809,3.899,8.708,8.708,8.708h46.751c4.809,0,8.708-3.899,8.708-8.708V296.6
	c0-4.809-3.899-8.708-8.708-8.708H87.72c-4.809,0-8.708,3.899-8.708,8.708V327.973z M96.428,305.308h29.335v13.957H96.428V305.308z"
	/>
<path d="M319.668,279.126H192.332c-4.809,0-8.708,3.899-8.708,8.708s3.899,8.708,8.708,8.708h127.336
	c4.809,0,8.708-3.899,8.708-8.708S324.477,279.126,319.668,279.126z"/>
<path d="M319.668,311.422H192.332c-4.809,0-8.708,3.899-8.708,8.708s3.899,8.708,8.708,8.708h127.336
	c4.809,0,8.708-3.899,8.708-8.708S324.477,311.422,319.668,311.422z"/>
<circle cx="444.95" cy="385.179" r="8.708"/>
<circle cx="67.053" cy="385.179" r="8.708"/>
<g>
</g>
<g>
</g>
<g>
</g>
<g>
</g>
<g>
</g>
<g>
</g>
<g>
</g>
<g>
</g>
<g>
</g>
<g>
</g>
<g>
</g>
<g>
</g>
<g>
</g>
<g>
</g>
<g>
</g>
</svg>
