<?xml version="1.0" encoding="iso-8859-1"?>
<!-- Generator: Adobe Illustrator 19.0.0, SVG Export Plug-In . SVG Version: 6.00 Build 0)  -->
<svg version="1.1" id="Layer_1" xmlns="http://www.w3.org/2000/svg" xmlns:xlink="http://www.w3.org/1999/xlink" x="0px" y="0px"
	 viewBox="0 0 512.001 512.001" style="enable-background:new 0 0 512.001 512.001;" xml:space="preserve">
<path style="fill:#E6E6E6;" d="M463.825,112.477H46.855c-20.796,0-37.655,16.859-37.655,37.655v279.016
	c0,20.796,16.859,37.655,37.655,37.655h416.97c20.796,0,37.655-16.859,37.655-37.655V150.132
	C501.48,129.335,484.621,112.477,463.825,112.477z"/>
<path style="fill:#CCCCCC;" d="M50.612,429.146V150.132c0-20.796,16.859-37.655,37.655-37.655H46.855
	c-20.796,0-37.655,16.859-37.655,37.655v279.016c0,20.796,16.859,37.655,37.655,37.655h41.412
	C67.471,466.801,50.612,449.942,50.612,429.146z"/>
<circle style="fill:#F95428;" cx="255.343" cy="294.902" r="109.949"/>
<polygon style="fill:#E6E6E6;" points="318.447,268.604 281.635,268.604 281.635,231.792 229.046,231.792 229.046,268.604 
	192.235,268.604 192.235,321.193 229.046,321.193 229.046,358.005 281.635,358.005 281.635,321.193 318.447,321.193 "/>
<path d="M464.485,102.273h-34.171c-5.447,0-9.86,4.415-9.86,9.86s4.413,9.86,9.86,9.86h34.171c15.326,0,27.796,12.469,27.796,27.794
	v279.016c0,15.326-12.469,27.794-27.796,27.794h-8.954c2.527-11.972,9.582-22.646,19.952-29.659
	c4.512-3.05,5.695-9.179,2.645-13.691c-3.049-4.511-9.177-5.695-13.691-2.645c-15.821,10.698-26.185,27.43-28.924,45.995H76.511
	c-4.311-29.277-27.514-52.483-56.79-56.796V149.788c0-15.326,12.469-27.794,27.794-27.794h346.646c5.447,0,9.86-4.415,9.86-9.86
	s-4.413-9.86-9.86-9.86h-24.327V74.112c0-21.191-17.24-38.43-38.43-38.43H180.598c-21.191,0-38.43,17.24-38.43,38.43v28.161H47.515
	C21.315,102.273,0,123.589,0,149.788v279.016c0,26.2,21.315,47.515,47.515,47.515h416.97c26.201,0,47.516-21.315,47.516-47.515
	V149.788C512,123.589,490.686,102.273,464.485,102.273z M161.887,74.111c0-10.317,8.393-18.71,18.71-18.71h150.805
	c10.318,0,18.71,8.393,18.71,18.71v28.161H161.887V74.111z M19.721,428.803v-8.977c18.381,3.884,32.886,18.389,36.767,36.771h-8.972
	C32.189,456.599,19.721,444.13,19.721,428.803z"/>
<path d="M171.285,209.839c-22.629,22.629-35.091,52.715-35.091,84.716c0,66.062,53.744,119.806,119.806,119.806
	s119.806-53.744,119.806-119.806S322.06,174.749,255.999,174.749c-16.168,0-31.859,3.168-46.637,9.419
	c-5.016,2.122-7.362,7.907-5.24,12.922c2.122,5.016,7.908,7.361,12.922,5.24c12.333-5.217,25.44-7.861,38.955-7.861
	c55.188,0,100.085,44.897,100.085,100.085S311.187,394.64,255.999,394.64s-100.085-44.897-100.085-100.085
	c0-26.733,10.411-51.867,29.314-70.771c3.851-3.851,3.851-10.094,0-13.944C181.379,205.988,175.135,205.988,171.285,209.839z"/>
<path d="M282.295,221.589h-52.588c-5.446,0-9.86,4.415-9.86,9.86v26.952h-26.952c-5.446,0-9.86,4.415-9.86,9.86v52.588
	c0,5.446,4.415,9.86,9.86,9.86h26.952v26.952c0,5.446,4.415,9.86,9.86,9.86h52.588c5.447,0,9.86-4.415,9.86-9.86V330.71h26.952
	c5.447,0,9.86-4.415,9.86-9.86v-52.588c0-5.446-4.413-9.86-9.86-9.86h-26.952v-26.952
	C292.155,226.004,287.74,221.589,282.295,221.589z M309.246,278.121v32.868h-26.952c-5.447,0-9.86,4.415-9.86,9.86v26.952h-32.868
	V320.85c0-5.446-4.415-9.86-9.86-9.86h-26.952v-32.868h26.952c5.446,0,9.86-4.415,9.86-9.86v-26.952h32.868v26.952
	c0,5.446,4.413,9.86,9.86,9.86H309.246L309.246,278.121z"/>
<g>
</g>
<g>
</g>
<g>
</g>
<g>
</g>
<g>
</g>
<g>
</g>
<g>
</g>
<g>
</g>
<g>
</g>
<g>
</g>
<g>
</g>
<g>
</g>
<g>
</g>
<g>
</g>
<g>
</g>
</svg>
