<?xml version="1.0" encoding="iso-8859-1"?>
<!-- Generator: Adobe Illustrator 19.0.0, SVG Export Plug-In . SVG Version: 6.00 Build 0)  -->
<svg version="1.1" id="Layer_1" xmlns="http://www.w3.org/2000/svg" xmlns:xlink="http://www.w3.org/1999/xlink" x="0px" y="0px"
	 viewBox="0 0 512 512" style="enable-background:new 0 0 512 512;" xml:space="preserve">
<rect x="87.401" y="399.937" style="fill:#E6E6E6;" width="335.911" height="99.092"/>
<rect x="87.401" y="399.937" style="fill:#CCCCCC;" width="68.68" height="99.092"/>
<path style="fill:#F95428;" d="M388.801,399.94H121.905V253.449c0-73.701,59.747-133.448,133.448-133.448l0,0
	c73.701,0,133.448,59.747,133.448,133.448V399.94H388.801z"/>
<g>
	<path style="fill:#E03F20;" d="M255.353,120.002L255.353,120.002c-73.701,0-133.448,59.747-133.448,133.448V399.94h52.226V253.449
		C174.132,179.747,210.495,120.002,255.353,120.002z"/>
	<path style="fill:#E03F20;" d="M311.364,399.94H199.342v-61.486c0-30.934,25.077-56.012,56.012-56.012l0,0
		c30.934,0,56.012,25.077,56.012,56.012v61.486H311.364z"/>
</g>
<path d="M423.953,389.934h-24.836V253.111c0-78.915-64.203-143.117-143.117-143.117c-47.617,0-91.979,23.586-118.67,63.093
	c-2.99,4.426-1.826,10.437,2.599,13.427c4.426,2.989,10.437,1.827,13.427-2.599c23.089-34.176,61.46-54.579,102.645-54.579
	c68.252,0,123.778,55.526,123.778,123.778v136.822h-58.098v-51.816c0-5.34-4.329-9.67-9.67-9.67s-9.67,4.329-9.67,9.67v51.816
	H209.66v-51.816c0-25.552,20.79-46.341,46.342-46.341c14.539,0,27.958,6.631,36.814,18.189c3.248,4.24,9.32,5.044,13.557,1.796
	c4.239-3.248,5.044-9.318,1.796-13.557c-12.546-16.377-31.56-25.768-52.166-25.768c-36.216,0-65.68,29.464-65.68,65.68v51.816
	h-58.098V253.111c0-12.559,1.872-24.944,5.563-36.81c1.586-5.099-1.262-10.519-6.361-12.105c-5.097-1.583-10.519,1.262-12.105,6.361
	c-4.27,13.728-6.436,28.046-6.436,42.554v136.822H88.047c-5.34,0-9.67,4.329-9.67,9.67v99.093c0,5.34,4.329,9.67,9.67,9.67H369.46
	c5.34,0,9.67-4.329,9.67-9.67s-4.329-9.67-9.67-9.67H97.716v-79.753h316.567v79.753h-15.168c-5.34,0-9.67,4.329-9.67,9.67
	s4.329,9.67,9.67,9.67h24.838c5.34,0,9.67-4.329,9.67-9.67v-99.092C433.623,394.262,429.294,389.934,423.953,389.934z"/>
<path d="M256.001,94.525c5.34,0,9.67-4.329,9.67-9.67V13.304c0-5.34-4.329-9.67-9.67-9.67c-5.34,0-9.67,4.329-9.67,9.67v71.552
	C246.331,90.196,250.659,94.525,256.001,94.525z"/>
<path d="M379.588,145.716c2.474,0,4.95-0.944,6.837-2.833l50.594-50.594c3.776-3.776,3.776-9.899,0-13.674
	c-3.776-3.776-9.899-3.776-13.674,0l-50.594,50.594c-3.776,3.776-3.776,9.899,0,13.674
	C374.638,144.773,377.112,145.716,379.588,145.716z"/>
<path d="M502.33,249.964h-71.552c-5.34,0-9.67,4.329-9.67,9.67c0,5.34,4.329,9.67,9.67,9.67h71.552c5.34,0,9.67-4.329,9.67-9.67
	C512,254.294,507.671,249.964,502.33,249.964z"/>
<path d="M125.575,142.884c1.888,1.887,4.363,2.833,6.837,2.833c2.474,0,4.95-0.944,6.837-2.833c3.776-3.776,3.776-9.899,0-13.674
	L88.655,78.614c-3.776-3.776-9.899-3.776-13.674,0c-3.776,3.776-3.776,9.898,0,13.674L125.575,142.884z"/>
<path d="M90.891,259.634c0-5.34-4.329-9.67-9.67-9.67H9.67c-5.34,0-9.67,4.329-9.67,9.67c0,5.34,4.329,9.67,9.67,9.67h71.552
	C86.561,269.304,90.891,264.974,90.891,259.634z"/>
<g>
</g>
<g>
</g>
<g>
</g>
<g>
</g>
<g>
</g>
<g>
</g>
<g>
</g>
<g>
</g>
<g>
</g>
<g>
</g>
<g>
</g>
<g>
</g>
<g>
</g>
<g>
</g>
<g>
</g>
</svg>
