<?xml version="1.0" encoding="iso-8859-1"?>
<!-- Generator: Adobe Illustrator 19.0.0, SVG Export Plug-In . SVG Version: 6.00 Build 0)  -->
<svg version="1.1" id="Layer_1" xmlns="http://www.w3.org/2000/svg" xmlns:xlink="http://www.w3.org/1999/xlink" x="0px" y="0px"
	 viewBox="0 0 512.001 512.001" style="enable-background:new 0 0 512.001 512.001;" xml:space="preserve">
<path style="fill:#E6E6E6;" d="M352.887,105.852l21.928,21.928l36.352-36.352l60.127,16.617l8.336-29.87l-68.853-19.052
	c-5.391-1.505-11.175,0.013-15.132,3.971L352.887,105.852z"/>
<rect x="319.874" y="112.73" transform="matrix(0.7071 0.7071 -0.7071 0.7071 193.2596 -213.2016)" style="fill:#B3B3B3;" width="68.225" height="27.908"/>
<path style="fill:#F95428;" d="M396.104,250.48c0,105.388-74.582,87.553-72.961,158.893c0.916,40.277,34.817,63.337,72.867,67.817
	c-9.119-10.539-49.348-63.017,13.064-105.108c2.003,40.568,35.67,47.02,35.67,76.204c0,12.29-2.59,20.543-5.586,25.994
	c31.4-8.209,58.011-30.094,62.332-66.527C512.841,312.091,396.104,250.48,396.104,250.48z"/>
<path style="fill:#E09B2D;" d="M381.39,173.822l-48.241,48.241l-151.12,151.132c-9.184,9.171-24.06,9.171-33.231,0L15.375,239.773
	c-9.171-9.171-9.171-24.047,0-33.231L181.858,40.072l26.152,26.152l40.724,40.724l48.241-17.54l26.152,26.152L381.39,173.822z"/>
<path style="fill:#F7B239;" d="M381.39,173.822l-48.241,48.241l-151.12,151.132c-9.184,9.171-24.06,9.171-33.231,0L41.528,265.925
	c-9.171-9.171-9.171-24.047,0-33.231L208.01,66.224l40.724,40.724l48.24-17.54L381.39,173.822z"/>
<path d="M495.33,332.12c-2.411-4.423-7.953-6.051-12.376-3.641c-4.424,2.412-6.054,7.954-3.641,12.378
	c11.718,21.486,16.337,43.524,13.73,65.502c-3.526,29.719-23.029,45.092-39.287,52.831c0.48-3.538,0.721-7.282,0.721-11.223
	c0-16.95-8.895-27.476-17.497-37.656c-8.881-10.508-17.266-20.432-18.183-38.998c-0.163-3.289-2.085-6.234-5.03-7.708
	c-2.946-1.473-6.454-1.246-9.184,0.595c-22.291,15.034-34.978,33.072-37.707,53.611c-2.286,17.205,3.002,33.027,9.263,44.978
	c-22.499-8.044-42.61-25.087-43.266-53.942c-0.643-28.307,11.959-40.1,27.913-55.029c18.258-17.084,40.574-37.97,44.46-87.89
	c13.551,8.772,35.523,24.76,54.188,46.509c3.279,3.823,9.04,4.263,12.864,0.982c3.823-3.282,4.262-9.041,0.982-12.864
	c-31.481-36.68-70.655-57.588-72.306-58.461c-2.826-1.491-6.23-1.396-8.969,0.255c-2.738,1.651-4.412,4.615-4.412,7.813
	c0,53.585-19.964,72.267-39.271,90.334c-16.969,15.88-34.517,32.299-33.687,68.766c0.488,21.471,9.381,40.168,25.716,54.072
	c14.154,12.047,33.76,20.072,55.206,22.599c0.358,0.043,0.715,0.062,1.069,0.062c3.347,0,6.464-1.843,8.058-4.851
	c1.763-3.327,1.302-7.394-1.162-10.241c-5.144-5.944-21.68-27.166-18.556-50.689c1.519-11.441,7.62-22.091,18.18-31.786
	c4.232,15.122,12.73,25.176,19.9,33.66c7.656,9.061,13.188,15.606,13.188,25.879c0,8.826-1.542,16.294-4.457,21.599
	c-1.755,3.194-1.443,7.127,0.798,10.002c2.241,2.875,5.983,4.139,9.503,3.218c38.949-10.182,64.775-37.95,69.085-74.278
	C514.222,382.695,508.896,356.995,495.33,332.12z"/>
<path d="M388.455,167.058l-6.706-6.706l13.283-13.284c1.711-1.71,2.672-4.031,2.672-6.45c0-2.419-0.961-4.74-2.671-6.45
	l-28.634-28.634l36.306-36.306c1.628-1.627,4.015-2.253,6.25-1.629l60.041,16.614l-3.431,12.299L414.206,82.32
	c-3.171-0.876-6.56,0.019-8.882,2.343l-16.967,16.968c-3.563,3.563-3.563,9.339,0.001,12.901c3.562,3.564,9.338,3.563,12.901,0
	l13.208-13.21l55.005,15.201c4.852,1.338,9.865-1.496,11.217-6.341l8.336-29.87c0.652-2.333,0.348-4.83-0.844-6.941
	c-1.191-2.109-3.173-3.658-5.509-4.305l-68.834-19.047c-8.541-2.383-17.756,0.03-24.035,6.307l-36.307,36.307l-6.705-6.705
	c-3.563-3.563-9.338-3.564-12.902,0l-13.283,13.284l-70.534-70.534c-2.521-2.52-6.279-3.341-9.62-2.103l-42.515,15.749l-9.021-9.021
	c-1.711-1.711-4.031-2.672-6.452-2.672s-4.739,0.961-6.452,2.672l-33.205,33.205c-3.563,3.563-3.563,9.339,0,12.901
	c3.565,3.563,9.34,3.561,12.902,0l26.755-26.754l60.427,60.427c2.507,2.507,6.239,3.335,9.569,2.123l42.779-15.557l73.861,73.861
	L176.184,366.425c-2.714,2.715-6.324,4.21-10.164,4.21c-3.839,0-7.449-1.495-10.163-4.21L22.441,233.01
	c-5.605-5.605-5.605-14.724,0-20.329l106.51-106.51c3.563-3.563,3.563-9.339,0-12.901c-3.564-3.563-9.339-3.564-12.902,0
	L9.539,199.78c-12.718,12.718-12.718,33.413,0,46.132l133.416,133.415c6.161,6.161,14.353,9.555,23.066,9.555
	c8.714,0,16.905-3.394,23.067-9.555L388.455,179.96C392.016,176.397,392.016,170.621,388.455,167.058z M340.342,105.281l6.698,6.698
	c0.002,0.002,0.004,0.004,0.006,0.006l21.927,21.928c0.004,0.004,0.008,0.007,0.012,0.011l6.695,6.694l-6.834,6.832l-35.339-35.339
	L340.342,105.281z M251.686,96.074l-39.552-39.552l29.172-10.807l39.697,39.697L251.686,96.074z"/>
<path d="M173.521,92.69c-5.039,0-9.123,4.085-9.123,9.123v104.41H59.988c-5.039,0-9.123,4.085-9.123,9.123
	c0,5.038,4.083,9.123,9.123,9.123h104.411v104.41c0,5.038,4.083,9.123,9.123,9.123c5.039,0,9.123-4.085,9.123-9.123v-104.41h50.851
	c5.039,0,9.123-4.085,9.123-9.123c0-5.038-4.083-9.123-9.123-9.123h-50.851v-104.41C182.643,96.775,178.56,92.69,173.521,92.69z"/>
<path d="M287.053,224.468c5.039,0,9.123-4.085,9.123-9.123c0-5.038-4.083-9.123-9.123-9.123h-24.974
	c-5.039,0-9.123,4.085-9.123,9.123c0,5.038,4.083,9.123,9.123,9.123H287.053z"/>
<g>
</g>
<g>
</g>
<g>
</g>
<g>
</g>
<g>
</g>
<g>
</g>
<g>
</g>
<g>
</g>
<g>
</g>
<g>
</g>
<g>
</g>
<g>
</g>
<g>
</g>
<g>
</g>
<g>
</g>
</svg>
