<?xml version="1.0" encoding="iso-8859-1"?>
<!-- Generator: Adobe Illustrator 19.0.0, SVG Export Plug-In . SVG Version: 6.00 Build 0)  -->
<svg version="1.1" id="Layer_1" xmlns="http://www.w3.org/2000/svg" xmlns:xlink="http://www.w3.org/1999/xlink" x="0px" y="0px"
	 viewBox="0 0 511.999 511.999" style="enable-background:new 0 0 511.999 511.999;" xml:space="preserve">
<polygon style="fill:#F95428;" points="460.831,106.616 460.445,107.615 460.445,177.783 50.426,177.783 50.426,103.642 
	49.518,101.156 255.435,26.515 "/>
<g>
	<rect x="144.445" y="439.41" style="fill:#808080;" width="54.241" height="46.669"/>
	<rect x="312.185" y="439.41" style="fill:#808080;" width="54.241" height="46.669"/>
</g>
<g>
	<rect x="106.574" y="287.234" style="fill:#F95428;" width="45.556" height="53.32"/>
	<rect x="365.552" y="287.234" style="fill:#F95428;" width="38.734" height="53.32"/>
	<polyline style="fill:#F95428;" points="375.406,436.04 375.406,260.576 135.459,260.576 135.459,436.04 	"/>
</g>
<rect x="135.454" y="260.579" style="fill:#CCCCCC;" width="239.951" height="74.425"/>
<g>
	<polygon style="fill:#F2F2F2;" points="375.406,260.574 375.406,335 308.178,335 337.16,260.574 	"/>
	<polygon style="fill:#F2F2F2;" points="256.207,260.574 256.207,335 188.98,335 217.962,260.574 	"/>
</g>
<rect x="123.795" y="420.543" style="fill:#E6E6E6;" width="263.269" height="31.006"/>
<rect x="200.445" y="358.333" style="fill:#F2F2F2;" width="109.969" height="62.207"/>
<g>
	<rect x="172.133" y="230.484" style="fill:#2BA5F7;" width="36.656" height="38.034"/>
	<rect x="237.102" y="230.484" style="fill:#2BA5F7;" width="36.656" height="38.034"/>
	<rect x="302.07" y="230.484" style="fill:#2BA5F7;" width="36.656" height="38.034"/>
</g>
<path style="fill:#FFFFFF;" d="M250.182,69.668c0,0.111,0,0.223-0.001,0.334c-0.052,10.109-4.874,19.573-12.864,25.765
	c-7.395,5.731-12.003,14.885-11.438,25.087c0.841,15.22,13.422,27.456,28.659,27.906c16.756,0.494,30.495-12.941,30.495-29.587
	C285.032,78.218,250.182,69.668,250.182,69.668z"/>
<path d="M506.577,114.803L259.098,18.287c-1.924-0.75-4.056-0.776-5.995-0.073L5.616,107.919c-4.422,1.602-6.706,6.484-5.104,10.905
	c1.602,4.422,6.484,6.706,10.905,5.104l31.065-11.26v364.599H17.268c-4.702,0-8.514,3.812-8.514,8.514
	c0,4.702,3.812,8.514,8.514,8.514h477.464c4.702,0,8.514-3.812,8.514-8.514c0-4.702-3.812-8.514-8.514-8.514h-25.204V288.091
	c0-4.702-3.812-8.514-8.514-8.514c-4.702,0-8.514,3.812-8.514,8.514v189.176h-76.997v-17.505h12.132
	c4.702,0,8.514-3.812,8.514-8.514v-31.006c0-4.702-3.812-8.514-8.514-8.514h-3.146v-62.952h20.364c4.702,0,8.514-3.812,8.514-8.514
	v-53.32c0-4.702-3.812-8.514-8.514-8.514h-20.364v-18.149c0-4.702-3.812-8.514-8.514-8.514h-28.166V230.19
	c0-4.702-3.812-8.514-8.514-8.514h-36.658c-4.702,0-8.514,3.812-8.514,8.514v21.574h-11.278V230.19c0-4.702-3.812-8.514-8.514-8.514
	h-36.657c-4.702,0-8.514,3.812-8.514,8.514v21.574h-11.278V230.19c0-4.702-3.812-8.514-8.514-8.514h-36.659
	c-4.702,0-8.514,3.812-8.514,8.514v21.574h-28.166c-4.702,0-8.514,3.812-8.514,8.514v18.149h-20.365
	c-4.702,0-8.514,3.812-8.514,8.514v53.32c0,4.702,3.812,8.514,8.514,8.514h20.367v62.952h-3.149c-4.702,0-8.514,3.812-8.514,8.514
	v31.006c0,4.702,3.812,8.514,8.514,8.514h12.132v17.505H59.51V186.002h54.214c4.702,0,8.514-3.812,8.514-8.514
	c0-4.702-3.812-8.514-8.514-8.514H59.51v-62.477l196.385-71.182l196.605,76.676v56.982H139.455c-4.702,0-8.514,3.812-8.514,8.514
	c0,4.702,3.812,8.514,8.514,8.514h313.045v76.358c0,4.702,3.812,8.514,8.514,8.514c4.702,0,8.514-3.812,8.514-8.514V118.632
	l30.861,12.036c1.017,0.396,2.063,0.585,3.092,0.585c3.406,0,6.622-2.058,7.934-5.422
	C513.124,121.449,510.958,116.513,506.577,114.803z M304.234,459.762v17.505h-96.469v-17.505H304.234z M358.475,477.269h-37.213
	v-17.505h37.213V477.269z M396.339,295.455v36.292H384.49v-36.292H396.339z M367.46,286.865c0,0.026-0.003,0.051-0.003,0.077v39.251
	H264.515v-57.399h9.815h28.307h36.659h28.166v18.07H367.46z M311.151,238.706h19.63v13.06h-19.63V238.706z M246.187,238.706h19.629
	v13.06h-19.629V238.706z M181.222,238.706h19.63v13.06h-19.63L181.222,238.706L181.222,238.706z M172.707,268.794h36.659h28.307
	h9.815v57.399H144.544v-39.251c0-0.003,0-0.007,0-0.011v-18.137h28.164V268.794z M115.662,331.748v-36.292h11.853v36.292H115.662z
	 M144.543,343.221h222.919v68.507h-47.96v-53.692c0-4.702-3.812-8.514-8.514-8.514H201.013c-4.702,0-8.514,3.812-8.514,8.514v12.549
	c0,4.702,3.812,8.514,8.514,8.514c4.702,0,8.514-3.812,8.514-8.514v-4.035h92.945v45.178h-92.945v-16.359
	c0-4.702-3.812-8.514-8.514-8.514c-4.702,0-8.514,3.812-8.514,8.514v16.359h-47.957v-68.507H144.543z M132.879,428.756h68.135
	h109.973h68.134v13.978h-12.132h-54.241H199.251h-54.24h-12.132V428.756z M153.526,459.762h37.211v17.505h-37.211L153.526,459.762
	L153.526,459.762z"/>
<path d="M334.606,402.433h18.146c4.702,0,8.514-3.812,8.514-8.514c0-4.702-3.812-8.514-8.514-8.514h-18.146
	c-4.702,0-8.514,3.812-8.514,8.514C326.092,398.621,329.902,402.433,334.606,402.433z"/>
<path d="M177.395,385.404h-18.146c-4.702,0-8.514,3.812-8.514,8.514c0,4.702,3.812,8.514,8.514,8.514h18.146
	c4.702,0,8.514-3.812,8.514-8.514C185.909,389.216,182.097,385.404,177.395,385.404z"/>
<path d="M254.855,156.974c0.388,0.011,0.775,0.017,1.161,0.017c9.972,0,19.355-3.798,26.534-10.768
	c7.458-7.242,11.566-16.953,11.566-27.347c0-37.677-27.039-54.266-41.336-57.774c-2.539-0.623-5.225-0.044-7.284,1.57
	s-3.26,4.085-3.26,6.699l-0.001,0.291c-0.037,7.444-3.524,14.398-9.565,19.078c-9.913,7.681-15.417,19.752-14.725,32.288
	C219.029,140.606,235.242,156.395,254.855,156.974z M243.101,102.201c6.942-5.379,11.887-12.57,14.362-20.62
	c1.838,1.101,3.812,2.47,5.768,4.154c9.195,7.917,13.858,19.067,13.858,33.143c0,5.75-2.273,11.123-6.399,15.13
	c-4.124,4.004-9.565,6.118-15.33,5.946c-10.846-0.32-19.811-9.047-20.409-19.865C234.564,113.14,237.613,106.454,243.101,102.201z"
	/>
<g>
</g>
<g>
</g>
<g>
</g>
<g>
</g>
<g>
</g>
<g>
</g>
<g>
</g>
<g>
</g>
<g>
</g>
<g>
</g>
<g>
</g>
<g>
</g>
<g>
</g>
<g>
</g>
<g>
</g>
</svg>
