<?xml version="1.0" encoding="iso-8859-1"?>
<!-- Generator: Adobe Illustrator 19.0.0, SVG Export Plug-In . SVG Version: 6.00 Build 0)  -->
<svg version="1.1" id="Layer_1" xmlns="http://www.w3.org/2000/svg" xmlns:xlink="http://www.w3.org/1999/xlink" x="0px" y="0px"
	 viewBox="0 0 512.002 512.002" style="enable-background:new 0 0 512.002 512.002;" xml:space="preserve">
<rect x="72.095" y="85.097" style="fill:#F95428;" width="46.98" height="196.915"/>
<rect x="96.526" y="85.097" style="fill:#E03F20;" width="22.546" height="196.915"/>
<rect x="391.81" y="85.097" style="fill:#F95428;" width="46.98" height="196.915"/>
<g>
	<rect x="416.244" y="85.097" style="fill:#E03F20;" width="22.546" height="196.915"/>
	<rect x="72.095" y="240.586" style="fill:#E03F20;" width="46.98" height="41.427"/>
	<rect x="391.81" y="240.586" style="fill:#E03F20;" width="46.98" height="41.427"/>
</g>
<g>
	<path style="fill:#E6E6E6;" d="M146.349,24.894L146.349,24.894c-15.062,0-27.274,12.21-27.274,27.274v262.762
		c0,15.062,12.21,27.274,27.274,27.274l0,0c15.062,0,27.274-12.21,27.274-27.274V52.166
		C173.623,37.104,161.412,24.894,146.349,24.894z"/>
	<path style="fill:#E6E6E6;" d="M200.896,24.894L200.896,24.894c-15.062,0-27.274,12.21-27.274,27.274v262.762
		c0,15.062,12.21,27.274,27.274,27.274l0,0c15.062,0,27.274-12.21,27.274-27.274V52.166
		C228.17,37.104,215.959,24.894,200.896,24.894z"/>
	<path style="fill:#E6E6E6;" d="M255.444,24.894L255.444,24.894c-15.062,0-27.274,12.21-27.274,27.274v262.762
		c0,15.062,12.21,27.274,27.274,27.274l0,0c15.062,0,27.274-12.21,27.274-27.274V52.166
		C282.717,37.104,270.507,24.894,255.444,24.894z"/>
	<path style="fill:#E6E6E6;" d="M309.991,24.894L309.991,24.894c-15.062,0-27.274,12.21-27.274,27.274v262.762
		c0,15.062,12.21,27.274,27.274,27.274l0,0c15.062,0,27.274-12.21,27.274-27.274V52.166
		C337.265,37.104,325.054,24.894,309.991,24.894z"/>
	<path style="fill:#E6E6E6;" d="M364.538,24.894L364.538,24.894c-15.062,0-27.274,12.21-27.274,27.274v320.13h54.548V52.166
		C391.812,37.104,379.601,24.894,364.538,24.894z"/>
</g>
<g>
	<path style="fill:#CCCCCC;" d="M141.052,314.928V52.166c0-15.062,2.371-27.274,5.298-27.274c-15.064,0-27.274,12.211-27.274,27.274
		v262.762c0,15.062,12.211,27.274,27.274,27.274C143.423,342.202,141.052,329.99,141.052,314.928z"/>
	<path style="fill:#CCCCCC;" d="M195.6,314.928V52.166c0-15.062,2.371-27.274,5.298-27.274c-15.064,0-27.274,12.211-27.274,27.274
		v262.762c0,15.062,12.211,27.274,27.274,27.274C197.971,342.202,195.6,329.99,195.6,314.928z"/>
	<path style="fill:#CCCCCC;" d="M250.146,314.928V52.166c0-15.062,2.371-27.274,5.298-27.274c-15.064,0-27.274,12.211-27.274,27.274
		v262.762c0,15.062,12.211,27.274,27.274,27.274C252.519,342.202,250.146,329.99,250.146,314.928z"/>
	<path style="fill:#CCCCCC;" d="M304.694,314.928V52.166c0-15.062,2.371-27.274,5.298-27.274c-15.064,0-27.274,12.211-27.274,27.274
		v262.762c0,15.062,12.211,27.274,27.274,27.274C307.065,342.202,304.694,329.99,304.694,314.928z"/>
	<path style="fill:#CCCCCC;" d="M359.242,374.316V52.166c0-15.062,2.371-27.274,5.298-27.274c-15.064,0-27.274,12.211-27.274,27.274
		v322.149C337.265,389.378,359.242,389.378,359.242,374.316z"/>
</g>
<polyline style="fill:#F95428;" points="391.809,404.277 379.198,503.96 349.869,503.96 337.259,404.277 "/>
<polygon style="fill:#E03F20;" points="337.259,404.277 349.869,503.96 362.409,503.96 360.582,404.277 "/>
<rect x="323.895" y="372.296" style="fill:#F95428;" width="81.276" height="31.976"/>
<rect x="323.895" y="372.296" style="fill:#E03F20;" width="29.284" height="31.976"/>
<path d="M72.653,38.059c4.601,0,8.33-3.73,8.33-8.33V8.33c0-4.6-3.728-8.33-8.33-8.33s-8.33,3.73-8.33,8.33v21.4
	C64.323,34.33,68.051,38.059,72.653,38.059z"/>
<path d="M439.349,0c-4.601,0-8.33,3.73-8.33,8.33v68.142h-30.32V51.877c0-19.632-15.972-35.604-35.604-35.604
	c-10.94,0-20.738,4.962-27.275,12.75c-6.536-7.788-16.335-12.75-27.274-12.75s-20.737,4.962-27.274,12.75
	c-6.536-7.788-16.335-12.75-27.274-12.75s-20.738,4.962-27.274,12.75c-6.536-7.788-16.335-12.75-27.275-12.75
	c-10.939,0-20.737,4.962-27.274,12.75c-6.536-7.788-16.335-12.75-27.274-12.75c-19.632,0-35.604,15.971-35.604,35.604v24.595H80.982
	V56.386c0-4.6-3.728-8.33-8.33-8.33s-8.33,3.73-8.33,8.33v301.8c0,4.6,3.728,8.33,8.33,8.33s8.33-3.73,8.33-8.33v-68.142h30.321
	v24.595c0,19.632,15.972,35.604,35.604,35.604c10.939,0,20.737-4.963,27.274-12.751c6.536,7.788,16.335,12.751,27.274,12.751
	c10.94,0,20.738-4.963,27.275-12.751c6.536,7.788,16.335,12.751,27.274,12.751s20.737-4.963,27.274-12.751
	c6.536,7.788,16.335,12.751,27.274,12.751c6.959,0,13.453-2.015,18.944-5.48v18.915h-5.034c-4.601,0-8.33,3.73-8.33,8.33v31.976
	c0,4.6,3.728,8.33,8.33,8.33h6.016l11.689,92.404c0.526,4.163,4.067,7.285,8.263,7.285h29.329c4.196,0,7.738-3.122,8.263-7.285
	l4.416-34.904c0.579-4.564-2.654-8.732-7.218-9.309c-4.558-0.575-8.731,2.654-9.309,7.219l-3.494,27.619h-14.647l-10.504-83.028
	h35.652l-2.912,23.017c-0.579,4.564,2.654,8.732,7.218,9.309c0.354,0.044,0.707,0.067,1.056,0.067c4.134,0,7.72-3.076,8.253-7.286
	l3.176-25.107h6.026c4.601,0,8.33-3.729,8.33-8.33v-31.979c0-4.6-3.728-8.33-8.33-8.33H400.7v-73.634h30.32v68.142
	c0,4.6,3.728,8.33,8.33,8.33c4.601,0,8.33-3.73,8.33-8.33V8.33C447.678,3.73,443.95,0,439.349,0z M80.982,273.384V93.131h30.321
	v180.251H80.982V273.384z M201.453,333.582c-10.446,0-18.944-8.499-18.944-18.944V120.801c0-4.6-3.728-8.33-8.33-8.33
	s-8.33,3.73-8.33,8.33v193.837c0,10.445-8.497,18.944-18.944,18.944s-18.944-8.499-18.944-18.944V51.877
	c0-10.446,8.497-18.944,18.944-18.944s18.944,8.497,18.944,18.944v42.27c0,4.6,3.728,8.33,8.33,8.33s8.33-3.73,8.33-8.33v-42.27
	c0-10.446,8.497-18.944,18.944-18.944c10.447,0,18.945,8.497,18.945,18.944v262.76C220.398,325.084,211.9,333.582,201.453,333.582z
	 M256.002,333.582c-10.446,0-18.944-8.499-18.944-18.944V51.877c0-10.446,8.497-18.944,18.944-18.944s18.944,8.497,18.944,18.944
	v262.76C274.945,325.084,266.447,333.582,256.002,333.582z M397.405,380.337v15.317h-64.619v-15.317h5.034h54.548H397.405z
	 M346.151,363.677v-94.349c0-4.6-3.728-8.33-8.33-8.33c-4.601,0-8.33,3.73-8.33,8.33v45.311c0,10.446-8.497,18.944-18.944,18.944
	c-10.447,0-18.944-8.499-18.944-18.944V51.877c0-10.446,8.497-18.944,18.944-18.944c10.447,0,18.944,8.497,18.944,18.944v190.796
	c0,4.6,3.728,8.33,8.33,8.33c4.601,0,8.33-3.73,8.33-8.33V51.877c0-10.446,8.499-18.944,18.945-18.944s18.944,8.497,18.944,18.944
	v311.8H346.151z M400.7,273.384V93.131h30.32v180.251H400.7V273.384z"/>
<g>
</g>
<g>
</g>
<g>
</g>
<g>
</g>
<g>
</g>
<g>
</g>
<g>
</g>
<g>
</g>
<g>
</g>
<g>
</g>
<g>
</g>
<g>
</g>
<g>
</g>
<g>
</g>
<g>
</g>
</svg>
