<?xml version="1.0" encoding="iso-8859-1"?>
<!-- Generator: Adobe Illustrator 19.0.0, SVG Export Plug-In . SVG Version: 6.00 Build 0)  -->
<svg version="1.1" id="Layer_1" xmlns="http://www.w3.org/2000/svg" xmlns:xlink="http://www.w3.org/1999/xlink" x="0px" y="0px"
	 viewBox="0 0 512 512" style="enable-background:new 0 0 512 512;" xml:space="preserve">
<rect x="224.846" y="9.225" style="fill:#F95428;" width="61.118" height="31.949"/>
<rect x="224.846" y="9.225" style="fill:#E03F20;" width="21.894" height="31.949"/>
<path style="fill:#F95428;" d="M322.814,41.174V96.48c0,79.327-42.029,88.836-67.405,88.836s-67.405-26.149-67.405-88.848V41.174
	h36.847h61.118C285.967,41.174,322.814,41.174,322.814,41.174z"/>
<path style="fill:#E03F20;" d="M220.095,96.468V41.174h-32.092v55.294c0,62.698,42.029,88.848,67.405,88.848
	c5.653,0,12.132-0.475,18.789-2.085C249.683,175.942,220.095,149.076,220.095,96.468z"/>
<polygon style="fill:#F95428;" points="390.909,133.944 390.909,169.721 364.902,169.721 145.915,169.721 119.909,169.721 
	119.909,133.944 156.945,133.944 353.872,133.944 "/>
<polygon style="fill:#E03F20;" points="186.47,133.944 186.47,169.721 180.083,169.721 126.296,169.721 119.909,169.721 
	119.909,133.944 129.006,133.944 177.374,133.944 "/>
<path style="fill:#F95428;" d="M322.814,96.48c12.932,9.984,23.594,22.785,31.058,37.465H156.945
	c7.464-14.679,18.114-27.48,31.058-37.476c18.649-14.394,42.029-22.964,67.405-22.964S304.165,82.074,322.814,96.48z"/>
<path style="fill:#E03F20;" d="M156.945,133.944h59.43c2.96-14.679,7.181-27.48,12.313-37.476
	c7.393-14.394,16.662-22.964,26.721-22.964c-25.377,0-48.756,8.57-67.405,22.964C175.06,106.464,164.41,119.265,156.945,133.944z"/>
<g>
	<path style="fill:#F95428;" d="M255.409,255.752c12.124,0,21.953,9.83,21.953,21.953c0,12.136-9.83,21.965-21.953,21.965
		c-12.136,0-21.965-9.83-21.965-21.965C233.443,265.581,243.273,255.752,255.409,255.752z"/>
	<path style="fill:#F95428;" d="M255.409,219.155c32.342,0,58.55,26.209,58.55,58.55s-26.209,58.562-58.55,58.562
		s-58.562-26.22-58.562-58.562S223.067,219.155,255.409,219.155z M277.362,277.705c0-12.124-9.83-21.953-21.953-21.953
		c-12.136,0-21.965,9.83-21.965,21.953c0,12.136,9.83,21.965,21.965,21.965C267.532,299.67,277.362,289.841,277.362,277.705z"/>
</g>
<g>
	<rect x="59.29" y="247.157" style="fill:#E03F20;" width="31.961" height="61.106"/>
	<polygon style="fill:#E03F20;" points="145.012,219.155 145.012,336.267 91.252,336.267 91.252,308.264 91.252,247.158 
		91.252,219.155 	"/>
</g>
<g>
	<rect x="419.562" y="247.157" style="fill:#F95428;" width="31.949" height="61.106"/>
	<polygon style="fill:#F95428;" points="419.566,308.264 419.566,336.267 365.806,336.267 365.806,219.155 419.566,219.155 
		419.566,247.158 	"/>
</g>
<rect x="116.209" y="459.024" style="fill:#E6E6E6;" width="278.393" height="44.37"/>
<rect x="116.209" y="459.024" style="fill:#B3B3B3;" width="70.258" height="44.37"/>
<path style="fill:#F95428;" d="M365.806,336.267v122.746H145.012V336.267V219.155v-35.254c0-4.802,0.309-9.533,0.903-14.18h218.987
	c0.594,4.647,0.903,9.378,0.903,14.18v35.254L365.806,336.267L365.806,336.267z"/>
<g>
	<path style="fill:#E03F20;" d="M199.545,336.267v122.746h-54.533V336.267V219.155v-35.254c0-4.802,0.076-9.533,0.223-14.18h54.087
		c0.147,4.647,0.223,9.378,0.223,14.18v35.254v117.112H199.545z"/>
	<path style="fill:#E03F20;" d="M277.362,277.705c0,12.136-9.83,21.965-21.953,21.965c-12.136,0-21.965-9.83-21.965-21.965
		c0-12.124,9.83-21.953,21.965-21.953C267.532,255.752,277.362,265.581,277.362,277.705z"/>
</g>
<path d="M452.112,237.933h-23.035v-19.089c0-4.923-3.99-8.914-8.914-8.914h-44.846c0,0-0.052-29.848-0.13-31.605h16.318
	c4.924,0,8.914-3.991,8.914-8.914v-35.777c0-4.923-3.99-8.914-8.914-8.914h-31.727c-7.079-12.429-16.451-23.633-27.453-32.81V40.864
	c0-4.923-3.99-8.914-8.914-8.914h-27.932V8.914c0-4.923-3.99-8.914-8.914-8.914h-61.118c-4.924,0-8.914,3.991-8.914,8.914v23.035
	H188.6c-4.924,0-8.914,3.991-8.914,8.914v25.48c0,4.923,3.99,8.914,8.914,8.914s8.914-3.991,8.914-8.914V49.778h27.932h61.118
	h27.932v29.816c-17.756-10.047-37.68-15.315-58.491-15.315c-26.621,0-51.813,8.583-72.854,24.823
	c-12.504,9.656-23.104,21.894-30.919,35.617h-31.727c-4.924,0-8.914,3.991-8.914,8.914v35.777c0,4.923,3.99,8.914,8.914,8.914
	h16.318c-0.077,1.758-0.13,31.605-0.13,31.605H91.848c-4.924,0-8.914,3.991-8.914,8.914v19.089H59.887
	c-4.924,0-8.914,3.991-8.914,8.914v61.106c0,4.923,3.99,8.914,8.914,8.914h23.047v19.089c0,4.923,3.99,8.914,8.914,8.914h44.846
	v20.8c0,4.923,3.99,8.914,8.914,8.914c4.924,0,8.914-3.991,8.914-8.914v-29.715c0,0,0.058-155.875,0.149-157.632h202.668
	c0.09,1.757,0.149,271.464,0.149,271.464H154.523v-53.808c0-4.923-3.99-8.914-8.914-8.914c-4.924,0-8.914,3.991-8.914,8.914v53.82
	h-19.885c-4.924,0-8.914,3.991-8.914,8.914v44.37c0,4.923,3.99,8.914,8.914,8.914h278.394c4.924,0,8.914-3.991,8.914-8.914v-44.37
	c0-4.923-3.99-8.914-8.914-8.914h-19.885V344.871h44.846c4.924,0,8.914-3.991,8.914-8.914v-19.089h23.035
	c4.924,0,8.914-3.991,8.914-8.914v-61.106C461.026,241.925,457.036,237.933,452.112,237.933z M277.65,31.949h-43.289V17.829h43.289
	V31.949z M68.801,299.039v-43.277h14.132v43.277H68.801z M100.763,227.759h35.931v99.283h-35.931
	C100.763,327.042,100.763,227.759,100.763,227.759z M129.42,142.548h166.998c4.924,0,8.914-3.991,8.914-8.914
	c0-4.923-3.99-8.914-8.914-8.914H173.369c5.803-8.119,12.794-15.417,20.677-21.505c17.891-13.808,39.315-21.106,61.959-21.106
	c22.649,0,44.072,7.302,61.958,21.118c7.884,6.088,14.875,13.381,20.676,21.493h-14.488c-4.924,0-8.914,3.991-8.914,8.914
	c0,4.923,3.99,8.914,8.914,8.914h58.44v17.948H129.42L129.42,142.548L129.42,142.548z M386.287,494.171H125.723V467.63h260.565
	v26.541H386.287z M411.248,327.042h-35.931v-99.283h35.931v19.089v61.106V327.042z M443.197,299.039h-14.121v-43.277h14.121V299.039
	z"/>
<path d="M279.203,214.025c-7.425-2.717-15.229-4.096-23.199-4.096c-37.207,0-67.477,30.264-67.477,67.465
	c0,37.207,30.27,67.477,67.477,67.477c37.201,0,67.465-30.27,67.465-67.477c0-18.023-7.016-34.965-19.757-47.707
	c-3.481-3.481-9.126-3.483-12.606,0c-3.483,3.481-3.483,9.125-0.001,12.606c9.374,9.374,14.535,21.84,14.535,35.1
	c0,27.376-22.266,49.648-49.636,49.648c-27.376,0-49.648-22.272-49.648-49.648c0-27.37,22.271-49.636,49.648-49.636
	c5.872,0,11.615,1.013,17.069,3.008c4.628,1.694,9.744-0.685,11.436-5.307C286.203,220.837,283.827,215.717,279.203,214.025z"/>
<path d="M256.005,246.527c-17.027,0-30.88,13.847-30.88,30.868c0,17.027,13.853,30.88,30.88,30.88
	c17.02,0,30.868-13.853,30.868-30.88C286.873,260.374,273.025,246.527,256.005,246.527z M256.005,290.446
	c-7.197,0-13.051-5.855-13.051-13.051c0-7.19,5.855-13.039,13.051-13.039c7.19,0,13.039,5.849,13.039,13.039
	C269.044,284.591,263.195,290.446,256.005,290.446z"/>
<g>
</g>
<g>
</g>
<g>
</g>
<g>
</g>
<g>
</g>
<g>
</g>
<g>
</g>
<g>
</g>
<g>
</g>
<g>
</g>
<g>
</g>
<g>
</g>
<g>
</g>
<g>
</g>
<g>
</g>
</svg>
