<?xml version="1.0" encoding="iso-8859-1"?>
<!-- Generator: Adobe Illustrator 19.0.0, SVG Export Plug-In . SVG Version: 6.00 Build 0)  -->
<svg version="1.1" id="Layer_1" xmlns="http://www.w3.org/2000/svg" xmlns:xlink="http://www.w3.org/1999/xlink" x="0px" y="0px"
	 viewBox="0 0 512.002 512.002" style="enable-background:new 0 0 512.002 512.002;" xml:space="preserve">
<polyline style="fill:#F7B239;" points="337.069,369.416 46.739,503.647 30.691,468.938 321.021,334.707 "/>
<polyline style="fill:#E09B2D;" points="328.435,350.743 38.105,484.973 30.691,468.938 321.021,334.707 "/>
<path style="fill:#E03F20;" d="M401.17,368.213c-4.894,2.262-10.93,4.005-17.486,5.113c-23.638,4.04-54.097-0.115-62.258-17.752
	c-10.411-22.518,19.518-58.518,42.036-68.929c11.669-5.39,24.458-5.355,35.526-0.935c10.284,4.097,19.09,12.004,24.111,22.865
	C433.51,331.094,423.7,357.791,401.17,368.213z"/>
<g>
	<path style="fill:#F95428;" d="M401.17,368.213c-4.894,2.262-10.93,4.005-17.486,5.113c-13.158-2.412-24.411-8.033-28.901-17.752
		c-10.411-22.518,19.506-58.518,42.036-68.929c0.716-0.335,1.443-0.646,2.17-0.935c10.284,4.097,19.09,12.004,24.111,22.865
		C433.51,331.094,423.7,357.791,401.17,368.213z"/>
	<path style="fill:#F95428;" d="M360.16,8.96c0,119.122-84.302,98.962-82.469,179.598c0.814,35.779,24.654,59.537,55.702,70.529
		c8.858,3.136,16.91-6.349,12.552-14.673c-12.795-24.44-21.266-64.189,28.876-98.005c2.265,45.854,40.317,53.146,40.317,86.135
		c0,4.164-0.263,7.919-0.723,11.3c-1.105,8.131,7.343,14.236,14.756,10.717c26.096-12.387,46.192-34.829,50.108-67.832
		C492.109,78.6,360.16,8.96,360.16,8.96z"/>
</g>
<path d="M401.391,276.833c-13.435-4.94-27.988-4.352-40.979,1.655c-12.935,5.98-27.065,18.581-36.874,32.887
	c-3.9,5.688-6.874,11.296-8.93,16.727l-50.993,23.576c-4.34,2.006-6.23,7.15-4.224,11.49c1.462,3.164,4.593,5.025,7.864,5.025
	c1.215,0,2.452-0.257,3.628-0.801l40.524-18.736c0.361,3.618,1.27,7.053,2.749,10.254c1.481,3.202,3.51,6.121,6.034,8.74
	L51.542,491.856l-8.781-18.995l200.389-92.648c4.34-2.006,6.23-7.15,4.224-11.49c-2.006-4.34-7.15-6.232-11.49-4.224l-208.246,96.28
	c-4.34,2.006-6.23,7.15-4.224,11.49l16.047,34.709c0.963,2.083,2.716,3.7,4.87,4.492c0.966,0.355,1.977,0.532,2.987,0.532
	c1.243,0,2.483-0.268,3.632-0.799l286.974-132.679c5.467,1.951,11.666,3.317,18.524,4.029c3.607,0.375,7.278,0.557,10.949,0.557
	c13.89,0,27.761-2.617,37.992-7.346c12.992-6.006,22.867-16.713,27.806-30.147s4.351-27.988-1.655-40.979
	C425.531,291.648,414.825,281.773,401.391,276.833z M416.943,339.644c-3.344,9.093-10.028,16.34-18.823,20.406
	c-9.958,4.605-25.988,6.724-39.886,5.284c-14.714-1.529-25.053-6.518-28.368-13.689c-3.315-7.171-0.418-18.279,7.948-30.479
	c7.903-11.524,19.903-22.359,29.863-26.963c4.848-2.241,10.016-3.368,15.202-3.368c4.222,0,8.456,0.747,12.537,2.247
	c9.093,3.344,16.34,10.028,20.406,18.823C419.888,320.701,420.287,330.55,416.943,339.644z"/>
<path d="M478.515,118.309c-1.824-4.419-6.885-6.524-11.303-4.701c-4.419,1.824-6.524,6.884-4.701,11.303
	c8.21,19.898,11.154,40.252,8.752,60.493c-4.111,34.653-26.862,52.316-45.224,61.032c-0.77,0.365-1.397,0.102-1.787-0.182
	c-0.538-0.394-0.766-0.914-0.68-1.548c0.532-3.91,0.801-8.105,0.801-12.467c0-18.554-9.856-30.216-19.386-41.495
	c-10.223-12.097-19.878-23.523-20.942-45.067c-0.154-3.12-1.977-5.915-4.771-7.314c-2.795-1.398-6.125-1.183-8.714,0.564
	c-57.149,38.542-44.394,84.958-31.705,109.197c0.375,0.716,0.291,1.394-0.249,2.016c-0.731,0.843-1.467,0.581-1.745,0.482
	c-31.081-11.004-49.282-33.808-49.936-62.566c-0.744-32.735,13.738-46.288,32.075-63.446
	c20.751-19.418,46.191-43.223,49.928-101.027c18.09,11.477,52.422,36.071,76.474,70.467c2.74,3.92,8.139,4.872,12.054,2.134
	c3.918-2.74,4.873-8.137,2.134-12.054c-36.259-51.851-92.438-81.878-94.812-83.13c-2.684-1.416-5.913-1.324-8.51,0.242
	c-2.598,1.566-4.186,4.379-4.186,7.413c0,61.287-22.832,82.652-44.912,103.314c-18.915,17.7-38.474,36.002-37.554,76.481
	c0.826,36.346,23.229,64.955,61.467,78.491c2.086,0.739,4.228,1.096,6.345,1.096c5.368,0,10.571-2.305,14.259-6.557
	c5.192-5.987,6.176-14.381,2.507-21.389c-15.681-29.953-10.714-56.208,14.734-78.212c4.422,18.244,14.446,30.106,22.837,40.036
	c8.547,10.114,15.297,18.102,15.297,30.321c0,3.584-0.217,6.993-0.644,10.135c-0.937,6.893,1.983,13.735,7.618,17.855
	c5.661,4.14,13.107,4.846,19.429,1.847c31.528-14.965,51.058-41.472,54.992-74.633C491.21,164.234,487.865,140.973,478.515,118.309z
	"/>
<g>
</g>
<g>
</g>
<g>
</g>
<g>
</g>
<g>
</g>
<g>
</g>
<g>
</g>
<g>
</g>
<g>
</g>
<g>
</g>
<g>
</g>
<g>
</g>
<g>
</g>
<g>
</g>
<g>
</g>
</svg>
