<?xml version="1.0" encoding="iso-8859-1"?>
<!-- Generator: Adobe Illustrator 19.0.0, SVG Export Plug-In . SVG Version: 6.00 Build 0)  -->
<svg version="1.1" id="Layer_1" xmlns="http://www.w3.org/2000/svg" xmlns:xlink="http://www.w3.org/1999/xlink" x="0px" y="0px"
	 viewBox="0 0 512 512" style="enable-background:new 0 0 512 512;" xml:space="preserve">
<polyline style="fill:#E6E6E6;" points="410.269,153.732 410.269,9.564 100.494,9.564 100.494,153.732 "/>
<rect x="80.048" y="153.731" style="fill:#F95428;" width="350.666" height="349.347"/>
<rect x="117.021" y="190.7" style="fill:#E6E6E6;" width="276.727" height="275.409"/>
<g>
	<path style="fill:#F95428;" d="M241.705,236.955c0,86.895-61.495,72.19-60.158,131.011c0.755,33.21,28.708,52.223,60.081,55.917
		c-7.518-8.69-40.688-51.959,10.772-86.665c1.651,33.45,29.41,38.768,29.41,62.832c0,10.133-2.136,16.938-4.605,21.432
		c25.89-6.768,47.831-24.814,51.395-54.853C337.958,287.754,241.705,236.955,241.705,236.955z"/>
	<path style="fill:#F95428;" d="M349.646,46.532c17.351,0,31.424,14.073,31.424,31.424c0,10.844-5.496,20.395-13.851,26.051
		c-5.016,3.389-11.066,5.373-17.573,5.373s-12.545-1.972-17.548-5.348v-0.012c-8.367-5.644-13.876-15.219-13.876-26.063
		C318.222,60.605,332.295,46.532,349.646,46.532z"/>
	<path style="fill:#F95428;" d="M304.371,104.019c-5.016,3.389-11.054,5.361-17.573,5.361c-6.507,0-12.545-1.972-17.548-5.348
		v-0.012c-8.367-5.644-13.863-15.219-13.863-26.063c0-17.351,14.061-31.424,31.412-31.424c17.363,0,31.424,14.073,31.424,31.424
		C318.222,88.8,312.726,98.363,304.371,104.019z"/>
	<path style="fill:#F95428;" d="M241.523,104.032c-5.016,3.377-11.054,5.348-17.56,5.348s-12.545-1.972-17.56-5.348v-0.012
		c-8.367-5.644-13.863-15.219-13.863-26.063c0-17.351,14.061-31.424,31.424-31.424c17.351,0,31.424,14.073,31.424,31.424
		C255.387,88.8,249.879,98.375,241.523,104.032z"/>
	<path style="fill:#F95428;" d="M178.676,104.032c-5.016,3.377-11.054,5.348-17.56,5.348s-12.545-1.972-17.56-5.348v-0.012
		c-8.355-5.644-13.863-15.219-13.863-26.063c0-17.351,14.073-31.424,31.424-31.424s31.424,14.073,31.424,31.424
		C192.539,88.8,187.031,98.375,178.676,104.032z"/>
</g>
<g>
	<path style="fill:#F7B239;" d="M367.219,104.007v49.724h-35.121v-49.699c5.003,3.377,11.041,5.348,17.548,5.348
		S362.204,107.396,367.219,104.007z"/>
	<path style="fill:#F7B239;" d="M304.371,104.019v49.711H269.25v-49.699c5.003,3.377,11.042,5.348,17.548,5.348
		C293.317,109.38,299.356,107.408,304.371,104.019z"/>
	<path style="fill:#F7B239;" d="M241.523,104.032v49.699h-35.121v-49.699c5.016,3.377,11.054,5.348,17.56,5.348
		S236.508,107.408,241.523,104.032z"/>
	<path style="fill:#F7B239;" d="M178.676,104.032v49.699h-35.121v-49.699c5.016,3.377,11.054,5.348,17.56,5.348
		S173.66,107.408,178.676,104.032z"/>
</g>
<path d="M213.875,323.356c14.922-13.965,33.089-30.964,36.947-70.688c13.209,8.809,33.986,24.678,49.413,45.907
	c3.003,4.131,8.785,5.043,12.911,2.043c4.129-3.002,5.044-8.78,2.043-12.911c-26.887-36.996-66.864-58.358-68.552-59.249
	c-2.864-1.511-6.309-1.415-9.087,0.259c-2.774,1.672-4.47,4.675-4.47,7.915c0,43.436-16.184,58.58-31.835,73.226
	c-14.268,13.351-29.021,27.158-28.32,57.995c0.414,18.207,7.955,34.065,21.808,45.855c11.926,10.151,28.416,16.91,46.432,19.031
	c0.364,0.043,0.725,0.063,1.083,0.063c3.391,0,6.548-1.867,8.164-4.914c1.786-3.37,1.319-7.491-1.177-10.375
	c-4.122-4.764-17.378-21.759-14.895-40.442c1.1-8.28,5.274-16.066,12.451-23.254c3.77,11.297,10.329,19.058,15.928,25.683
	c6.685,7.91,10.467,12.751,10.467,20.227c0,6.988-1.198,12.859-3.463,16.979c-1.778,3.236-1.462,7.22,0.808,10.133
	c2.271,2.913,6.057,4.196,9.628,3.261c32.824-8.582,54.594-32.023,58.235-62.706c2.152-18.143-0.648-36.295-8.327-53.953
	c-2.036-4.68-7.48-6.826-12.16-4.79c-4.682,2.035-6.826,7.48-4.791,12.162c6.354,14.615,8.683,29.554,6.921,44.404
	c-1.083,9.128-6.077,29.037-28.639,40.934c0.18-2.068,0.271-4.21,0.271-6.423c0-14.605-7.881-23.93-14.833-32.158
	c-7.128-8.435-13.861-16.403-14.588-31.129c-0.165-3.332-2.112-6.316-5.096-7.809c-2.983-1.492-6.54-1.262-9.304,0.603
	c-18.806,12.683-29.516,27.959-31.834,45.403c-1.693,12.749,1.499,24.577,5.855,34.096c-16.259-6.958-29.986-20.145-30.466-41.3
	C190.893,344.863,200.533,335.841,213.875,323.356z"/>
<path d="M431.336,144.173h-11.207V9.242c0-5.104-4.137-9.242-9.242-9.242H101.113c-5.105,0-9.242,4.138-9.242,9.242v118.929
	c0,5.104,4.137,9.242,9.242,9.242s9.242-4.138,9.242-9.242V18.485h291.29v125.688h-24.566v-35.981
	c6.128-5.378,10.526-12.466,12.57-20.405c1.273-4.943-1.703-9.982-6.646-11.255c-4.948-1.272-9.983,1.703-11.255,6.646
	c-1.347,5.23-4.577,9.793-9.086,12.847c-3.67,2.478-7.957,3.789-12.4,3.789c-4.409,0-8.653-1.284-12.284-3.708
	c-0.033-0.023-0.063-0.049-0.096-0.073c-6.137-4.139-9.802-11.018-9.802-18.401c0-12.231,9.951-22.182,22.182-22.182
	c5.925,0,11.495,2.309,15.686,6.502c3.609,3.609,9.46,3.611,13.071,0.002c3.609-3.608,3.611-9.46,0.002-13.07
	c-7.682-7.686-17.896-11.918-28.76-11.918c-12.645,0-23.96,5.803-31.424,14.884c-7.464-9.081-18.779-14.884-31.424-14.884
	c-12.641,0-23.951,5.802-31.413,14.883c-7.464-9.081-18.778-14.883-31.423-14.883c-12.645,0-23.96,5.803-31.424,14.884
	c-7.464-9.081-18.779-14.884-31.424-14.884c-22.423,0-40.666,18.243-40.666,40.666c0,11.806,5.105,22.905,13.863,30.581v35.958
	H80.665c-5.105,0-9.242,4.138-9.242,9.242v349.343c0,5.104,4.137,9.242,9.242,9.242h350.67c5.105,0,9.242-4.138,9.242-9.242V153.415
	C440.578,148.311,436.44,144.173,431.336,144.173z M358.594,117.424v26.742h-16.636v-26.735c2.712,0.562,5.49,0.869,8.306,0.869
	C353.088,118.3,355.873,117.992,358.594,117.424z M323.473,108.219v35.954h-9.242V108.21c1.678-1.474,3.213-3.08,4.613-4.785
	C320.248,105.134,321.789,106.744,323.473,108.219z M216.262,117.429c2.717,0.564,5.499,0.871,8.318,0.871s5.601-0.307,8.318-0.871
	v26.737h-16.636V117.429z M251.383,108.223c1.682-1.475,3.219-3.084,4.62-4.792c1.402,1.707,2.94,3.315,4.622,4.788v35.955h-9.242
	V108.223z M287.417,118.3c2.824,0,5.609-0.307,8.33-0.872v26.739h-16.636v-26.735C281.822,117.994,284.6,118.3,287.417,118.3z
	 M287.417,55.453c12.231,0,22.182,9.951,22.182,22.182c0,7.378-3.66,14.26-9.782,18.405c-3.657,2.471-7.945,3.777-12.399,3.777
	c-4.446,0-8.727-1.303-12.377-3.767l-0.002-0.014c-6.131-4.134-9.789-11.013-9.789-18.401
	C265.247,65.402,275.193,55.453,287.417,55.453z M224.58,55.453c12.231,0,22.182,9.951,22.182,22.182
	c0,7.38-3.665,14.266-9.782,18.408c-3.667,2.468-7.953,3.773-12.399,3.773c-4.444,0-8.732-1.305-12.398-3.772l0.006-0.009
	c-6.131-4.134-9.789-11.013-9.789-18.401C202.399,65.402,212.351,55.453,224.58,55.453z M161.733,55.453
	c12.231,0,22.182,9.951,22.182,22.182c0,7.38-3.665,14.266-9.782,18.408c-3.667,2.468-7.953,3.773-12.4,3.773
	c-4.441,0-8.727-1.304-12.393-3.768l0.006-0.009c-6.133-4.143-9.794-11.023-9.794-18.405
	C139.551,65.402,149.503,55.453,161.733,55.453z M153.415,117.429c2.717,0.564,5.499,0.871,8.318,0.871
	c2.82,0,5.601-0.307,8.318-0.871v26.737h-16.636V117.429z M188.535,108.223c1.682-1.475,3.219-3.084,4.62-4.792
	c1.402,1.707,2.94,3.315,4.622,4.788v35.955h-9.242V108.223z M422.094,493.515H89.907V162.657h332.185v330.858H422.094z"/>
<path d="M117.636,475.029h276.731c5.105,0,9.242-4.138,9.242-9.242V190.384c0-5.104-4.137-9.242-9.242-9.242H117.636
	c-5.105,0-9.242,4.138-9.242,9.242v43.765c0,5.104,4.137,9.242,9.242,9.242s9.242-4.138,9.242-9.242v-34.523h258.246v256.919
	H126.878V264.959c0-5.104-4.137-9.242-9.242-9.242s-9.242,4.138-9.242,9.242v200.829
	C108.393,470.893,112.531,475.029,117.636,475.029z"/>
<g>
</g>
<g>
</g>
<g>
</g>
<g>
</g>
<g>
</g>
<g>
</g>
<g>
</g>
<g>
</g>
<g>
</g>
<g>
</g>
<g>
</g>
<g>
</g>
<g>
</g>
<g>
</g>
<g>
</g>
</svg>
