<?xml version="1.0" encoding="iso-8859-1"?>
<!-- Generator: Adobe Illustrator 19.0.0, SVG Export Plug-In . SVG Version: 6.00 Build 0)  -->
<svg version="1.1" id="Layer_1" xmlns="http://www.w3.org/2000/svg" xmlns:xlink="http://www.w3.org/1999/xlink" x="0px" y="0px"
	 viewBox="0 0 512 512" style="enable-background:new 0 0 512 512;" xml:space="preserve">
<circle style="fill:#E6E6E6;" cx="255.396" cy="255.433" r="219.691"/>
<g>
	<path style="fill:#F95428;" d="M316.533,161.945L153.612,324.866c-2.547-7.484-4.032-15.644-4.225-24.456
		c-2.016-88.649,90.641-66.475,90.641-197.42C240.028,102.99,280.453,124.32,316.533,161.945z"/>
	<path style="fill:#F95428;" d="M224.408,361.803c4.792,9.15-4.068,19.579-13.797,16.127c-10.441-3.694-20.134-8.703-28.596-15.016
		l32.193-32.181C215.681,342.357,219.785,352.979,224.408,361.803z"/>
	<path style="fill:#F95428;" d="M345.962,198.978c17.901,28.137,29.489,61.634,25.011,99.416
		c-4.297,36.285-26.387,60.946-55.08,74.562c-8.148,3.875-17.442-2.849-16.223-11.781c0.507-3.718,0.797-7.846,0.797-12.421
		c0-28.198-25.301-39.315-37.71-66.583L345.962,198.978z"/>
</g>
<path style="fill:#F7B239;" d="M255.394,9.368c136.377,0,246.947,110.558,246.947,246.947s-110.57,246.947-246.947,246.947
	c-136.389,0-246.947-110.558-246.947-246.947S119.005,9.368,255.394,9.368z M454.6,256.315c0-46.545-15.958-89.361-42.707-123.268
	l-65.931,65.931l-83.205,83.193l-48.549,48.561l-32.193,32.181l-49.901,49.901c33.919,26.749,76.735,42.719,123.28,42.719
	C365.408,455.533,454.6,366.341,454.6,256.315z M316.533,161.945l62.129-62.129c-33.907-26.749-76.723-42.719-123.268-42.719
	c-110.026,0-199.218,89.192-199.218,199.218c0,46.545,15.97,89.361,42.719,123.28l54.717-54.73L316.533,161.945z"/>
<path d="M256,0C187.618,0,123.33,26.628,74.979,74.979S0,187.618,0,256s26.628,132.67,74.979,181.021S187.618,512,256,512
	c141.159,0,256-114.841,256-256S397.159,0,256,0z M256,493.894C124.825,493.894,18.106,387.175,18.106,256
	S124.825,18.106,256,18.106S493.894,124.825,493.894,256S387.175,493.894,256,493.894z"/>
<path d="M275.196,203.572c-3.537-3.536-9.268-3.536-12.804,0L159.482,306.49c-0.235-2.172-0.389-4.371-0.438-6.6
	c-0.823-36.198,15.162-51.157,35.4-70.096c22.836-21.37,50.855-47.594,54.778-111.515c13.134,8.287,34.497,23.133,55.136,43.329
	l-18.426,18.426c-3.536,3.536-3.536,9.267,0,12.802c1.768,1.768,4.086,2.652,6.402,2.652c2.316,0,4.634-0.884,6.402-2.652
	l86.935-86.935c1.829-1.829,2.788-4.352,2.636-6.932c-0.152-2.582-1.4-4.974-3.431-6.576c-17.975-14.18-37.988-25.222-59.485-32.818
	c-4.715-1.666-9.886,0.805-11.552,5.52c-1.666,4.715,0.805,9.886,5.519,11.553c16.418,5.801,31.887,13.806,46.115,23.849
	l-48.301,48.301c-34.794-34.133-70.71-53.28-72.313-54.126c-2.805-1.48-6.182-1.385-8.9,0.255c-2.717,1.638-4.378,4.58-4.378,7.753
	c0,67.569-25.169,91.122-49.508,113.899c-20.716,19.386-42.137,39.432-41.13,83.72c0.164,7.472,1.199,14.737,3.055,21.682
	l-43.508,43.506C77.784,333.369,65.835,295.728,65.835,256c0-104.858,85.308-190.165,190.165-190.165
	c9.582,0,19.206,0.719,28.604,2.137c4.947,0.746,9.558-2.656,10.303-7.601c0.746-4.944-2.657-9.557-7.601-10.303
	c-10.29-1.552-20.824-2.339-31.307-2.339c-114.841,0-208.272,93.43-208.272,208.272c0,47.266,15.445,91.834,44.662,128.886
	c1.602,2.03,3.997,3.28,6.577,3.432c0.177,0.011,0.355,0.016,0.531,0.016c2.394,0,4.7-0.949,6.402-2.652l169.295-169.307
	C278.732,212.839,278.732,207.108,275.196,203.572z"/>
<path d="M419.608,127.125c-1.602-2.03-3.995-3.278-6.576-3.431c-2.588-0.151-5.105,0.808-6.934,2.636l-279.78,279.768
	c-1.829,1.829-2.788,4.352-2.636,6.934c0.152,2.582,1.401,4.974,3.432,6.576c37.05,29.219,81.619,44.664,128.886,44.664
	c114.835,0,208.26-93.43,208.26-208.272C464.26,208.719,448.82,164.155,419.608,127.125z M216.995,365.688
	c0.631,1.208,0.167,2.152-0.336,2.73c-0.671,0.77-1.481,0.995-2.423,0.66c-6.213-2.198-12.017-4.856-17.358-7.935l12.771-12.771
	C211.521,354.133,213.971,359.919,216.995,365.688z M256,446.165c-39.731,0-77.37-11.948-109.486-34.657l37.189-37.189
	c7.419,4.72,15.62,8.691,24.487,11.827c2.243,0.797,4.548,1.183,6.825,1.182c5.765,0,11.355-2.476,15.318-7.043
	c5.585-6.437,6.645-15.464,2.699-22.999c-4.208-8.03-7.061-15.998-8.545-23.753l120.231-120.22
	c15.177,27.454,21.204,55.561,17.869,83.701c-4.535,38.299-29.678,57.817-49.976,67.451c-1.101,0.523-1.995,0.07-2.431-0.247
	c-0.509-0.372-1.084-1.044-0.934-2.135c0.583-4.283,0.88-8.873,0.88-13.644c0-20.18-10.748-32.923-20.231-44.167
	c-3.224-3.823-8.935-4.308-12.757-1.084c-3.823,3.224-4.307,8.935-1.084,12.758c9.643,11.435,15.966,19.874,15.966,32.494
	c0,3.956-0.24,7.723-0.713,11.197c-1.012,7.41,2.127,14.768,8.189,19.2c3.59,2.623,7.84,3.965,12.117,3.964
	c2.984,0,5.979-0.653,8.77-1.98c34.516-16.38,55.891-45.387,60.188-81.675c3.98-33.58-3.609-66.892-22.558-99.122l53.498-53.498
	c22.699,32.099,34.644,69.735,34.644,109.475C446.153,360.858,360.85,446.165,256,446.165z"/>
<g>
</g>
<g>
</g>
<g>
</g>
<g>
</g>
<g>
</g>
<g>
</g>
<g>
</g>
<g>
</g>
<g>
</g>
<g>
</g>
<g>
</g>
<g>
</g>
<g>
</g>
<g>
</g>
<g>
</g>
</svg>
