<?xml version="1.0" encoding="iso-8859-1"?>
<!-- Generator: Adobe Illustrator 19.0.0, SVG Export Plug-In . SVG Version: 6.00 Build 0)  -->
<svg version="1.1" id="Layer_1" xmlns="http://www.w3.org/2000/svg" xmlns:xlink="http://www.w3.org/1999/xlink" x="0px" y="0px"
	 viewBox="0 0 511.999 511.999" style="enable-background:new 0 0 511.999 511.999;" xml:space="preserve">
<g>
	<polygon style="fill:#E6E6E6;" points="502.775,8.947 406.852,135.707 376.014,104.87 	"/>
	<path style="fill:#E6E6E6;" d="M433.008,284.313c-0.611-12.646-4.092-25.557-10.767-37.765
		c-9.107-16.692-22.745-29.546-38.388-37.696c-7.274-3.804-14.986-6.571-22.883-8.242l39.483-39.483
		c6.41,3.62,12.439,8.046,17.914,13.211c6.928,6.525,12.98,14.237,17.776,23.021C452.214,226.789,449.885,260.255,433.008,284.313z"
		/>
	<polygon style="fill:#E6E6E6;" points="416.362,145.218 360.971,200.609 330.099,231.493 318.41,219.803 301.279,202.673 
		289.59,190.984 280.229,181.623 366.504,95.36 	"/>
</g>
<g>
	<path style="fill:#CCCCCC;" d="M418.368,174.337l-34.515,34.515c-7.274-3.804-14.986-6.571-22.883-8.242l39.483-39.483
		C406.863,164.746,412.892,169.173,418.368,174.337z"/>
	<polygon style="fill:#CCCCCC;" points="387.542,116.398 332.151,171.79 301.279,202.673 289.59,190.984 280.229,181.623 
		366.504,95.36 	"/>
</g>
<rect x="-37.472" y="329.755" transform="matrix(-0.7071 0.7071 -0.7071 -0.7071 525.0823 479.4781)" style="fill:#F95428;" width="401.421" height="37.464"/>
<rect x="-44.399" y="332.616" transform="matrix(-0.7071 0.7071 -0.7071 -0.7071 508.3628 472.5611)" style="fill:#E03F20;" width="401.421" height="17.9"/>
<path d="M440.638,91.523c3.809,2.882,9.23,2.13,12.111-1.677l57.498-75.983c2.605-3.442,2.272-8.278-0.78-11.331
	c-3.053-3.053-7.887-3.386-11.33-0.78L377.382,93.131l-4.185-4.185c-3.376-3.377-8.851-3.377-12.226,0l-86.275,86.263
	c-1.622,1.622-2.533,3.82-2.533,6.114c0,2.294,0.911,4.492,2.533,6.113l5.576,5.576l-76.357,76.357
	c-3.377,3.377-3.377,8.851,0,12.227c1.688,1.688,3.901,2.533,6.113,2.533c2.212,0,4.426-0.844,6.113-2.533l76.357-76.357
	l14.265,14.265L35.137,491.126l-14.263-14.263L194.526,303.21c3.377-3.376,3.377-8.851,0-12.227c-3.377-3.376-8.851-3.376-12.226,0
	L2.533,470.748c-3.377,3.376-3.377,8.851,0,12.226l26.491,26.491c1.688,1.688,3.901,2.533,6.113,2.533s4.426-0.844,6.113-2.533
	l277.738-277.737l5.576,5.576c1.621,1.622,3.82,2.533,6.114,2.533s4.492-0.912,6.114-2.534l27.451-27.455
	c21.599,5.861,40.012,20.438,50.99,40.546c5.876,10.747,9.145,22.198,9.717,34.034c0.179,3.691,2.683,6.86,6.232,7.887
	c0.795,0.231,1.604,0.341,2.402,0.341c2.769,0,5.432-1.334,7.078-3.681c19.458-27.737,20.855-64.547,3.645-96.067
	c-7.28-13.318-17.394-24.752-29.582-33.552l8.327-8.328c3.376-3.377,3.376-8.851,0-12.226l-4.185-4.185l16.768-22.159
	c2.882-3.808,2.13-9.23-1.677-12.111c-3.808-2.882-9.23-2.129-12.111,1.677l-15.324,20.25l-16.8-16.8l69.059-52.259l-19.823,26.196
	C436.079,83.219,436.831,88.641,440.638,91.523z M429.134,201.201c9.675,17.72,12.202,37.399,7.71,55.227
	c-1.738-4.877-3.885-9.658-6.436-14.323c-11.664-21.363-30.324-37.553-52.465-45.957l24.365-24.369
	C413.443,179.264,422.646,189.33,429.134,201.201z M404.713,144.917l-74.038,74.046l-37.641-37.641l74.046-74.037L404.713,144.917z"
	/>
<g>
</g>
<g>
</g>
<g>
</g>
<g>
</g>
<g>
</g>
<g>
</g>
<g>
</g>
<g>
</g>
<g>
</g>
<g>
</g>
<g>
</g>
<g>
</g>
<g>
</g>
<g>
</g>
<g>
</g>
</svg>
