<?xml version="1.0" encoding="iso-8859-1"?>
<!-- Generator: Adobe Illustrator 19.0.0, SVG Export Plug-In . SVG Version: 6.00 Build 0)  -->
<svg version="1.1" id="Layer_1" xmlns="http://www.w3.org/2000/svg" xmlns:xlink="http://www.w3.org/1999/xlink" x="0px" y="0px"
	 viewBox="0 0 512.001 512.001" style="enable-background:new 0 0 512.001 512.001;" xml:space="preserve">
<path style="fill:#F95428;" d="M110.698,358.633l144.703,144.703l144.703-144.703c79.917-79.917,79.917-209.489,0-289.406l0,0
	c-79.917-79.917-209.489-79.917-289.406,0l0,0C30.781,149.145,30.781,278.715,110.698,358.633z"/>
<circle style="fill:#E6E6E6;" cx="255.396" cy="213.934" r="144.705"/>
<path style="fill:#CCCCCC;" d="M159.808,213.931c0-79.917,42.799-144.703,95.593-144.703c-79.917,0-144.703,64.786-144.703,144.703
	s64.786,144.703,144.703,144.703C202.607,358.633,159.808,293.848,159.808,213.931z"/>
<path style="fill:#F95428;" d="M240.921,110.438c0,88.541-62.66,73.557-61.298,133.493c0.77,33.839,29.251,53.212,61.219,56.976
	c-7.661-8.855-41.458-52.944,10.976-88.306c1.683,34.083,29.968,39.503,29.968,64.022c0,10.326-2.176,17.259-4.693,21.837
	c26.38-6.897,48.737-25.283,52.368-55.892C338.997,162.201,240.921,110.438,240.921,110.438z"/>
<path d="M212.235,198.17c15.239-14.261,33.81-31.641,37.578-72.483c12.017,7.955,30.552,21.86,45.76,40.418
	c3.142,3.836,8.8,4.395,12.633,1.253c3.835-3.142,4.396-8.798,1.253-12.633c-26.973-32.915-62.259-51.752-63.747-52.538
	c-2.784-1.469-6.132-1.374-8.826,0.251c-2.694,1.624-4.341,4.541-4.341,7.688c0,44.451-16.562,59.948-32.577,74.934
	c-14.467,13.538-29.427,27.537-28.717,58.762c0.419,18.424,8.049,34.467,22.066,46.398c12.086,10.287,28.806,17.137,47.078,19.289
	c0.352,0.042,0.704,0.061,1.052,0.061c3.293,0,6.36-1.813,7.929-4.773c1.734-3.274,1.281-7.276-1.143-10.077
	c-4.231-4.889-17.834-22.335-15.281-41.555c1.16-8.73,5.629-16.918,13.323-24.453c3.78,11.807,10.578,19.853,16.365,26.702
	c6.879,8.139,10.77,13.123,10.77,20.896c0,7.195-1.239,13.251-3.581,17.513c-1.727,3.143-1.42,7.013,0.785,9.842
	c2.205,2.829,5.882,4.073,9.351,3.167c33.264-8.697,55.326-32.441,59.012-63.52c2.221-18.721-0.754-37.441-8.844-55.644
	c-2.013-4.53-7.315-6.57-11.848-4.558c-4.53,2.013-6.571,7.318-4.558,11.848c6.759,15.211,9.257,30.769,7.422,46.238
	c-2.737,23.069-17.239,35.614-30.121,42.288c0.224-2.3,0.335-4.693,0.335-7.175c0-14.721-7.974-24.158-15.01-32.484
	c-7.312-8.654-14.219-16.827-14.967-31.981c-0.16-3.236-2.052-6.134-4.949-7.585c-2.896-1.449-6.351-1.226-9.037,0.585
	c-19.052,12.85-29.902,28.312-32.246,45.955c-1.791,13.475,1.818,25.94,6.53,35.789c-23.082-9.235-32.134-27.744-32.485-43.176
	C188.671,220.219,198.555,210.971,212.235,198.17z"/>
<path d="M407.052,62.567C366.704,22.22,313.062,0,256.002,0S145.298,22.22,104.95,62.567
	c-40.346,40.348-62.567,93.992-62.567,151.051s22.22,110.704,62.567,151.05l144.703,144.703c1.752,1.752,4.05,2.63,6.347,2.63
	c2.297,0,4.594-0.876,6.347-2.63l144.703-144.703c40.346-40.346,62.567-93.99,62.567-151.05
	C469.62,156.558,447.398,102.914,407.052,62.567z M394.357,351.973L256.001,490.329L117.646,351.973
	c-36.957-36.956-57.309-86.091-57.309-138.355s20.353-101.4,57.309-138.356s86.092-57.309,138.356-57.309
	s101.399,20.352,138.355,57.309c36.957,36.956,57.31,86.092,57.31,138.356S431.313,315.017,394.357,351.973z"/>
<path d="M256.001,59.938c-34.286,0-66.725,11.046-93.806,31.943c-3.925,3.028-4.651,8.666-1.623,12.591
	c3.029,3.923,8.664,4.651,12.591,1.623c23.911-18.451,52.555-28.203,82.838-28.203c74.84,0,135.726,60.886,135.726,135.726
	S330.84,349.346,256.001,349.346c-74.839,0-135.725-60.886-135.725-135.726c0-29.2,9.128-57.017,26.396-80.444
	c2.942-3.99,2.091-9.611-1.899-12.552c-3.993-2.942-9.611-2.091-12.552,1.899c-19.56,26.535-29.899,58.037-29.899,91.097
	c0,84.739,68.94,153.68,153.679,153.68c84.739,0,153.68-68.94,153.68-153.68S340.741,59.938,256.001,59.938z"/>
<g>
</g>
<g>
</g>
<g>
</g>
<g>
</g>
<g>
</g>
<g>
</g>
<g>
</g>
<g>
</g>
<g>
</g>
<g>
</g>
<g>
</g>
<g>
</g>
<g>
</g>
<g>
</g>
<g>
</g>
</svg>
