<?xml version="1.0" encoding="iso-8859-1"?>
<!-- Generator: Adobe Illustrator 19.0.0, SVG Export Plug-In . SVG Version: 6.00 Build 0)  -->
<svg version="1.1" id="Layer_1" xmlns="http://www.w3.org/2000/svg" xmlns:xlink="http://www.w3.org/1999/xlink" x="0px" y="0px"
	 viewBox="0 0 511.999 511.999" style="enable-background:new 0 0 511.999 511.999;" xml:space="preserve">
<path style="fill:#F7B239;" d="M132.085,71.448c27.889-37.805,72.743-62.316,123.331-62.316s95.426,24.511,123.317,62.316"/>
<path style="fill:#E09B2D;" d="M255.409,9.132c-50.584,0.002-95.434,24.513-123.324,62.316h74.127
	C217.338,33.644,235.23,9.134,255.409,9.132z"/>
<polygon style="fill:#F95428;" points="446.366,71.448 64.458,71.448 114.709,503.481 255.412,503.481 396.115,503.481 "/>
<polygon style="fill:#E03F20;" points="64.458,71.448 114.709,503.481 187.535,503.481 163.294,71.448 "/>
<path style="fill:#F7B239;" d="M339.742,367.965c0-16.284-16.402-27.474-31.548-21.494c-16.354,6.457-34.161,10.007-52.782,10.007
	c-18.622,0-36.429-3.55-52.783-10.007c-15.147-5.98-31.548,5.21-31.548,21.494l0,0c0,9.485,5.794,18.012,14.615,21.496
	c21.6,8.532,45.119,13.228,69.717,13.228c24.597,0,48.116-4.696,69.716-13.228C333.949,385.977,339.742,377.45,339.742,367.965
	L339.742,367.965z"/>
<path style="fill:#E09B2D;" d="M208.051,395.344c-8.821-3.484-14.615-12.011-14.615-21.496l0,0c0-12.768,10.084-22.4,21.739-23.084
	c-4.266-1.243-8.453-2.677-12.547-4.292c-15.147-5.981-31.549,5.21-31.549,21.494l0,0c0,9.485,5.794,18.012,14.615,21.496
	c10.454,4.13,21.362,7.35,32.619,9.585C214.851,397.904,211.426,396.677,208.051,395.344z"/>
<path d="M476.174,91.849h-22.742l2.29-19.688c0.291-2.501-0.501-5.008-2.176-6.888c-1.676-1.88-4.073-2.956-6.591-2.956H151.638
	c27.058-28.233,64.886-44.668,104.367-44.668c32.262,0,62.764,10.401,88.21,30.079c3.855,2.984,9.398,2.273,12.379-1.581
	c2.982-3.856,2.274-9.398-1.583-12.379C326.447,11.677,292.211,0,256.005,0c-25.794,0-51.459,6.211-74.225,17.965
	c-20.691,10.683-39.098,25.962-53.48,44.351H65.047c-2.518,0-4.916,1.075-6.591,2.956c-1.674,1.881-2.466,4.388-2.176,6.888
	l2.29,19.688H35.825c-4.875,0-8.825,3.951-8.825,8.825v54.007c0,55.912,19.918,108.758,56.38,150.465l23.152,199.05
	c0.518,4.449,4.288,7.805,8.766,7.805h281.407c4.479,0,8.248-3.356,8.766-7.806l10.563-90.816c0.564-4.841-2.906-9.221-7.747-9.785
	c-4.818-0.562-9.222,2.904-9.785,7.746l-9.654,83.01H123.156l-19.638-168.837c17.792,15.915,37.749,28.835,59.544,38.51
	c-0.136,1.2-0.214,2.413-0.214,3.637c0,13.198,7.928,24.857,20.198,29.704c23.258,9.187,47.805,13.844,72.957,13.844
	s49.699-4.657,72.957-13.844c12.27-4.845,20.198-16.504,20.198-29.704c0-1.226-0.078-2.441-0.215-3.644
	c21.846-9.706,41.885-22.681,59.537-38.451l-5.848,50.272c-0.564,4.842,2.906,9.222,7.747,9.785
	c4.818,0.564,9.222-2.904,9.785-7.746l8.458-72.713c6.009-6.9,11.637-14.177,16.836-21.818
	c25.868-38.018,39.541-82.509,39.541-128.666v-54.007C484.999,95.799,481.049,91.849,476.174,91.849z M44.649,154.68v-45.182h15.975
	l1.033,8.883c0.001,0.018,0.005,0.034,0.006,0.052l17.73,152.438C56.791,236.673,44.649,196.611,44.649,154.68z M322.476,380.947
	c-21.186,8.367-43.551,12.61-66.474,12.61s-45.288-4.243-66.473-12.61c-5.488-2.167-9.033-7.383-9.033-13.289
	c0-4.804,2.279-9.109,6.251-11.812c2.426-1.65,5.175-2.491,7.966-2.491c1.764,0,3.544,0.337,5.268,1.017
	c17.854,7.049,36.702,10.624,56.022,10.624c19.319,0,38.167-3.575,56.022-10.622c4.45-1.757,9.272-1.219,13.232,1.473
	c3.972,2.703,6.251,7.008,6.251,11.813C331.508,373.564,327.963,378.78,322.476,380.947z M342.148,347.699
	c-1.964-2.451-4.297-4.632-6.962-6.446c-8.739-5.944-19.82-7.176-29.64-3.298c-15.782,6.23-32.451,9.389-49.542,9.389
	c-17.092,0-33.76-3.159-49.542-9.391c-9.826-3.878-20.905-2.645-29.64,3.298c-2.672,1.818-5.011,4.005-6.977,6.463
	c-23.594-10.53-44.863-25.174-63.287-43.597c-2.153-2.153-4.243-4.351-6.291-6.58L85.526,170.826h51.594
	c4.875,0,8.825-3.951,8.825-8.825c0-4.874-3.95-8.825-8.825-8.825H83.473l-3.124-26.854h269.739c4.875,0,8.825-3.951,8.825-8.825
	c0-4.874-3.95-8.825-8.825-8.825H78.297l-3.339-28.708h57.704c0.002,0,0.005,0,0.007,0c0.004,0,0.007,0,0.011,0h304.368
	l-3.339,28.708h-50.673c-4.875,0-8.825,3.951-8.825,8.825c0,4.874,3.95,8.825,8.825,8.825h48.621l-3.124,26.854h-259.55
	c-4.875,0-8.825,3.951-8.825,8.825c0,4.874,3.95,8.825,8.825,8.825h257.496l-14.744,126.763
	C392.245,318.85,368.631,335.871,342.148,347.699z M467.35,154.68c0,41.542-12.003,81.614-34.73,116.106l18.76-161.289h15.97V154.68
	z"/>
<g>
</g>
<g>
</g>
<g>
</g>
<g>
</g>
<g>
</g>
<g>
</g>
<g>
</g>
<g>
</g>
<g>
</g>
<g>
</g>
<g>
</g>
<g>
</g>
<g>
</g>
<g>
</g>
<g>
</g>
</svg>
