<?xml version="1.0" encoding="iso-8859-1"?>
<!-- Generator: Adobe Illustrator 19.0.0, SVG Export Plug-In . SVG Version: 6.00 Build 0)  -->
<svg version="1.1" id="Layer_1" xmlns="http://www.w3.org/2000/svg" xmlns:xlink="http://www.w3.org/1999/xlink" x="0px" y="0px"
	 viewBox="0 0 512 512" style="enable-background:new 0 0 512 512;" xml:space="preserve">
<path style="fill:#CCCCCC;" d="M199.134,346.425l53.482,53.482L175.322,477.2c-21.067,21.068-51.289,30.22-80.516,24.371
	l-70.559-14.109l-14.109-70.559c-5.849-29.227,3.304-59.449,24.371-80.516l77.293-77.293l53.482,53.482"/>
<path style="fill:#F95428;" d="M502.404,43.155L468.556,9.308L112.136,365.73c-8.781,8.781-8.781,23.018,0,31.8l2.047,2.047
	c8.781,8.781,23.018,8.781,31.8,0L502.404,43.155z"/>
<path style="fill:#E03F20;" d="M127.127,380.722L483.548,24.3L468.556,9.308L112.136,365.73c-8.781,8.781-8.781,23.018,0,31.8
	l2.047,2.047c2.307,2.307,4.995,3.991,7.858,5.086C118.968,396.63,120.652,387.195,127.127,380.722z"/>
<path d="M509.366,36.482L475.518,2.635c-3.513-3.513-9.208-3.513-12.72,0L106.376,359.056c-5.946,5.946-9.22,13.852-9.22,22.26
	s3.274,16.314,9.22,22.259l2.048,2.048c6.138,6.137,14.199,9.205,22.26,9.205c8.062,0,16.122-3.069,22.26-9.206l46.792-46.792
	l40.761,40.761l-70.933,70.933c-18.99,18.991-46.052,27.184-72.392,21.911l-64.679-12.932l-12.933-64.68
	c-5.271-26.338,2.922-53.399,21.913-72.39l70.933-70.933l27.031,27.031c3.513,3.513,9.208,3.513,12.72,0
	c3.513-3.513,3.513-9.208,0-12.72l-33.391-33.391c-3.513-3.513-9.208-3.513-12.72,0l-77.293,77.293
	C5.496,352.97-4.533,386.105,1.92,418.355l14.109,70.559c0.712,3.561,3.496,6.344,7.057,7.057l70.559,14.107
	c6.44,1.289,12.917,1.921,19.341,1.921c25.749,0,50.689-10.141,69.299-28.751l77.293-77.293c3.513-3.513,3.513-9.208,0-12.72
	l-47.121-47.122l172.781-172.781c3.513-3.513,3.513-9.208,0-12.72c-3.513-3.513-9.208-3.513-12.72,0L140.223,392.904
	c-5.26,5.26-13.818,5.26-19.079,0l-2.048-2.048c-2.549-2.549-3.952-5.937-3.952-9.539c0-3.604,1.403-6.992,3.952-9.54
	l350.062-350.06l21.127,21.127l-97.98,97.98c-3.513,3.513-3.513,9.208,0,12.72c3.513,3.513,9.208,3.513,12.72,0l104.34-104.34
	c1.687-1.686,2.635-3.975,2.635-6.36C512,40.458,511.053,38.17,509.366,36.482z"/>
<g>
</g>
<g>
</g>
<g>
</g>
<g>
</g>
<g>
</g>
<g>
</g>
<g>
</g>
<g>
</g>
<g>
</g>
<g>
</g>
<g>
</g>
<g>
</g>
<g>
</g>
<g>
</g>
<g>
</g>
</svg>
