<?xml version="1.0" encoding="iso-8859-1"?>
<!-- Generator: Adobe Illustrator 19.0.0, SVG Export Plug-In . SVG Version: 6.00 Build 0)  -->
<svg version="1.1" id="Layer_1" xmlns="http://www.w3.org/2000/svg" xmlns:xlink="http://www.w3.org/1999/xlink" x="0px" y="0px"
	 viewBox="0 0 512 512" style="enable-background:new 0 0 512 512;" xml:space="preserve">
<path style="fill:#CCCCCC;" d="M385.849,9.485H124.918c-21.078,0-38.164,17.087-38.164,38.164v417.342
	c0,21.078,17.087,38.164,38.164,38.164h260.931c21.078,0,38.164-17.087,38.164-38.164V47.649
	C424.013,26.571,406.926,9.485,385.849,9.485z"/>
<path style="fill:#E6E6E6;" d="M424.017,89.241v319.823H86.756V89.241H424.017z M344.589,292.574
	c11.401-96.095-105.87-157.999-105.87-157.999c0,105.883-74.93,87.956-73.293,159.624c0.916,40.471,34.972,63.627,73.195,68.136
	c-9.165-10.594-49.575-63.31,13.124-105.602c2.016,40.764,35.84,47.241,35.84,76.556c0,12.354-2.603,20.639-5.609,26.113
	C313.515,351.155,340.251,329.172,344.589,292.574z"/>
<circle style="fill:#CCCCCC;" cx="255.389" cy="455.827" r="21.995"/>
<path style="fill:#F95428;" d="M238.719,134.575c0,0,117.271,61.904,105.87,157.999c-4.338,36.598-31.074,58.581-62.613,66.829
	c3.006-5.474,5.609-13.759,5.609-26.113c0-29.315-33.824-35.791-35.84-76.556c-62.699,42.292-22.288,95.007-13.124,105.602
	c-38.223-4.509-72.279-27.665-73.195-68.136C163.789,222.532,238.719,240.458,238.719,134.575z"/>
<g>
	<path style="fill:#666666;" d="M424.017,409.064v55.929c0,21.079-17.095,38.162-38.174,38.162H124.918
		c-21.079,0-38.162-17.083-38.162-38.162v-55.929H424.017z M277.382,455.828c0-12.146-9.849-21.995-21.995-21.995
		s-21.995,9.849-21.995,21.995s9.849,21.995,21.995,21.995S277.382,467.974,277.382,455.828z"/>
	<path style="fill:#666666;" d="M424.017,47.645v41.595H86.756V47.645c0-21.079,17.083-38.162,38.162-38.162h260.924
		C406.921,9.484,424.017,26.567,424.017,47.645z"/>
</g>
<path d="M203.238,238.393c18.342-17.161,40.762-38.141,44.666-88.295c15.372,9.954,41.528,29.152,61.511,55.477
	c3.059,4.032,8.808,4.819,12.84,1.76c4.032-3.06,4.819-8.809,1.758-12.84c-32.426-42.722-78.459-67.316-80.404-68.343
	c-2.84-1.498-6.258-1.402-9.009,0.257c-2.752,1.658-4.433,4.636-4.433,7.849c0,53.837-20.056,72.604-39.452,90.752
	c-17.048,15.951-34.675,32.445-33.838,69.08c0.488,21.572,9.42,40.358,25.83,54.326c14.216,12.1,33.909,20.164,55.455,22.705
	c0.36,0.043,0.72,0.064,1.077,0.064c3.362,0,6.492-1.851,8.094-4.871c1.772-3.342,1.309-7.428-1.166-10.289
	c-5.168-5.974-21.783-27.301-18.643-50.93c1.527-11.494,7.658-22.196,18.266-31.936c4.252,15.197,12.793,25.299,19.996,33.824
	c7.691,9.1,13.248,15.674,13.248,25.992c0,8.99-1.505,16.291-4.477,21.702c-1.762,3.209-1.446,7.158,0.805,10.046
	c2.251,2.887,6.006,4.157,9.547,3.232c39.128-10.233,65.07-38.128,69.396-74.615c2.874-24.219-1.617-48.391-13.345-71.841
	c-2.266-4.526-7.769-6.361-12.297-4.097c-4.527,2.264-6.362,7.769-4.098,12.297c10.101,20.193,13.98,40.879,11.535,61.483
	c-3.539,29.852-23.129,45.293-39.463,53.07c0.483-3.555,0.725-7.317,0.725-11.275c0-17.027-8.936-27.599-17.578-37.823
	c-8.924-10.556-17.351-20.528-18.273-39.186c-0.164-3.304-2.094-6.263-5.053-7.742c-2.961-1.481-6.484-1.251-9.227,0.598
	c-22.392,15.105-35.137,33.226-37.879,53.86c-2.296,17.282,3.016,33.179,9.305,45.187c-22.6-8.086-42.8-25.21-43.456-54.193
	C174.553,265.234,187.211,253.39,203.238,238.393z"/>
<path d="M386.468,0H125.544C99.442,0,78.205,21.23,78.205,47.326v80.35c0,5.061,4.102,9.165,9.165,9.165
	c5.063,0,9.165-4.103,9.165-9.165v-29.59h318.931V399.58h-61.025c-5.063,0-9.165,4.103-9.165,9.165c0,5.061,4.102,9.165,9.165,9.165
	h61.025v46.764c0,15.989-13.009,28.997-28.997,28.997H125.544c-15.997,0-29.009-13.008-29.009-28.997v-46.764h227.97
	c5.063,0,9.165-4.103,9.165-9.165c0-5.061-4.102-9.165-9.165-9.165H96.535V159.446c0-5.061-4.102-9.165-9.165-9.165
	c-5.063,0-9.165,4.103-9.165,9.165v305.228c0,26.096,21.236,47.326,47.339,47.326h260.924c26.096,0,47.326-21.23,47.326-47.326
	V47.326C433.795,21.23,412.564,0,386.468,0z M96.535,79.757V47.326c0-15.989,13.013-28.997,29.009-28.997h260.924
	c15.988,0,28.997,13.008,28.997,28.997v32.431C415.465,79.757,96.535,79.757,96.535,79.757z"/>
<path d="M224.84,455.509c0,17.182,13.978,31.16,31.16,31.16s31.16-13.978,31.16-31.16s-13.978-31.16-31.16-31.16
	S224.84,438.327,224.84,455.509z M268.831,455.509c0,7.075-5.755,12.831-12.831,12.831c-7.075,0-12.831-5.755-12.831-12.831
	c0-7.075,5.755-12.831,12.831-12.831C263.075,442.678,268.831,448.434,268.831,455.509z"/>
<path d="M288.989,39.433h-65.986c-5.063,0-9.165,4.103-9.165,9.165s4.102,9.165,9.165,9.165h65.986c5.063,0,9.165-4.103,9.165-9.165
	S294.052,39.433,288.989,39.433z"/>
<g>
</g>
<g>
</g>
<g>
</g>
<g>
</g>
<g>
</g>
<g>
</g>
<g>
</g>
<g>
</g>
<g>
</g>
<g>
</g>
<g>
</g>
<g>
</g>
<g>
</g>
<g>
</g>
<g>
</g>
</svg>
