<?xml version="1.0" encoding="iso-8859-1"?>
<!-- Generator: Adobe Illustrator 19.0.0, SVG Export Plug-In . SVG Version: 6.00 Build 0)  -->
<svg version="1.1" id="Layer_1" xmlns="http://www.w3.org/2000/svg" xmlns:xlink="http://www.w3.org/1999/xlink" x="0px" y="0px"
	 viewBox="0 0 512.001 512.001" style="enable-background:new 0 0 512.001 512.001;" xml:space="preserve">
<path style="fill:#F95428;" d="M399.951,273.824c0,101.882-72.101,84.641-70.534,153.608c0.885,38.938,33.659,61.23,70.443,65.561
	c-8.816-10.188-47.706-60.921,12.629-101.612c1.937,39.219,34.483,45.456,34.483,73.669c0,11.881-2.503,19.86-5.4,25.129
	c30.356-7.936,56.081-29.093,60.259-64.315C512.804,333.386,399.951,273.824,399.951,273.824z"/>
<circle style="fill:#E6E6E6;" cx="187.744" cy="199.138" r="179.524"/>
<circle style="fill:#B3B3B3;" cx="187.744" cy="199.138" r="120.094"/>
<path style="fill:#999999;" d="M187.749,79.041c-5.586,0-11.079,0.39-16.463,1.128c58.539,8.025,103.637,58.228,103.637,118.971
	s-45.098,110.945-103.637,118.971c5.383,0.738,10.877,1.128,16.463,1.128c66.329,0,120.099-53.77,120.099-120.099
	S254.077,79.041,187.749,79.041z"/>
<g>
	<circle style="fill:#4D4D4D;" cx="243.846" cy="199.138" r="23.27"/>
	<circle style="fill:#4D4D4D;" cx="131.654" cy="199.138" r="23.27"/>
</g>
<path d="M482.033,331.478c-2.943-3.879-8.476-4.637-12.356-1.692c-3.88,2.944-4.638,8.477-1.692,12.358
	c20.345,26.803,28.986,54.518,25.68,82.374c-3.408,28.732-22.262,43.591-37.979,51.074c0.464-3.421,0.697-7.04,0.697-10.849
	c0-16.386-8.599-26.562-16.916-36.403c-8.584-10.157-16.692-19.753-17.577-37.7c-0.158-3.18-2.015-6.026-4.862-7.452
	c-2.847-1.425-6.241-1.204-8.878,0.575c-21.549,14.534-33.814,31.971-36.453,51.828c-2.21,16.633,2.902,31.928,8.954,43.482
	c-21.751-7.776-41.193-24.253-41.827-52.148c-0.622-27.365,11.56-38.766,26.984-53.199c17.65-16.517,39.226-36.703,42.981-84.97
	c10.388,6.723,25.894,17.832,40.87,32.635c3.463,3.423,9.046,3.391,12.472-0.073c3.424-3.463,3.392-9.047-0.073-12.472
	c-27.532-27.217-56.195-42.491-57.401-43.127c-2.733-1.442-6.021-1.35-8.671,0.247c-2.647,1.596-4.265,4.461-4.265,7.553
	c0,51.803-19.3,69.864-37.964,87.329c-16.405,15.351-33.368,31.225-32.567,66.478c0.47,20.756,9.067,38.832,24.861,52.273
	c13.683,11.646,32.636,19.405,53.369,21.847c0.346,0.041,0.691,0.06,1.034,0.06c3.236,0,6.249-1.782,7.79-4.689
	c1.704-3.216,1.258-7.148-1.123-9.9c-4.973-5.747-20.959-26.262-17.938-49.003c1.469-11.06,7.367-21.357,17.575-30.729
	c4.091,14.619,12.307,24.339,19.238,32.541c7.401,8.758,12.749,15.087,12.749,25.018c0,8.532-1.491,15.752-4.31,20.879
	c-1.697,3.087-1.395,6.89,0.771,9.669c2.166,2.781,5.784,4.004,9.187,3.113c37.653-9.843,62.621-36.687,66.789-71.807
	C515.042,394.048,505.236,362.046,482.033,331.478z"/>
<path d="M376.677,198.834c0-103.851-84.489-188.339-188.339-188.339S0,94.983,0,198.834c0,103.849,84.488,188.339,188.338,188.339
	S376.677,302.684,376.677,198.834z M188.338,369.534c-94.124,0-170.699-76.576-170.699-170.7s76.576-170.7,170.699-170.7
	c94.125,0,170.7,76.576,170.7,170.7S282.462,369.534,188.338,369.534z"/>
<path d="M291.737,121.823c-2.913-3.904-8.436-4.707-12.342-1.796c-3.904,2.913-4.708,8.438-1.796,12.342
	c14.406,19.314,22.021,42.297,22.021,66.465c0,61.36-49.92,111.28-111.281,111.28s-111.28-49.92-111.28-111.28
	c0-61.361,49.919-111.28,111.28-111.28c24.528,0,47.786,7.821,67.259,22.618c3.88,2.948,9.413,2.192,12.359-1.686
	c2.947-3.878,2.192-9.411-1.686-12.358c-22.568-17.148-49.517-26.213-77.931-26.213c-71.085,0-128.918,57.833-128.918,128.918
	s57.833,128.918,128.918,128.918c71.087,0,128.92-57.833,128.92-128.918C317.257,170.837,308.432,144.206,291.737,121.823z"/>
<path d="M244.436,166.745c-17.694,0-32.089,14.395-32.089,32.09s14.395,32.089,32.089,32.089c17.695,0,32.09-14.395,32.09-32.089
	S262.131,166.745,244.436,166.745z M244.436,213.284c-7.968,0-14.451-6.483-14.451-14.451s6.483-14.452,14.451-14.452
	c7.968,0,14.452,6.483,14.452,14.452S252.404,213.284,244.436,213.284z"/>
<path d="M132.239,184.383c4.872,0,8.819-3.949,8.819-8.819c0-4.871-3.947-8.819-8.819-8.819c-17.694,0-32.089,14.395-32.089,32.09
	s14.395,32.089,32.089,32.089s32.089-14.395,32.089-32.089c0-4.327-0.85-8.53-2.523-12.493c-1.897-4.487-7.073-6.584-11.558-4.689
	c-4.485,1.897-6.585,7.072-4.688,11.558c0.751,1.777,1.132,3.669,1.132,5.624c0,7.968-6.483,14.451-14.451,14.451
	c-7.968,0-14.451-6.483-14.451-14.451C117.79,190.867,124.271,184.383,132.239,184.383z"/>
<g>
</g>
<g>
</g>
<g>
</g>
<g>
</g>
<g>
</g>
<g>
</g>
<g>
</g>
<g>
</g>
<g>
</g>
<g>
</g>
<g>
</g>
<g>
</g>
<g>
</g>
<g>
</g>
<g>
</g>
</svg>
