<?xml version="1.0" encoding="iso-8859-1"?>
<!-- Generator: Adobe Illustrator 19.0.0, SVG Export Plug-In . SVG Version: 6.00 Build 0)  -->
<svg version="1.1" id="Layer_1" xmlns="http://www.w3.org/2000/svg" xmlns:xlink="http://www.w3.org/1999/xlink" x="0px" y="0px"
	 viewBox="0 0 511.999 511.999" style="enable-background:new 0 0 511.999 511.999;" xml:space="preserve">
<path style="fill:#666666;" d="M337.06,144.405H173.823c-17.014,0-30.807,13.793-30.807,30.807v297.924
	c0,17.014,13.793,30.807,30.807,30.807H337.06c17.014,0,30.807-13.793,30.807-30.807V175.21
	C367.867,158.198,354.074,144.405,337.06,144.405z"/>
<path style="fill:#4D4D4D;" d="M176.409,473.135V175.21c0-17.014,13.793-30.807,30.807-30.807h-33.392
	c-17.014,0-30.807,13.793-30.807,30.807v297.924c0,17.014,13.793,30.807,30.807,30.807h33.392
	C190.201,503.942,176.409,490.149,176.409,473.135z"/>
<path style="fill:#666666;" d="M318.89,8.639L318.89,8.639c-10.451,0-18.923,8.472-18.923,18.923v116.843h37.846V27.562
	C337.813,17.111,329.341,8.639,318.89,8.639z"/>
<g>
	<rect x="236.515" y="115.085" style="fill:#F7B239;" width="37.846" height="29.32"/>
	<rect x="173.068" y="115.085" style="fill:#F7B239;" width="37.846" height="29.32"/>
</g>
<rect x="178.088" y="181.138" style="fill:#F2F2F2;" width="154.723" height="84.597"/>
<polygon style="fill:#FFFFFF;" points="332.807,181.142 332.807,265.739 230.99,265.739 284.475,181.142 "/>
<g>
	<circle style="fill:#F7B239;" cx="315.502" cy="312.53" r="17.302"/>
	<circle style="fill:#F7B239;" cx="256.04" cy="312.53" r="17.302"/>
</g>
<path d="M368.424,237.611c4.611,0,8.348-3.738,8.348-8.348V174.92c0-18.457-12.84-33.961-30.054-38.075V27.271
	C346.719,12.234,334.485,0,319.447,0l0,0c-15.037,0-27.271,12.234-27.271,27.271v108.495h-8.905v-20.971
	c0-4.611-3.738-8.348-8.348-8.348h-37.846c-4.611,0-8.348,3.738-8.348,8.348v20.971h-8.905v-20.971c0-4.611-3.738-8.348-8.348-8.348
	h-37.846c-4.611,0-8.348,3.738-8.348,8.348v22.05c-17.214,4.115-30.054,19.619-30.054,38.075v297.924
	c0,21.59,17.565,39.155,39.155,39.155h163.237c21.59,0,39.155-17.565,39.155-39.155V264.323c0-4.611-3.738-8.348-8.348-8.348
	s-8.348,3.738-8.348,8.348v208.521c0,12.383-10.075,22.458-22.458,22.458H174.381c-12.383,0-22.458-10.075-22.458-22.458V174.921
	c0-12.383,10.075-22.458,22.458-22.458h163.237c12.383,0,22.458,10.075,22.458,22.458v54.342
	C360.076,233.873,363.814,237.611,368.424,237.611z M181.977,135.766v-12.623h21.149v12.623
	C203.126,135.766,181.977,135.766,181.977,135.766z M245.425,135.766v-12.623h21.149v12.623
	C266.574,135.766,245.425,135.766,245.425,135.766z M308.873,135.766V27.271c0-5.831,4.744-10.575,10.575-10.575
	c5.831,0,10.575,4.744,10.575,10.575v108.495H308.873z"/>
<path d="M341.71,180.847c0-4.611-3.738-8.348-8.348-8.348H178.638c-4.611,0-8.348,3.738-8.348,8.348v84.597
	c0,4.611,3.738,8.348,8.348,8.348h25.739c4.611,0,8.348-3.738,8.348-8.348s-3.738-8.348-8.348-8.348h-17.39v-67.9h138.027v67.9
	h-93.464c-4.611,0-8.348,3.738-8.348,8.348s3.738,8.348,8.348,8.348h101.813c4.611,0,8.348-3.738,8.348-8.348V180.847z"/>
<path d="M333.361,400.132H178.638c-4.611,0-8.348,3.738-8.348,8.348s3.738,8.348,8.348,8.348h154.723
	c4.611,0,8.348-3.738,8.348-8.348S337.972,400.132,333.361,400.132z"/>
<path d="M333.361,430.742H178.638c-4.611,0-8.348,3.738-8.348,8.348s3.738,8.348,8.348,8.348h154.723
	c4.611,0,8.348-3.738,8.348-8.348S337.972,430.742,333.361,430.742z"/>
<path d="M333.361,369.521h-108.95c-4.611,0-8.348,3.738-8.348,8.348s3.738,8.348,8.348,8.348h108.95
	c4.611,0,8.348-3.738,8.348-8.348S337.972,369.521,333.361,369.521z"/>
<path d="M178.638,386.218h19.06c4.611,0,8.348-3.738,8.348-8.348s-3.738-8.348-8.348-8.348h-19.06c-4.611,0-8.348,3.738-8.348,8.348
	S174.027,386.218,178.638,386.218z"/>
<path d="M316.059,286.594c-14.144,0-25.651,11.506-25.651,25.651c0,14.144,11.506,25.651,25.651,25.651
	c14.144,0,25.651-11.507,25.651-25.651C341.71,298.101,330.203,286.594,316.059,286.594z M316.059,321.198
	c-4.938,0-8.954-4.017-8.954-8.954c0-4.937,4.016-8.954,8.954-8.954s8.954,4.016,8.954,8.954
	C325.013,317.182,320.997,321.198,316.059,321.198z"/>
<path d="M282.246,312.244c0-14.144-11.507-25.651-25.651-25.651c-14.143,0-25.651,11.506-25.651,25.651
	c0,14.144,11.506,25.651,25.651,25.651C270.739,337.895,282.246,326.387,282.246,312.244z M247.64,312.244
	c0-4.938,4.016-8.954,8.954-8.954c4.938,0,8.954,4.016,8.954,8.954c0,4.938-4.017,8.954-8.954,8.954
	C251.657,321.198,247.64,317.181,247.64,312.244z"/>
<g>
</g>
<g>
</g>
<g>
</g>
<g>
</g>
<g>
</g>
<g>
</g>
<g>
</g>
<g>
</g>
<g>
</g>
<g>
</g>
<g>
</g>
<g>
</g>
<g>
</g>
<g>
</g>
<g>
</g>
</svg>
